<?xml version="1.0" encoding="UTF-8" standalone="no"?>
<!DOCTYPE svg PUBLIC "-//W3C//DTD SVG 1.1//EN" "http://www.w3.org/Graphics/SVG/1.1/DTD/svg11.dtd">
<svg version="1.1" xmlns="http://www.w3.org/2000/svg" xmlns:xlink="http://www.w3.org/1999/xlink" preserveAspectRatio="xMidYMid meet" viewBox="0 0 640 640" width="640" height="640"><defs><path d="M594.13 148.9C609.33 148.9 621.65 161.23 621.65 176.43C621.65 238.7 621.65 398.01 621.65 460.29C621.65 475.49 609.33 487.81 594.13 487.81C478.67 487.81 159.83 487.81 44.37 487.81C29.17 487.81 16.85 475.49 16.85 460.29C16.85 398.01 16.85 238.7 16.85 176.43C16.85 161.23 29.17 148.9 44.37 148.9C159.83 148.9 478.67 148.9 594.13 148.9Z" id="c85lV9k0F6"></path><path d="M621.65 179.9C621.65 248.71 486.15 304.58 319.25 304.58C152.35 304.58 16.85 248.71 16.85 179.9C16.85 111.09 152.35 55.22 319.25 55.22C486.15 55.22 621.65 111.09 621.65 179.9Z" id="a44aQQvaR"></path><path d="" id="a2j4nm5taY"></path><path d="M621.36 470.34C621.36 534.45 485.86 586.5 318.96 586.5C152.06 586.5 16.56 534.45 16.56 470.34C16.56 406.23 152.06 354.18 318.96 354.18C485.86 354.18 621.36 406.23 621.36 470.34Z" id="b71hXPtbS"></path><path d="" id="b3jVGThkwo"></path><path d="M617.51 381.73C617.51 472.21 482.01 545.68 315.11 545.68C148.21 545.68 12.71 472.21 12.71 381.73C12.71 291.25 148.21 217.79 315.11 217.79C482.01 217.79 617.51 291.25 617.51 381.73Z" id="a1FcTj2AM"></path><path d="M621.65 213.28C621.65 284.75 486.15 342.78 319.25 342.78C152.35 342.78 16.85 284.75 16.85 213.28C16.85 141.8 152.35 83.78 319.25 83.78C486.15 83.78 621.65 141.8 621.65 213.28Z" id="egUwbNrq3"></path><path d="M589.2 163.78C589.2 179.71 561.36 192.64 527.08 192.64C492.8 192.64 464.96 179.71 464.96 163.78C464.96 147.84 492.8 134.91 527.08 134.91C561.36 134.91 589.2 147.84 589.2 163.78Z" id="gmijGfqvg"></path><path d="M396.53 108.7C395.77 124.62 367.35 136.21 333.11 134.58C298.87 132.95 271.68 118.71 272.44 102.79C273.19 86.88 301.61 75.28 335.86 76.91C370.1 78.54 397.29 92.79 396.53 108.7Z" id="h5PlSmdLTb"></path><path d="M468.97 261.94C468.97 277.87 441.13 290.8 406.85 290.8C372.57 290.8 344.73 277.87 344.73 261.94C344.73 246 372.57 233.07 406.85 233.07C441.13 233.07 468.97 246 468.97 261.94Z" id="b5ovceCc4H"></path><path d="M257.93 127.91C257.93 143.85 230.1 156.78 195.81 156.78C161.53 156.78 133.7 143.85 133.7 127.91C133.7 111.98 161.53 99.04 195.81 99.04C230.1 99.04 257.93 111.98 257.93 127.91Z" id="d1GdZJMeD"></path><path d="M269.79 245.61C269.79 261.55 297.62 274.48 331.91 274.48C366.19 274.48 394.02 261.55 394.02 245.61C394.02 229.68 366.19 216.75 331.91 216.75C297.62 216.75 269.79 229.68 269.79 245.61Z" id="cbyxibYny"></path><path d="M56.46 200.1C56.46 216.03 84.29 228.97 118.57 228.97C152.86 228.97 180.69 216.03 180.69 200.1C180.69 184.16 152.86 171.23 118.57 171.23C84.29 171.23 56.46 184.16 56.46 200.1Z" id="dgeNb0J02"></path><path d="M544.83 132.05C544.83 147.98 516.99 160.92 482.71 160.92C448.43 160.92 420.59 147.98 420.59 132.05C420.59 116.12 448.43 103.18 482.71 103.18C516.99 103.18 544.83 116.12 544.83 132.05Z" id="aUDYUfvX"></path><path d="M598.16 196.88C598.16 212.81 570.33 225.75 536.04 225.75C501.76 225.75 473.93 212.81 473.93 196.88C473.93 180.95 501.76 168.01 536.04 168.01C570.33 168.01 598.16 180.95 598.16 196.88Z" id="j1UjCXUmKI"></path><path d="M554.94 235.27C554.94 251.2 527.11 264.14 492.83 264.14C458.54 264.14 430.71 251.2 430.71 235.27C430.71 219.34 458.54 206.4 492.83 206.4C527.11 206.4 554.94 219.34 554.94 235.27Z" id="c2MKyeC2bd"></path><path d="M324.37 265.61C324.37 281.55 296.53 294.48 262.25 294.48C227.97 294.48 200.13 281.55 200.13 265.61C200.13 249.68 227.97 236.75 262.25 236.75C296.53 236.75 324.37 249.68 324.37 265.61Z" id="a23IjyeahU"></path><path d="M234.02 236.19C234.02 252.12 206.19 265.06 171.91 265.06C137.62 265.06 109.79 252.12 109.79 236.19C109.79 220.26 137.62 207.32 171.91 207.32C206.19 207.32 234.02 220.26 234.02 236.19Z" id="d2YzmggSn"></path><path d="M334.3 243.65L341.8 249.9L338.2 252.6L334.6 255.3L330.7 246.35L326.8 237.4L334.3 243.65Z" id="f2ZJaZ5NfQ"></path><path d="M324.3 229.76L333.55 226.66L333.96 231.14L334.37 235.62L324.7 234.24L315.04 232.86L324.3 229.76Z" id="ayz67UeGM"></path><path d="M340.13 238.34L349.88 238.83L348.62 243.15L347.37 247.47L338.87 242.66L330.38 237.85L340.13 238.34Z" id="a31xJQYGqn"></path><path d="M260.21 276.24L250.97 279.38L250.54 274.9L250.12 270.42L259.79 271.76L269.46 273.1L260.21 276.24Z" id="b5BtOgMbo7"></path><path d="M344.19 246.76L353.84 245.3L353.47 249.79L353.09 254.27L343.81 251.24L334.53 248.21L344.19 246.76Z" id="cGPui0Mmm"></path><path d="M321.35 236.78L331.09 236.04L330.38 240.48L329.68 244.93L320.65 241.22L311.62 237.52L321.35 236.78Z" id="a2uoAs4GCG"></path><path d="M337.25 231.26L346.94 230.08L346.44 234.55L345.94 239.02L336.75 235.74L327.56 232.45L337.25 231.26Z" id="c1t27rzc0H"></path><path d="M405.64 261.84L415.39 262.38L414.11 266.7L412.83 271.01L404.36 266.16L395.89 261.3L405.64 261.84Z" id="csQu36Xab"></path><path d="M422.17 260.26L431.81 258.71L431.47 263.2L431.14 267.69L421.83 264.74L412.53 261.8L422.17 260.26Z" id="a156LEmqfD"></path><path d="M411.22 270.26L420.9 268.97L420.45 273.45L420.01 277.92L410.78 274.74L401.55 271.55L411.22 270.26Z" id="cbHyPBmHN"></path><path d="M412.99 255.49L420.48 249.23L422.5 253.25L424.51 257.28L415.01 259.51L405.5 261.75L412.99 255.49Z" id="e1J1pv0K0u"></path><path d="M270.57 266.02L280 268.54L277.86 272.5L275.73 276.47L268.43 269.98L261.14 263.5L270.57 266.02Z" id="b1x6l4Out"></path><path d="M256.29 262.39L265.98 263.63L264.39 267.84L262.81 272.05L254.71 266.61L246.61 261.16L256.29 262.39Z" id="a3HZCBqeM"></path><path d="M260.07 256.52L269.5 259.04L267.36 263L265.23 266.97L257.93 260.48L250.64 254L260.07 256.52Z" id="a20CPQ1s7z"></path><path d="M423.57 266.02L433 268.54L430.86 272.5L428.73 276.47L421.43 269.98L414.14 263.5L423.57 266.02Z" id="a88AOgofj"></path><path d="M249.91 253.83L258.48 249.16L259.67 253.5L260.85 257.84L251.09 258.17L241.33 258.5L249.91 253.83Z" id="dNeuBAkf2"></path><path d="M243.07 261.52L252.5 264.04L250.36 268L248.23 271.97L240.93 265.48L233.64 259L243.07 261.52Z" id="d161OGOWl"></path><path d="M475.25 234.26L484.94 233.08L484.44 237.55L483.94 242.02L474.75 238.74L465.56 235.45L475.25 234.26Z" id="c6dYZdmO"></path><path d="M495.25 239.26L504.94 238.08L504.44 242.55L503.94 247.02L494.75 243.74L485.56 240.45L495.25 239.26Z" id="e5ZeniOV7x"></path><path d="M481.25 232.26L490.94 231.08L490.44 235.55L489.94 240.02L480.75 236.74L471.56 233.45L481.25 232.26Z" id="a1ClSfTZo1"></path><path d="M502.25 224.26L511.94 223.08L511.44 227.55L510.94 232.02L501.75 228.74L492.56 225.45L502.25 224.26Z" id="a4zst6R5yn"></path><path d="M500.25 234.26L509.94 233.08L509.44 237.55L508.94 242.02L499.75 238.74L490.56 235.45L500.25 234.26Z" id="b2O52HsrfQ"></path><path d="M486.25 227.26L495.94 226.08L495.44 230.55L494.94 235.02L485.75 231.74L476.56 228.45L486.25 227.26Z" id="b5k4H37LFE"></path><path d="M526.25 186.26L535.94 185.08L535.44 189.55L534.94 194.02L525.75 190.74L516.56 187.45L526.25 186.26Z" id="a1aHJiJdOj"></path><path d="M528.25 193.26L537.94 192.08L537.44 196.55L536.94 201.02L527.75 197.74L518.56 194.45L528.25 193.26Z" id="h14LLHhJUf"></path><path d="M541.25 202.26L550.94 201.08L550.44 205.55L549.94 210.02L540.75 206.74L531.56 203.45L541.25 202.26Z" id="e6kXvbxK7g"></path><path d="M535.25 194.26L544.94 193.08L544.44 197.55L543.94 202.02L534.75 198.74L525.56 195.45L535.25 194.26Z" id="e3xrzfNFT"></path><path d="M543.25 189.26L552.94 188.08L552.44 192.55L551.94 197.02L542.75 193.74L533.56 190.45L543.25 189.26Z" id="cQrjMdA6"></path><path d="M545.25 199.26L554.94 198.08L554.44 202.55L553.94 207.02L544.75 203.74L535.56 200.45L545.25 199.26Z" id="d2cm6XunLI"></path><path d="M331.21 100.24L321.97 103.38L321.54 98.9L321.12 94.42L330.79 95.76L340.46 97.1L331.21 100.24Z" id="aq1ISdzZF"></path><path d="M166.21 240.24L156.97 243.38L156.54 238.9L156.12 234.42L165.79 235.76L175.46 237.1L166.21 240.24Z" id="f2sgVhdXhy"></path><path d="M331.21 111.24L321.97 114.38L321.54 109.9L321.12 105.42L330.79 106.76L340.46 108.1L331.21 111.24Z" id="bTn6Fyea"></path><path d="M321.21 108.24L311.97 111.38L311.54 106.9L311.12 102.42L320.79 103.76L330.46 105.1L321.21 108.24Z" id="b25yAtzph"></path><path d="M176.21 243.24L166.97 246.38L166.54 241.9L166.12 237.42L175.79 238.76L185.46 240.1L176.21 243.24Z" id="dbQTgz75N"></path><path d="M176.21 235.24L166.97 238.38L166.54 233.9L166.12 229.42L175.79 230.76L185.46 232.1L176.21 235.24Z" id="aNSgUYZ6h"></path><path d="M153.21 240.24L143.97 243.38L143.54 238.9L143.12 234.42L152.79 235.76L162.46 237.1L153.21 240.24Z" id="edQ35GLVC"></path><path d="M159.21 234.24L149.97 237.38L149.54 232.9L149.12 228.42L158.79 229.76L168.46 231.1L159.21 234.24Z" id="b1apu6qW2k"></path><path d="M184.21 242.24L174.97 245.38L174.54 240.9L174.12 236.42L183.79 237.76L193.46 239.1L184.21 242.24Z" id="d4ksECYd8Y"></path><path d="M166.21 246.24L156.97 249.38L156.54 244.9L156.12 240.42L165.79 241.76L175.46 243.1L166.21 246.24Z" id="d1LjkReFt5"></path><path d="M339.21 109.56L329.97 106.42L329.54 110.9L329.12 115.38L338.79 114.04L348.46 112.7L339.21 109.56Z" id="f2ZFhtWqBI"></path><path d="M340.21 107.24L330.97 110.38L330.54 105.9L330.12 101.42L339.79 102.76L349.46 104.1L340.21 107.24Z" id="bA6wktYnn"></path><path d="M347.21 98.56L337.97 95.42L337.54 99.9L337.12 104.38L346.79 103.04L356.46 101.7L347.21 98.56Z" id="bcJBgQw7T"></path><path d="M473.21 127.24L463.97 130.38L463.54 125.9L463.12 121.42L472.79 122.76L482.46 124.1L473.21 127.24Z" id="bPmDHdLhN"></path><path d="M484.58 128.6L479.41 136.88L476.24 133.68L473.08 130.48L481.42 125.4L489.76 120.32L484.58 128.6Z" id="bevl08BZw"></path><path d="M475.21 137.24L465.97 140.38L465.54 135.9L465.12 131.42L474.79 132.76L484.46 134.1L475.21 137.24Z" id="a2aoLRLzuj"></path><path d="M490.5 121.81L500.26 121.73L499.26 126.12L498.26 130.51L489.5 126.19L480.74 121.88L490.5 121.81Z" id="a1KyLLhx7O"></path><path d="M492.21 135.24L482.97 138.38L482.54 133.9L482.12 129.42L491.79 130.76L501.46 132.1L492.21 135.24Z" id="a23w89vvVD"></path><path d="M539.21 160.24L529.97 163.38L529.54 158.9L529.12 154.42L538.79 155.76L548.46 157.1L539.21 160.24Z" id="a6xpgj3aq"></path><path d="M548.21 157.24L538.97 160.38L538.54 155.9L538.12 151.42L547.79 152.76L557.46 154.1L548.21 157.24Z" id="d1Y7g1Gfhm"></path><path d="M552.21 162.24L542.97 165.38L542.54 160.9L542.12 156.42L551.79 157.76L561.46 159.1L552.21 162.24Z" id="d25RGLNP2"></path><path d="M186.57 123.82L196.33 124.06L195.19 128.41L194.05 132.77L185.43 128.18L176.81 123.59L186.57 123.82Z" id="cmgz1yjW7"></path><path d="M195.57 119.53L205.33 119.29L204.19 114.94L203.05 110.59L194.43 115.18L185.81 119.77L195.57 119.53Z" id="a21ElRKTDo"></path><path d="M202.57 124.82L212.33 125.06L211.19 129.41L210.05 133.77L201.43 129.18L192.81 124.59L202.57 124.82Z" id="a23ZWmYbX"></path><path d="M200.57 119.82L210.33 120.06L209.19 124.41L208.05 128.77L199.43 124.18L190.81 119.59L200.57 119.82Z" id="a1ZntLIvwh"></path><path d="M179.57 125.53L189.33 125.29L188.19 120.94L187.05 116.59L178.43 121.18L169.81 125.77L179.57 125.53Z" id="aEJM4jF1N"></path><path d="M127.21 196.24L117.97 199.38L117.54 194.9L117.12 190.42L126.79 191.76L136.46 193.1L127.21 196.24Z" id="c2d7pJkv3w"></path><path d="M108.21 194.56L98.97 191.42L98.54 195.9L98.12 200.38L107.79 199.04L117.46 197.7L108.21 194.56Z" id="aaetwgQKA"></path><path d="M167.21 236.24L157.97 239.38L157.54 234.9L157.12 230.42L166.79 231.76L176.46 233.1L167.21 236.24Z" id="ddtBJ02R2"></path><path d="M113.21 203.56L103.97 200.42L103.54 204.9L103.12 209.38L112.79 208.04L122.46 206.7L113.21 203.56Z" id="k3asBeyKip"></path><path d="M125.21 203.24L115.97 206.38L115.54 201.9L115.12 197.42L124.79 198.76L134.46 200.1L125.21 203.24Z" id="l1JhaxgbgX"></path><path d="M117.21 195.24L107.97 198.38L107.54 193.9L107.12 189.42L116.79 190.76L126.46 192.1L117.21 195.24Z" id="caShQuHoZ"></path><path d="M118.21 209.24L108.97 212.38L108.54 207.9L108.12 203.42L117.79 204.76L127.46 206.1L118.21 209.24Z" id="b5zacPylem"></path><path d="M344.75 186.79C344.75 203.51 323.7 217.09 297.78 217.09C271.86 217.09 250.81 203.51 250.81 186.79C250.81 170.06 271.86 156.48 297.78 156.48C323.7 156.48 344.75 170.06 344.75 186.79Z" id="aK3yABOru"></path><path d="M432.93 197.7C432.93 211.08 411.89 221.94 385.96 221.94C360.04 221.94 338.99 211.08 338.99 197.7C338.99 184.32 360.04 173.45 385.96 173.45C411.89 173.45 432.93 184.32 432.93 197.7Z" id="e4M29Q2tVF"></path><path d="M401.42 152.54C401.42 144.18 380.37 137.39 354.45 137.39C328.52 137.39 307.48 144.18 307.48 152.54C307.48 160.91 328.52 167.7 354.45 167.7C380.37 167.7 401.42 160.91 401.42 152.54Z" id="c2CsNDIytr"></path><path d="M275.69 171.08C277.81 181.7 258.9 194.44 233.48 199.52C208.06 204.61 185.7 200.12 183.58 189.51C181.45 178.89 200.37 166.15 225.79 161.07C251.21 155.98 273.57 160.47 275.69 171.08Z" id="dde4I0C6f"></path><path d="M475.52 196.19C480.6 187.73 466.67 170.03 444.44 156.69C422.21 143.35 400.05 139.39 394.97 147.86C389.89 156.32 403.82 174.02 426.05 187.35C448.27 200.69 470.44 204.65 475.52 196.19Z" id="c311pqlwEl"></path><path d="M289.07 205.57C289.42 208.2 289.11 210.4 288.4 210.5C287.68 210.59 286.81 208.54 286.46 205.92C286.12 203.29 286.42 201.08 286.61 196.98C287.86 200.89 288.72 202.94 289.07 205.57Z" id="b1zbQvyJvw"></path><path d="M381.02 212.99C381.02 215.64 380.43 217.79 379.7 217.79C378.97 217.79 378.39 215.64 378.39 212.99C378.39 210.34 378.97 208.19 379.7 204.15C380.43 208.19 381.02 210.34 381.02 212.99Z" id="bURUMuqt"></path><path d="M423.76 177.79C422.19 179.39 421.34 181.1 421.85 181.61C422.37 182.12 424.07 181.24 425.64 179.64C427.21 178.04 428.07 176.33 429.95 173.38C427.03 175.31 425.34 176.19 423.76 177.79Z" id="aayUZVpsI"></path><path d="M357.78 249.56C357.78 252.21 355.41 254.36 352.48 254.36C349.55 254.36 347.17 252.21 347.17 249.56C347.17 246.91 349.55 244.77 352.48 240.73C355.41 244.77 357.78 246.91 357.78 249.56Z" id="bHIo0XKed"></path><path d="M366.46 216.38C366.2 219.01 366.58 221.21 367.3 221.28C368.03 221.35 368.82 219.27 369.08 216.63C369.33 213.99 368.95 211.8 368.62 207.71C367.51 211.66 366.71 213.74 366.46 216.38Z" id="bSmUkrGWF"></path><path d="M303.25 207.75C303.08 210.39 302.35 212.5 301.63 212.45C300.91 212.4 300.46 210.22 300.63 207.58C300.8 204.93 301.53 202.83 302.52 198.84C302.98 202.92 303.43 205.11 303.25 207.75Z" id="a8OnjF15x"></path><path d="M397.51 216.06C397.01 218.67 396.04 220.67 395.32 220.54C394.61 220.4 394.43 218.18 394.92 215.58C395.41 212.97 396.39 210.97 397.85 207.14C397.82 211.24 398 213.46 397.51 216.06Z" id="aumjfO99F"></path><path d="M214.57 196.96C215.28 199.52 215.29 201.74 214.59 201.94C213.89 202.13 212.75 200.22 212.03 197.67C211.32 195.12 211.31 192.89 210.92 188.81C212.71 192.5 213.85 194.41 214.57 196.96Z" id="b12DtihnH8"></path><path d="M424.02 252.99C424.02 255.64 422.76 257.79 421.2 257.79C419.65 257.79 418.39 255.64 418.39 252.99C418.39 250.34 419.65 248.19 421.2 244.15C422.76 248.19 424.02 250.34 424.02 252.99Z" id="b5sW2inRs"></path><path d="M232.12 193.77C233.54 196.01 234.19 198.15 233.58 198.53C232.96 198.92 231.32 197.42 229.9 195.18C228.49 192.94 227.84 190.81 226.29 187.01C229.06 190.03 230.71 191.53 232.12 193.77Z" id="bb4f8Mk8"></path><path d="M353.02 159.99C353.02 162.64 352.43 164.79 351.7 164.79C350.97 164.79 350.39 162.64 350.39 159.99C350.39 157.34 350.97 155.19 351.7 151.15C352.43 155.19 353.02 157.34 353.02 159.99Z" id="a216Gq50h7"></path><path d="M366.02 160.99C366.02 163.64 365.43 165.79 364.7 165.79C363.97 165.79 363.39 163.64 363.39 160.99C363.39 158.34 363.97 156.19 364.7 152.15C365.43 156.19 366.02 158.34 366.02 160.99Z" id="f1ycipIgL"></path><path d="M340.02 158.99C340.02 161.64 339.43 163.79 338.7 163.79C337.97 163.79 337.39 161.64 337.39 158.99C337.39 156.34 337.97 154.19 338.7 150.15C339.43 154.19 340.02 156.34 340.02 158.99Z" id="c1uhZ5EiSk"></path><path d="M410.99 168.01C409.13 169.63 407.3 170.58 406.91 170.13C406.52 169.68 407.72 168 409.58 166.39C411.44 164.77 413.26 163.83 416.49 161.81C414.04 164.72 412.85 166.4 410.99 168.01Z" id="b66DqboCsB"></path><path d="M248.12 187.77C249.54 190.01 250.19 192.15 249.58 192.53C248.96 192.92 247.32 191.42 245.9 189.18C244.49 186.94 243.84 184.81 242.29 181.01C245.06 184.03 246.71 185.53 248.12 187.77Z" id="bd2FjAPHv"></path></defs><g><g><g><use xlink:href="#c85lV9k0F6" opacity="1" fill="#d0d4d4" fill-opacity="1"></use></g><g><g><filter id="shadow4207108" x="0.85" y="39.22" width="637.8" height="289.36" filterUnits="userSpaceOnUse" primitiveUnits="userSpaceOnUse"><feFlood></feFlood><feComposite in2="SourceAlpha" operator="in"></feComposite><feGaussianBlur stdDeviation="1"></feGaussianBlur><feOffset dx="1" dy="8" result="afterOffset"></feOffset><feFlood flood-color="#000000" flood-opacity="0.75"></feFlood><feComposite in2="afterOffset" operator="in"></feComposite><feMorphology operator="dilate" radius="1"></feMorphology><feComposite in2="SourceAlpha" operator="out"></feComposite></filter><path d="M621.65 179.9C621.65 248.71 486.15 304.58 319.25 304.58C152.35 304.58 16.85 248.71 16.85 179.9C16.85 111.09 152.35 55.22 319.25 55.22C486.15 55.22 621.65 111.09 621.65 179.9Z" id="a8eyBuOgN" fill="white" fill-opacity="1" filter="url(#shadow4207108)"></path></g><g><filter id="shadow2053432" x="4.85" y="43.22" width="628.8" height="277.36" filterUnits="userSpaceOnUse" primitiveUnits="userSpaceOnUse"><feFlood></feFlood><feComposite in2="SourceAlpha" operator="in"></feComposite><feGaussianBlur stdDeviation="1"></feGaussianBlur><feOffset dx="0" dy="-4" result="afterOffset"></feOffset><feFlood flood-color="#000000" flood-opacity="0.75"></feFlood><feComposite in2="afterOffset" operator="in"></feComposite><feMorphology operator="dilate" radius="1"></feMorphology><feComposite in2="SourceAlpha" operator="out"></feComposite></filter><path d="M621.65 179.9C621.65 248.71 486.15 304.58 319.25 304.58C152.35 304.58 16.85 248.71 16.85 179.9C16.85 111.09 152.35 55.22 319.25 55.22C486.15 55.22 621.65 111.09 621.65 179.9Z" id="c1S8aPMStb" fill="white" fill-opacity="1" filter="url(#shadow2053432)"></path></g><use xlink:href="#a44aQQvaR" opacity="1" fill="#f5f4f2" fill-opacity="1"></use><g><use xlink:href="#a44aQQvaR" opacity="1" fill-opacity="0" stroke="#b6b4ad" stroke-width="1" stroke-opacity="1"></use></g></g><g><g><use xlink:href="#a2j4nm5taY" opacity="1" fill-opacity="0" stroke="#840b36" stroke-width="1" stroke-opacity="1"></use></g></g><g><g><filter id="shadow9719683" x="-0.44" y="337.18" width="638.8" height="275.33" filterUnits="userSpaceOnUse" primitiveUnits="userSpaceOnUse"><feFlood></feFlood><feComposite in2="SourceAlpha" operator="in"></feComposite><feGaussianBlur stdDeviation="1"></feGaussianBlur><feOffset dx="0" dy="9" result="afterOffset"></feOffset><feFlood flood-color="#000000" flood-opacity="0.75"></feFlood><feComposite in2="afterOffset" operator="in"></feComposite><feMorphology operator="dilate" radius="1"></feMorphology><feComposite in2="SourceAlpha" operator="out"></feComposite></filter><path d="M621.36 470.34C621.36 534.45 485.86 586.5 318.96 586.5C152.06 586.5 16.56 534.45 16.56 470.34C16.56 406.23 152.06 354.18 318.96 354.18C485.86 354.18 621.36 406.23 621.36 470.34Z" id="i4KucV4GPA" fill="white" fill-opacity="1" filter="url(#shadow9719683)"></path></g><use xlink:href="#b71hXPtbS" opacity="1" fill="#d0d4d4" fill-opacity="1"></use></g><g><g><use xlink:href="#b3jVGThkwo" opacity="1" fill-opacity="0" stroke="#840b36" stroke-width="1" stroke-opacity="1"></use></g></g><g></g><g><g><filter id="shadow8133702" x="0.85" y="67.78" width="636.8" height="299" filterUnits="userSpaceOnUse" primitiveUnits="userSpaceOnUse"><feFlood></feFlood><feComposite in2="SourceAlpha" operator="in"></feComposite><feGaussianBlur stdDeviation="1"></feGaussianBlur><feOffset dx="0" dy="8" result="afterOffset"></feOffset><feFlood flood-color="#000000" flood-opacity="0.75"></feFlood><feComposite in2="afterOffset" operator="in"></feComposite><feMorphology operator="dilate" radius="1"></feMorphology><feComposite in2="SourceAlpha" operator="out"></feComposite></filter><path d="M621.65 213.28C621.65 284.75 486.15 342.78 319.25 342.78C152.35 342.78 16.85 284.75 16.85 213.28C16.85 141.8 152.35 83.78 319.25 83.78C486.15 83.78 621.65 141.8 621.65 213.28Z" id="e1M20ycKF5" fill="white" fill-opacity="1" filter="url(#shadow8133702)"></path></g><use xlink:href="#egUwbNrq3" opacity="1" fill="#d0d4d4" fill-opacity="0.12"></use></g><g><g><filter id="shadow6073735" x="455.96" y="125.91" width="143.23" height="76.74" filterUnits="userSpaceOnUse" primitiveUnits="userSpaceOnUse"><feFlood></feFlood><feComposite in2="SourceAlpha" operator="in"></feComposite><feGaussianBlur stdDeviation="1"></feGaussianBlur><feOffset dx="1" dy="1" result="afterOffset"></feOffset><feFlood flood-color="#000000" flood-opacity="0.5"></feFlood><feComposite in2="afterOffset" operator="in"></feComposite><feMorphology operator="dilate" radius="1"></feMorphology><feComposite in2="SourceAlpha" operator="out"></feComposite></filter><path d="M589.2 163.78C589.2 179.71 561.36 192.64 527.08 192.64C492.8 192.64 464.96 179.71 464.96 163.78C464.96 147.84 492.8 134.91 527.08 134.91C561.36 134.91 589.2 147.84 589.2 163.78Z" id="cFCz7O99n" fill="white" fill-opacity="1" filter="url(#shadow6073735)"></path></g><use xlink:href="#gmijGfqvg" opacity="1" fill="#dde9bd" fill-opacity="1"></use></g><g><g><filter id="shadow9735020" x="263.42" y="67.76" width="143.12" height="76.98" filterUnits="userSpaceOnUse" primitiveUnits="userSpaceOnUse"><feFlood></feFlood><feComposite in2="SourceAlpha" operator="in"></feComposite><feGaussianBlur stdDeviation="1"></feGaussianBlur><feOffset dx="1" dy="1" result="afterOffset"></feOffset><feFlood flood-color="#000000" flood-opacity="0.5"></feFlood><feComposite in2="afterOffset" operator="in"></feComposite><feMorphology operator="dilate" radius="1"></feMorphology><feComposite in2="SourceAlpha" operator="out"></feComposite></filter><path d="M396.53 108.7C395.77 124.62 367.35 136.21 333.11 134.58C298.87 132.95 271.68 118.71 272.44 102.79C273.19 86.88 301.61 75.28 335.86 76.91C370.1 78.54 397.29 92.79 396.53 108.7Z" id="bOH55jjAn" fill="white" fill-opacity="1" filter="url(#shadow9735020)"></path></g><use xlink:href="#h5PlSmdLTb" opacity="1" fill="#dde9bd" fill-opacity="1"></use></g><g><g><filter id="shadow14581910" x="335.73" y="224.07" width="143.23" height="76.74" filterUnits="userSpaceOnUse" primitiveUnits="userSpaceOnUse"><feFlood></feFlood><feComposite in2="SourceAlpha" operator="in"></feComposite><feGaussianBlur stdDeviation="1"></feGaussianBlur><feOffset dx="1" dy="1" result="afterOffset"></feOffset><feFlood flood-color="#000000" flood-opacity="0.5"></feFlood><feComposite in2="afterOffset" operator="in"></feComposite><feMorphology operator="dilate" radius="1"></feMorphology><feComposite in2="SourceAlpha" operator="out"></feComposite></filter><path d="M468.97 261.94C468.97 277.87 441.13 290.8 406.85 290.8C372.57 290.8 344.73 277.87 344.73 261.94C344.73 246 372.57 233.07 406.85 233.07C441.13 233.07 468.97 246 468.97 261.94Z" id="b1jvpD9YHN" fill="white" fill-opacity="1" filter="url(#shadow14581910)"></path></g><use xlink:href="#b5ovceCc4H" opacity="1" fill="#dde9bd" fill-opacity="1"></use></g><g><g><filter id="shadow10706864" x="124.7" y="90.04" width="143.23" height="76.74" filterUnits="userSpaceOnUse" primitiveUnits="userSpaceOnUse"><feFlood></feFlood><feComposite in2="SourceAlpha" operator="in"></feComposite><feGaussianBlur stdDeviation="1"></feGaussianBlur><feOffset dx="1" dy="1" result="afterOffset"></feOffset><feFlood flood-color="#000000" flood-opacity="0.5"></feFlood><feComposite in2="afterOffset" operator="in"></feComposite><feMorphology operator="dilate" radius="1"></feMorphology><feComposite in2="SourceAlpha" operator="out"></feComposite></filter><path d="M257.93 127.91C257.93 143.85 230.1 156.78 195.81 156.78C161.53 156.78 133.7 143.85 133.7 127.91C133.7 111.98 161.53 99.04 195.81 99.04C230.1 99.04 257.93 111.98 257.93 127.91Z" id="b77O1c1DW" fill="white" fill-opacity="1" filter="url(#shadow10706864)"></path></g><use xlink:href="#d1GdZJMeD" opacity="1" fill="#dde9bd" fill-opacity="1"></use></g><g><g><filter id="shadow745575" x="260.79" y="207.75" width="143.23" height="76.74" filterUnits="userSpaceOnUse" primitiveUnits="userSpaceOnUse"><feFlood></feFlood><feComposite in2="SourceAlpha" operator="in"></feComposite><feGaussianBlur stdDeviation="1"></feGaussianBlur><feOffset dx="1" dy="1" result="afterOffset"></feOffset><feFlood flood-color="#000000" flood-opacity="0.5"></feFlood><feComposite in2="afterOffset" operator="in"></feComposite><feMorphology operator="dilate" radius="1"></feMorphology><feComposite in2="SourceAlpha" operator="out"></feComposite></filter><path d="M269.79 245.61C269.79 261.55 297.62 274.48 331.91 274.48C366.19 274.48 394.02 261.55 394.02 245.61C394.02 229.68 366.19 216.75 331.91 216.75C297.62 216.75 269.79 229.68 269.79 245.61Z" id="c5CJ5hSGdk" fill="white" fill-opacity="1" filter="url(#shadow745575)"></path></g><use xlink:href="#cbyxibYny" opacity="1" fill="#dde9bd" fill-opacity="1"></use></g><g><g><filter id="shadow582392" x="47.46" y="162.23" width="143.23" height="76.74" filterUnits="userSpaceOnUse" primitiveUnits="userSpaceOnUse"><feFlood></feFlood><feComposite in2="SourceAlpha" operator="in"></feComposite><feGaussianBlur stdDeviation="1"></feGaussianBlur><feOffset dx="1" dy="1" result="afterOffset"></feOffset><feFlood flood-color="#000000" flood-opacity="0.5"></feFlood><feComposite in2="afterOffset" operator="in"></feComposite><feMorphology operator="dilate" radius="1"></feMorphology><feComposite in2="SourceAlpha" operator="out"></feComposite></filter><path d="M56.46 200.1C56.46 216.03 84.29 228.97 118.57 228.97C152.86 228.97 180.69 216.03 180.69 200.1C180.69 184.16 152.86 171.23 118.57 171.23C84.29 171.23 56.46 184.16 56.46 200.1Z" id="a5w0AcRHGd" fill="white" fill-opacity="1" filter="url(#shadow582392)"></path></g><use xlink:href="#dgeNb0J02" opacity="1" fill="#dde9bd" fill-opacity="1"></use></g><g><g><filter id="shadow2029538" x="411.59" y="94.18" width="143.23" height="76.74" filterUnits="userSpaceOnUse" primitiveUnits="userSpaceOnUse"><feFlood></feFlood><feComposite in2="SourceAlpha" operator="in"></feComposite><feGaussianBlur stdDeviation="1"></feGaussianBlur><feOffset dx="1" dy="1" result="afterOffset"></feOffset><feFlood flood-color="#000000" flood-opacity="0.5"></feFlood><feComposite in2="afterOffset" operator="in"></feComposite><feMorphology operator="dilate" radius="1"></feMorphology><feComposite in2="SourceAlpha" operator="out"></feComposite></filter><path d="M544.83 132.05C544.83 147.98 516.99 160.92 482.71 160.92C448.43 160.92 420.59 147.98 420.59 132.05C420.59 116.12 448.43 103.18 482.71 103.18C516.99 103.18 544.83 116.12 544.83 132.05Z" id="d2wvMPc0UM" fill="white" fill-opacity="1" filter="url(#shadow2029538)"></path></g><use xlink:href="#aUDYUfvX" opacity="1" fill="#dde9bd" fill-opacity="1"></use></g><g><g><filter id="shadow2466835" x="464.93" y="159.01" width="143.23" height="76.74" filterUnits="userSpaceOnUse" primitiveUnits="userSpaceOnUse"><feFlood></feFlood><feComposite in2="SourceAlpha" operator="in"></feComposite><feGaussianBlur stdDeviation="1"></feGaussianBlur><feOffset dx="1" dy="1" result="afterOffset"></feOffset><feFlood flood-color="#000000" flood-opacity="0.5"></feFlood><feComposite in2="afterOffset" operator="in"></feComposite><feMorphology operator="dilate" radius="1"></feMorphology><feComposite in2="SourceAlpha" operator="out"></feComposite></filter><path d="M598.16 196.88C598.16 212.81 570.33 225.75 536.04 225.75C501.76 225.75 473.93 212.81 473.93 196.88C473.93 180.95 501.76 168.01 536.04 168.01C570.33 168.01 598.16 180.95 598.16 196.88Z" id="a1qd42OdeB" fill="white" fill-opacity="1" filter="url(#shadow2466835)"></path></g><use xlink:href="#j1UjCXUmKI" opacity="1" fill="#dde9bd" fill-opacity="1"></use></g><g><g><filter id="shadow12524317" x="421.71" y="197.4" width="143.23" height="76.74" filterUnits="userSpaceOnUse" primitiveUnits="userSpaceOnUse"><feFlood></feFlood><feComposite in2="SourceAlpha" operator="in"></feComposite><feGaussianBlur stdDeviation="1"></feGaussianBlur><feOffset dx="1" dy="1" result="afterOffset"></feOffset><feFlood flood-color="#000000" flood-opacity="0.5"></feFlood><feComposite in2="afterOffset" operator="in"></feComposite><feMorphology operator="dilate" radius="1"></feMorphology><feComposite in2="SourceAlpha" operator="out"></feComposite></filter><path d="M554.94 235.27C554.94 251.2 527.11 264.14 492.83 264.14C458.54 264.14 430.71 251.2 430.71 235.27C430.71 219.34 458.54 206.4 492.83 206.4C527.11 206.4 554.94 219.34 554.94 235.27Z" id="c20SdPeJ8" fill="white" fill-opacity="1" filter="url(#shadow12524317)"></path></g><use xlink:href="#c2MKyeC2bd" opacity="1" fill="#dde9bd" fill-opacity="1"></use></g><g><g><filter id="shadow8926799" x="191.13" y="227.75" width="143.23" height="76.74" filterUnits="userSpaceOnUse" primitiveUnits="userSpaceOnUse"><feFlood></feFlood><feComposite in2="SourceAlpha" operator="in"></feComposite><feGaussianBlur stdDeviation="1"></feGaussianBlur><feOffset dx="1" dy="1" result="afterOffset"></feOffset><feFlood flood-color="#000000" flood-opacity="0.5"></feFlood><feComposite in2="afterOffset" operator="in"></feComposite><feMorphology operator="dilate" radius="1"></feMorphology><feComposite in2="SourceAlpha" operator="out"></feComposite></filter><path d="M324.37 265.61C324.37 281.55 296.53 294.48 262.25 294.48C227.97 294.48 200.13 281.55 200.13 265.61C200.13 249.68 227.97 236.75 262.25 236.75C296.53 236.75 324.37 249.68 324.37 265.61Z" id="a1oRmcEy60" fill="white" fill-opacity="1" filter="url(#shadow8926799)"></path></g><use xlink:href="#a23IjyeahU" opacity="1" fill="#dde9bd" fill-opacity="1"></use></g><g><g><filter id="shadow197683" x="100.79" y="198.32" width="143.23" height="76.74" filterUnits="userSpaceOnUse" primitiveUnits="userSpaceOnUse"><feFlood></feFlood><feComposite in2="SourceAlpha" operator="in"></feComposite><feGaussianBlur stdDeviation="1"></feGaussianBlur><feOffset dx="1" dy="1" result="afterOffset"></feOffset><feFlood flood-color="#000000" flood-opacity="0.5"></feFlood><feComposite in2="afterOffset" operator="in"></feComposite><feMorphology operator="dilate" radius="1"></feMorphology><feComposite in2="SourceAlpha" operator="out"></feComposite></filter><path d="M234.02 236.19C234.02 252.12 206.19 265.06 171.91 265.06C137.62 265.06 109.79 252.12 109.79 236.19C109.79 220.26 137.62 207.32 171.91 207.32C206.19 207.32 234.02 220.26 234.02 236.19Z" id="b1Pf90m3s" fill="white" fill-opacity="1" filter="url(#shadow197683)"></path></g><use xlink:href="#d2YzmggSn" opacity="1" fill="#dde9bd" fill-opacity="1"></use></g><g><use xlink:href="#f2ZJaZ5NfQ" opacity="1" fill="#c1d469" fill-opacity="1"></use></g><g><use xlink:href="#ayz67UeGM" opacity="1" fill="#c1d469" fill-opacity="1"></use></g><g><use xlink:href="#a31xJQYGqn" opacity="1" fill="#c1d469" fill-opacity="1"></use></g><g><use xlink:href="#b5BtOgMbo7" opacity="1" fill="#c1d469" fill-opacity="1"></use></g><g><use xlink:href="#cGPui0Mmm" opacity="1" fill="#c1d469" fill-opacity="1"></use></g><g><use xlink:href="#a2uoAs4GCG" opacity="1" fill="#c1d469" fill-opacity="1"></use></g><g><use xlink:href="#c1t27rzc0H" opacity="1" fill="#c1d469" fill-opacity="1"></use></g><g><use xlink:href="#csQu36Xab" opacity="1" fill="#c1d469" fill-opacity="1"></use></g><g><use xlink:href="#a156LEmqfD" opacity="1" fill="#c1d469" fill-opacity="1"></use></g><g><use xlink:href="#cbHyPBmHN" opacity="1" fill="#c1d469" fill-opacity="1"></use></g><g><use xlink:href="#e1J1pv0K0u" opacity="1" fill="#c1d469" fill-opacity="1"></use></g><g><use xlink:href="#b1x6l4Out" opacity="1" fill="#c1d469" fill-opacity="1"></use></g><g><use xlink:href="#a3HZCBqeM" opacity="1" fill="#c1d469" fill-opacity="1"></use></g><g><use xlink:href="#a20CPQ1s7z" opacity="1" fill="#c1d469" fill-opacity="1"></use></g><g><use xlink:href="#a88AOgofj" opacity="1" fill="#c1d469" fill-opacity="1"></use></g><g><use xlink:href="#dNeuBAkf2" opacity="1" fill="#c1d469" fill-opacity="1"></use></g><g><use xlink:href="#d161OGOWl" opacity="1" fill="#c1d469" fill-opacity="1"></use></g><g><use xlink:href="#c6dYZdmO" opacity="1" fill="#c1d469" fill-opacity="1"></use></g><g><use xlink:href="#e5ZeniOV7x" opacity="1" fill="#c1d469" fill-opacity="1"></use></g><g><use xlink:href="#a1ClSfTZo1" opacity="1" fill="#c1d469" fill-opacity="1"></use></g><g><use xlink:href="#a4zst6R5yn" opacity="1" fill="#c1d469" fill-opacity="1"></use></g><g><use xlink:href="#b2O52HsrfQ" opacity="1" fill="#c1d469" fill-opacity="1"></use></g><g><use xlink:href="#b5k4H37LFE" opacity="1" fill="#c1d469" fill-opacity="1"></use></g><g><use xlink:href="#a1aHJiJdOj" opacity="1" fill="#c1d469" fill-opacity="1"></use></g><g><use xlink:href="#h14LLHhJUf" opacity="1" fill="#c1d469" fill-opacity="1"></use></g><g><use xlink:href="#e6kXvbxK7g" opacity="1" fill="#c1d469" fill-opacity="1"></use></g><g><use xlink:href="#e3xrzfNFT" opacity="1" fill="#c1d469" fill-opacity="1"></use></g><g><use xlink:href="#cQrjMdA6" opacity="1" fill="#c1d469" fill-opacity="1"></use></g><g><use xlink:href="#d2cm6XunLI" opacity="1" fill="#c1d469" fill-opacity="1"></use></g><g><use xlink:href="#aq1ISdzZF" opacity="1" fill="#c1d469" fill-opacity="1"></use></g><g><use xlink:href="#f2sgVhdXhy" opacity="1" fill="#c1d469" fill-opacity="1"></use></g><g><use xlink:href="#bTn6Fyea" opacity="1" fill="#c1d469" fill-opacity="1"></use></g><g><use xlink:href="#b25yAtzph" opacity="1" fill="#c1d469" fill-opacity="1"></use></g><g><use xlink:href="#dbQTgz75N" opacity="1" fill="#c1d469" fill-opacity="1"></use></g><g><use xlink:href="#aNSgUYZ6h" opacity="1" fill="#c1d469" fill-opacity="1"></use></g><g><use xlink:href="#edQ35GLVC" opacity="1" fill="#c1d469" fill-opacity="1"></use></g><g><use xlink:href="#b1apu6qW2k" opacity="1" fill="#c1d469" fill-opacity="1"></use></g><g><use xlink:href="#d4ksECYd8Y" opacity="1" fill="#c1d469" fill-opacity="1"></use></g><g><use xlink:href="#d1LjkReFt5" opacity="1" fill="#c1d469" fill-opacity="1"></use></g><g><use xlink:href="#f2ZFhtWqBI" opacity="1" fill="#c1d469" fill-opacity="1"></use></g><g><use xlink:href="#bA6wktYnn" opacity="1" fill="#c1d469" fill-opacity="1"></use></g><g><use xlink:href="#bcJBgQw7T" opacity="1" fill="#c1d469" fill-opacity="1"></use></g><g><use xlink:href="#bPmDHdLhN" opacity="1" fill="#c1d469" fill-opacity="1"></use></g><g><use xlink:href="#bevl08BZw" opacity="1" fill="#c1d469" fill-opacity="1"></use></g><g><use xlink:href="#a2aoLRLzuj" opacity="1" fill="#c1d469" fill-opacity="1"></use></g><g><use xlink:href="#a1KyLLhx7O" opacity="1" fill="#c1d469" fill-opacity="1"></use></g><g><use xlink:href="#a23w89vvVD" opacity="1" fill="#c1d469" fill-opacity="1"></use></g><g><use xlink:href="#a6xpgj3aq" opacity="1" fill="#c1d469" fill-opacity="1"></use></g><g><use xlink:href="#d1Y7g1Gfhm" opacity="1" fill="#c1d469" fill-opacity="1"></use></g><g><use xlink:href="#d25RGLNP2" opacity="1" fill="#c1d469" fill-opacity="1"></use></g><g><use xlink:href="#cmgz1yjW7" opacity="1" fill="#c1d469" fill-opacity="1"></use></g><g><use xlink:href="#a21ElRKTDo" opacity="1" fill="#c1d469" fill-opacity="1"></use></g><g><use xlink:href="#a23ZWmYbX" opacity="1" fill="#c1d469" fill-opacity="1"></use></g><g><use xlink:href="#a1ZntLIvwh" opacity="1" fill="#c1d469" fill-opacity="1"></use></g><g><use xlink:href="#aEJM4jF1N" opacity="1" fill="#c1d469" fill-opacity="1"></use></g><g><use xlink:href="#c2d7pJkv3w" opacity="1" fill="#c1d469" fill-opacity="1"></use></g><g><use xlink:href="#aaetwgQKA" opacity="1" fill="#c1d469" fill-opacity="1"></use></g><g><use xlink:href="#ddtBJ02R2" opacity="1" fill="#c1d469" fill-opacity="1"></use></g><g><use xlink:href="#k3asBeyKip" opacity="1" fill="#c1d469" fill-opacity="1"></use></g><g><use xlink:href="#l1JhaxgbgX" opacity="1" fill="#c1d469" fill-opacity="1"></use></g><g><use xlink:href="#caShQuHoZ" opacity="1" fill="#c1d469" fill-opacity="1"></use></g><g><use xlink:href="#b5zacPylem" opacity="1" fill="#c1d469" fill-opacity="1"></use></g><g><g><filter id="shadow5534403" x="241.81" y="147.48" width="112.94" height="79.61" filterUnits="userSpaceOnUse" primitiveUnits="userSpaceOnUse"><feFlood></feFlood><feComposite in2="SourceAlpha" operator="in"></feComposite><feGaussianBlur stdDeviation="1"></feGaussianBlur><feOffset dx="1" dy="1" result="afterOffset"></feOffset><feFlood flood-color="#000000" flood-opacity="0.5"></feFlood><feComposite in2="afterOffset" operator="in"></feComposite><feMorphology operator="dilate" radius="1"></feMorphology><feComposite in2="SourceAlpha" operator="out"></feComposite></filter><path d="M344.75 186.79C344.75 203.51 323.7 217.09 297.78 217.09C271.86 217.09 250.81 203.51 250.81 186.79C250.81 170.06 271.86 156.48 297.78 156.48C323.7 156.48 344.75 170.06 344.75 186.79Z" id="b2aNkBofJm" fill="white" fill-opacity="1" filter="url(#shadow5534403)"></path></g><use xlink:href="#aK3yABOru" opacity="1" fill="#c61516" fill-opacity="1"></use></g><g><g><filter id="shadow9584141" x="329.99" y="164.45" width="112.94" height="67.48" filterUnits="userSpaceOnUse" primitiveUnits="userSpaceOnUse"><feFlood></feFlood><feComposite in2="SourceAlpha" operator="in"></feComposite><feGaussianBlur stdDeviation="1"></feGaussianBlur><feOffset dx="1" dy="1" result="afterOffset"></feOffset><feFlood flood-color="#000000" flood-opacity="0.5"></feFlood><feComposite in2="afterOffset" operator="in"></feComposite><feMorphology operator="dilate" radius="1"></feMorphology><feComposite in2="SourceAlpha" operator="out"></feComposite></filter><path d="M432.93 197.7C432.93 211.08 411.89 221.94 385.96 221.94C360.04 221.94 338.99 211.08 338.99 197.7C338.99 184.32 360.04 173.45 385.96 173.45C411.89 173.45 432.93 184.32 432.93 197.7Z" id="c1iKzEUutT" fill="white" fill-opacity="1" filter="url(#shadow9584141)"></path></g><use xlink:href="#e4M29Q2tVF" opacity="1" fill="#c61516" fill-opacity="1"></use></g><g><g><filter id="shadow12340942" x="298.48" y="128.39" width="112.94" height="49.3" filterUnits="userSpaceOnUse" primitiveUnits="userSpaceOnUse"><feFlood></feFlood><feComposite in2="SourceAlpha" operator="in"></feComposite><feGaussianBlur stdDeviation="1"></feGaussianBlur><feOffset dx="1" dy="1" result="afterOffset"></feOffset><feFlood flood-color="#000000" flood-opacity="0.5"></feFlood><feComposite in2="afterOffset" operator="in"></feComposite><feMorphology operator="dilate" radius="1"></feMorphology><feComposite in2="SourceAlpha" operator="out"></feComposite></filter><path d="M401.42 152.54C401.42 144.18 380.37 137.39 354.45 137.39C328.52 137.39 307.48 144.18 307.48 152.54C307.48 160.91 328.52 167.7 354.45 167.7C380.37 167.7 401.42 160.91 401.42 152.54Z" id="f6zr5wyuh" fill="white" fill-opacity="1" filter="url(#shadow12340942)"></path></g><use xlink:href="#c2CsNDIytr" opacity="1" fill="#c61516" fill-opacity="1"></use></g><g><g><filter id="shadow7858897" x="174.41" y="149.97" width="111.44" height="61.65" filterUnits="userSpaceOnUse" primitiveUnits="userSpaceOnUse"><feFlood></feFlood><feComposite in2="SourceAlpha" operator="in"></feComposite><feGaussianBlur stdDeviation="1"></feGaussianBlur><feOffset dx="1" dy="1" result="afterOffset"></feOffset><feFlood flood-color="#000000" flood-opacity="0.5"></feFlood><feComposite in2="afterOffset" operator="in"></feComposite><feMorphology operator="dilate" radius="1"></feMorphology><feComposite in2="SourceAlpha" operator="out"></feComposite></filter><path d="M275.69 171.08C277.81 181.7 258.9 194.44 233.48 199.52C208.06 204.61 185.7 200.12 183.58 189.51C181.45 178.89 200.37 166.15 225.79 161.07C251.21 155.98 273.57 160.47 275.69 171.08Z" id="a1QSCCjh1m" fill="white" fill-opacity="1" filter="url(#shadow7858897)"></path></g><use xlink:href="#dde4I0C6f" opacity="1" fill="#c61516" fill-opacity="1"></use></g><g><use xlink:href="#c311pqlwEl" opacity="1" fill="#c61516" fill-opacity="1"></use></g><g><use xlink:href="#b1zbQvyJvw" opacity="1" fill="#c1d469" fill-opacity="1"></use></g><g><use xlink:href="#bURUMuqt" opacity="1" fill="#c1d469" fill-opacity="1"></use></g><g><use xlink:href="#aayUZVpsI" opacity="1" fill="#c1d469" fill-opacity="1"></use></g><g><use xlink:href="#bHIo0XKed" opacity="1" fill="#c1d469" fill-opacity="1"></use></g><g><use xlink:href="#bSmUkrGWF" opacity="1" fill="#c1d469" fill-opacity="1"></use></g><g><use xlink:href="#a8OnjF15x" opacity="1" fill="#c1d469" fill-opacity="1"></use></g><g><use xlink:href="#aumjfO99F" opacity="1" fill="#c1d469" fill-opacity="1"></use></g><g><use xlink:href="#b12DtihnH8" opacity="1" fill="#c1d469" fill-opacity="1"></use></g><g><use xlink:href="#b5sW2inRs" opacity="1" fill="#c1d469" fill-opacity="1"></use></g><g><use xlink:href="#bb4f8Mk8" opacity="1" fill="#c1d469" fill-opacity="1"></use></g><g><use xlink:href="#a216Gq50h7" opacity="1" fill="#c1d469" fill-opacity="1"></use></g><g><use xlink:href="#f1ycipIgL" opacity="1" fill="#c1d469" fill-opacity="1"></use></g><g><use xlink:href="#c1uhZ5EiSk" opacity="1" fill="#c1d469" fill-opacity="1"></use></g><g><use xlink:href="#b66DqboCsB" opacity="1" fill="#c1d469" fill-opacity="1"></use></g><g><use xlink:href="#bd2FjAPHv" opacity="1" fill="#c1d469" fill-opacity="1"></use></g></g></g></svg>