<?xml version="1.0" encoding="UTF-8" standalone="no"?>
<!DOCTYPE svg PUBLIC "-//W3C//DTD SVG 1.1//EN" "http://www.w3.org/Graphics/SVG/1.1/DTD/svg11.dtd">
<svg version="1.1" xmlns="http://www.w3.org/2000/svg" xmlns:xlink="http://www.w3.org/1999/xlink" preserveAspectRatio="xMidYMid meet" viewBox="0 0 640 640" width="640" height="640"><defs><path d="M447.14 454.95C454.25 454.98 459.99 460.78 459.94 467.89C459.79 493.05 459.4 555.66 459.24 580.83C459.2 587.94 453.4 593.68 446.28 593.65C392.27 593.4 243.09 592.74 189.08 592.5C181.97 592.47 176.23 586.67 176.28 579.56C176.43 554.4 176.82 491.79 176.98 466.62C177.02 459.51 182.82 453.77 189.94 453.8C243.95 454.04 393.13 454.71 447.14 454.95Z" id="icjv8o2Tm"></path><path d="" id="b1sdPH6DG6"></path><path d="M459.07 586.55C458.91 612.79 395.38 633.81 317.29 633.46C239.21 633.11 175.94 611.53 176.11 585.29C176.27 559.05 239.8 538.03 317.88 538.38C395.97 538.73 459.23 560.32 459.07 586.55Z" id="fAG2gFLg3"></path><path d="" id="cnrEkUqY"></path><path d="M457.96 550.28C457.73 587.31 394.15 617.09 316.06 616.74C237.98 616.4 174.77 586.05 175 549.02C175.23 511.99 238.81 482.21 316.9 482.56C394.98 482.91 458.19 513.25 457.96 550.28Z" id="k1dMNmBVYK"></path><path d="M448.01 335.98C455.12 336.01 460.86 341.81 460.81 348.92C460.66 374.08 460.27 436.69 460.11 461.86C460.07 468.97 454.27 474.71 447.15 474.68C393.14 474.44 243.96 473.77 189.95 473.53C182.84 473.5 177.1 467.7 177.15 460.59C177.3 435.43 177.69 372.82 177.85 347.65C177.89 340.54 183.69 334.8 190.81 334.83C244.82 335.07 394 335.74 448.01 335.98Z" id="a35dNh0bC"></path><path d="M448.9 214.77C456.01 214.8 461.74 220.59 461.69 227.7C461.54 252.86 461.15 315.48 460.99 340.64C460.95 347.76 455.15 353.49 448.04 353.46C394.02 353.22 244.85 352.55 190.83 352.31C183.72 352.28 177.99 346.49 178.03 339.38C178.19 314.21 178.58 251.6 178.73 226.44C178.78 219.32 184.57 213.59 191.69 213.62C245.71 213.86 394.88 214.52 448.9 214.77Z" id="b2Ta979CNH"></path><path d="M449.7 107.03C456.81 107.06 462.54 112.86 462.5 119.97C462.34 145.13 461.95 207.74 461.79 232.91C461.75 240.02 455.95 245.76 448.84 245.73C394.82 245.48 245.65 244.82 191.63 244.58C184.52 244.54 178.79 238.75 178.83 231.64C178.99 206.48 179.38 143.87 179.53 118.7C179.58 111.59 185.37 105.85 192.49 105.88C246.51 106.12 395.68 106.79 449.7 107.03Z" id="a1tbGRsu5p"></path><path d="M459.22 484.93C459.08 507.25 395.57 525.09 317.49 524.74C239.4 524.39 176.12 505.99 176.26 483.67C176.4 461.35 239.9 443.51 317.99 443.86C396.07 444.21 459.36 462.61 459.22 484.93Z" id="a1aKlaZp0c"></path><path d="M459.83 363.71C459.69 386.04 396.18 403.87 318.1 403.53C240.01 403.18 176.73 384.77 176.87 362.45C177.01 340.13 240.51 322.29 318.6 322.64C396.68 322.99 459.97 341.39 459.83 363.71Z" id="dnDMkWG9Z"></path><path d="M462.35 236.89C462.21 259.21 398.7 277.05 320.61 276.7C242.53 276.35 179.24 257.95 179.38 235.62C179.52 213.3 243.03 195.47 321.11 195.81C399.2 196.16 462.48 214.57 462.35 236.89Z" id="b1asrNeQ7"></path><path d="M462.96 115.67C462.82 137.99 399.31 155.83 321.22 155.48C243.14 155.13 179.85 136.73 179.99 114.41C180.13 92.09 243.64 74.25 321.72 74.6C399.81 74.95 463.09 93.35 462.96 115.67Z" id="bykS2pv3M"></path><path d="M462.88 129.32C462.75 151.64 399.24 169.48 321.15 169.13C243.07 168.79 179.78 150.38 179.92 128.06C180.06 105.74 243.57 87.9 321.65 88.25C399.74 88.6 463.02 107 462.88 129.32Z" id="a2tzVnH8f3"></path><path d="M462.96 114.42C462.82 136.75 399.32 154.58 321.23 154.24C243.15 153.89 179.86 135.48 180 113.16C180.14 90.84 243.65 73 321.73 73.35C399.82 73.7 463.1 92.1 462.96 114.42Z" id="bcHyGAQNO"></path><path d="M237.32 110.94C237.29 116.79 231.33 121.51 224.04 121.48C216.74 121.45 210.84 116.67 210.88 110.82C210.92 104.97 216.87 100.25 224.17 100.28C231.47 100.32 237.36 105.09 237.32 110.94Z" id="eafHYGVrDV"></path><path d="M435.66 111.83C435.62 117.68 429.67 122.4 422.37 122.37C415.07 122.33 409.18 117.56 409.21 111.71C409.25 105.86 415.2 101.14 422.5 101.17C429.8 101.2 435.69 105.98 435.66 111.83Z" id="c5J1JldwB"></path><path d="M422.44 111.14L423.08 7.64L223.28 6.75L222.65 109.01" id="byAlRziE1"></path></defs><g><g><g><g><filter id="shadow12862416" x="160.28" y="437.8" width="322.66" height="178.84" filterUnits="userSpaceOnUse" primitiveUnits="userSpaceOnUse"><feFlood></feFlood><feComposite in2="SourceAlpha" operator="in"></feComposite><feGaussianBlur stdDeviation="1"></feGaussianBlur><feOffset dx="-7" dy="-7" result="afterOffset"></feOffset><feFlood flood-color="#000000" flood-opacity="1"></feFlood><feComposite in2="afterOffset" operator="in"></feComposite><feMorphology operator="dilate" radius="2"></feMorphology><feComposite in2="SourceAlpha" operator="out"></feComposite></filter><path d="M447.14 454.95C454.25 454.98 459.99 460.78 459.94 467.89C459.79 493.05 459.4 555.66 459.24 580.83C459.2 587.94 453.4 593.68 446.28 593.65C392.27 593.4 243.09 592.74 189.08 592.5C181.97 592.47 176.23 586.67 176.28 579.56C176.43 554.4 176.82 491.79 176.98 466.62C177.02 459.51 182.82 453.77 189.94 453.8C243.95 454.04 393.13 454.71 447.14 454.95Z" id="a37bpNsDrd" fill="white" fill-opacity="1" filter="url(#shadow12862416)"></path></g><use xlink:href="#icjv8o2Tm" opacity="1" fill="#d0d4d4" fill-opacity="1"></use></g><g><g><use xlink:href="#b1sdPH6DG6" opacity="1" fill-opacity="0" stroke="#840b36" stroke-width="1" stroke-opacity="1"></use></g></g><g><g><filter id="shadow756503" x="164.11" y="526.38" width="306.96" height="123.09" filterUnits="userSpaceOnUse" primitiveUnits="userSpaceOnUse"><feFlood></feFlood><feComposite in2="SourceAlpha" operator="in"></feComposite><feGaussianBlur stdDeviation="1"></feGaussianBlur><feOffset dx="0" dy="4" result="afterOffset"></feOffset><feFlood flood-color="#000000" flood-opacity="0.35"></feFlood><feComposite in2="afterOffset" operator="in"></feComposite><feMorphology operator="dilate" radius="1"></feMorphology><feComposite in2="SourceAlpha" operator="out"></feComposite></filter><path d="M459.07 586.55C458.91 612.79 395.38 633.81 317.29 633.46C239.21 633.11 175.94 611.53 176.11 585.29C176.27 559.05 239.8 538.03 317.88 538.38C395.97 538.73 459.23 560.32 459.07 586.55Z" id="a2AS4FUY2J" fill="white" fill-opacity="1" filter="url(#shadow756503)"></path></g><use xlink:href="#fAG2gFLg3" opacity="1" fill="#d0d4d4" fill-opacity="1"></use></g><g><g><use xlink:href="#cnrEkUqY" opacity="1" fill-opacity="0" stroke="#840b36" stroke-width="1" stroke-opacity="1"></use></g></g><g><use xlink:href="#k1dMNmBVYK" opacity="1" fill="#d0d4d4" fill-opacity="0.12"></use></g><g><g><filter id="shadow8497593" x="161.15" y="318.83" width="322.66" height="178.84" filterUnits="userSpaceOnUse" primitiveUnits="userSpaceOnUse"><feFlood></feFlood><feComposite in2="SourceAlpha" operator="in"></feComposite><feGaussianBlur stdDeviation="1"></feGaussianBlur><feOffset dx="-7" dy="-7" result="afterOffset"></feOffset><feFlood flood-color="#000000" flood-opacity="1"></feFlood><feComposite in2="afterOffset" operator="in"></feComposite><feMorphology operator="dilate" radius="2"></feMorphology><feComposite in2="SourceAlpha" operator="out"></feComposite></filter><path d="M448.01 335.98C455.12 336.01 460.86 341.81 460.81 348.92C460.66 374.08 460.27 436.69 460.11 461.86C460.07 468.97 454.27 474.71 447.15 474.68C393.14 474.44 243.96 473.77 189.95 473.53C182.84 473.5 177.1 467.7 177.15 460.59C177.3 435.43 177.69 372.82 177.85 347.65C177.89 340.54 183.69 334.8 190.81 334.83C244.82 335.07 394 335.74 448.01 335.98Z" id="f12xxxoio8" fill="white" fill-opacity="1" filter="url(#shadow8497593)"></path></g><use xlink:href="#a35dNh0bC" opacity="1" fill="#d0d4d4" fill-opacity="1"></use></g><g><g><filter id="shadow11917566" x="162.03" y="197.62" width="322.66" height="178.84" filterUnits="userSpaceOnUse" primitiveUnits="userSpaceOnUse"><feFlood></feFlood><feComposite in2="SourceAlpha" operator="in"></feComposite><feGaussianBlur stdDeviation="1"></feGaussianBlur><feOffset dx="-7" dy="-7" result="afterOffset"></feOffset><feFlood flood-color="#000000" flood-opacity="0.98"></feFlood><feComposite in2="afterOffset" operator="in"></feComposite><feMorphology operator="dilate" radius="2"></feMorphology><feComposite in2="SourceAlpha" operator="out"></feComposite></filter><path d="M448.9 214.77C456.01 214.8 461.74 220.59 461.69 227.7C461.54 252.86 461.15 315.48 460.99 340.64C460.95 347.76 455.15 353.49 448.04 353.46C394.02 353.22 244.85 352.55 190.83 352.31C183.72 352.28 177.99 346.49 178.03 339.38C178.19 314.21 178.58 251.6 178.73 226.44C178.78 219.32 184.57 213.59 191.69 213.62C245.71 213.86 394.88 214.52 448.9 214.77Z" id="gltSNBNp8" fill="white" fill-opacity="1" filter="url(#shadow11917566)"></path></g><use xlink:href="#b2Ta979CNH" opacity="1" fill="#d0d4d4" fill-opacity="1"></use></g><g><g><filter id="shadow4860486" x="162.83" y="89.88" width="322.66" height="178.84" filterUnits="userSpaceOnUse" primitiveUnits="userSpaceOnUse"><feFlood></feFlood><feComposite in2="SourceAlpha" operator="in"></feComposite><feGaussianBlur stdDeviation="1"></feGaussianBlur><feOffset dx="-7" dy="-7" result="afterOffset"></feOffset><feFlood flood-color="#000000" flood-opacity="0.98"></feFlood><feComposite in2="afterOffset" operator="in"></feComposite><feMorphology operator="dilate" radius="2"></feMorphology><feComposite in2="SourceAlpha" operator="out"></feComposite></filter><path d="M449.7 107.03C456.81 107.06 462.54 112.86 462.5 119.97C462.34 145.13 461.95 207.74 461.79 232.91C461.75 240.02 455.95 245.76 448.84 245.73C394.82 245.48 245.65 244.82 191.63 244.58C184.52 244.54 178.79 238.75 178.83 231.64C178.99 206.48 179.38 143.87 179.53 118.7C179.58 111.59 185.37 105.85 192.49 105.88C246.51 106.12 395.68 106.79 449.7 107.03Z" id="eoBeB2DM5" fill="white" fill-opacity="1" filter="url(#shadow4860486)"></path></g><use xlink:href="#a1tbGRsu5p" opacity="1" fill="#d0d4d4" fill-opacity="1"></use></g><g><g><filter id="shadow413369" x="168.26" y="435.85" width="298.96" height="99.9" filterUnits="userSpaceOnUse" primitiveUnits="userSpaceOnUse"><feFlood></feFlood><feComposite in2="SourceAlpha" operator="in"></feComposite><feGaussianBlur stdDeviation="0"></feGaussianBlur><feOffset dx="0" dy="3" result="afterOffset"></feOffset><feFlood flood-color="#000000" flood-opacity="0.5"></feFlood><feComposite in2="afterOffset" operator="in"></feComposite><feMorphology operator="dilate" radius="0"></feMorphology><feComposite in2="SourceAlpha" operator="out"></feComposite></filter><path d="M459.22 484.93C459.08 507.25 395.57 525.09 317.49 524.74C239.4 524.39 176.12 505.99 176.26 483.67C176.4 461.35 239.9 443.51 317.99 443.86C396.07 444.21 459.36 462.61 459.22 484.93Z" id="b3isYhE2b" fill="white" fill-opacity="1" filter="url(#shadow413369)"></path></g><use xlink:href="#a1aKlaZp0c" opacity="1" fill="#44b0db" fill-opacity="0"></use></g><g><g><filter id="shadow12495391" x="168.87" y="314.63" width="298.96" height="99.9" filterUnits="userSpaceOnUse" primitiveUnits="userSpaceOnUse"><feFlood></feFlood><feComposite in2="SourceAlpha" operator="in"></feComposite><feGaussianBlur stdDeviation="0"></feGaussianBlur><feOffset dx="0" dy="3" result="afterOffset"></feOffset><feFlood flood-color="#000000" flood-opacity="0.5"></feFlood><feComposite in2="afterOffset" operator="in"></feComposite><feMorphology operator="dilate" radius="0"></feMorphology><feComposite in2="SourceAlpha" operator="out"></feComposite></filter><path d="M459.83 363.71C459.69 386.04 396.18 403.87 318.1 403.53C240.01 403.18 176.73 384.77 176.87 362.45C177.01 340.13 240.51 322.29 318.6 322.64C396.68 322.99 459.97 341.39 459.83 363.71Z" id="duHalxmyq" fill="white" fill-opacity="1" filter="url(#shadow12495391)"></path></g><use xlink:href="#dnDMkWG9Z" opacity="1" fill="#44b0db" fill-opacity="0.03"></use></g><g><g><filter id="shadow8668696" x="171.38" y="187.81" width="298.96" height="99.9" filterUnits="userSpaceOnUse" primitiveUnits="userSpaceOnUse"><feFlood></feFlood><feComposite in2="SourceAlpha" operator="in"></feComposite><feGaussianBlur stdDeviation="0"></feGaussianBlur><feOffset dx="0" dy="3" result="afterOffset"></feOffset><feFlood flood-color="#000000" flood-opacity="0.5"></feFlood><feComposite in2="afterOffset" operator="in"></feComposite><feMorphology operator="dilate" radius="0"></feMorphology><feComposite in2="SourceAlpha" operator="out"></feComposite></filter><path d="M462.35 236.89C462.21 259.21 398.7 277.05 320.61 276.7C242.53 276.35 179.24 257.95 179.38 235.62C179.52 213.3 243.03 195.47 321.11 195.81C399.2 196.16 462.48 214.57 462.35 236.89Z" id="d6Ti2T6Vc4" fill="white" fill-opacity="1" filter="url(#shadow8668696)"></path></g><use xlink:href="#b1asrNeQ7" opacity="1" fill="#44b0db" fill-opacity="0"></use></g><g><use xlink:href="#bykS2pv3M" opacity="1" fill="#767878" fill-opacity="1"></use></g><g><g><filter id="shadow11663319" x="170.92" y="79.24" width="301.96" height="99.9" filterUnits="userSpaceOnUse" primitiveUnits="userSpaceOnUse"><feFlood></feFlood><feComposite in2="SourceAlpha" operator="in"></feComposite><feGaussianBlur stdDeviation="1"></feGaussianBlur><feOffset dx="1" dy="1" result="afterOffset"></feOffset><feFlood flood-color="#000000" flood-opacity="0.5"></feFlood><feComposite in2="afterOffset" operator="in"></feComposite><feMorphology operator="dilate" radius="1"></feMorphology><feComposite in2="SourceAlpha" operator="out"></feComposite></filter><path d="M462.88 129.32C462.75 151.64 399.24 169.48 321.15 169.13C243.07 168.79 179.78 150.38 179.92 128.06C180.06 105.74 243.57 87.9 321.65 88.25C399.74 88.6 463.02 107 462.88 129.32Z" id="du8PV16VY" fill="white" fill-opacity="1" filter="url(#shadow11663319)"></path></g><use xlink:href="#a2tzVnH8f3" opacity="1" fill="#c4cfd2" fill-opacity="0.49"></use></g><g><use xlink:href="#bcHyGAQNO" opacity="1" fill="#767878" fill-opacity="1"></use></g><g><use xlink:href="#eafHYGVrDV" opacity="1" fill="#c4cfd2" fill-opacity="0.98"></use></g><g><use xlink:href="#c5J1JldwB" opacity="1" fill="#c4cfd2" fill-opacity="0.98"></use></g><g><g><use xlink:href="#byAlRziE1" opacity="1" fill-opacity="0" stroke="#020500" stroke-width="6" stroke-opacity="1"></use></g></g></g></g></svg>