<?xml version="1.0"?>
<svg xmlns="http://www.w3.org/2000/svg" viewBox="0 0 64 64">
    <path d="M 24 0 C 22.9 0 22 0.9 22 2 L 22 4 L 11 4 C 9.35 4 8 5.35 8 7 L 8 55 C 8 56.65 9.35 58 11 58 L 34.050781 58 C 36.360781 61.61 40.4 64 45 64 C 52.17 64 58 58.17 58 51 C 58 44.86 53.73 39.709609 48 38.349609 L 48 7 C 48 5.35 46.65 4 45 4 L 34 4 L 34 2 C 34 0.9 33.1 0 32 0 L 24 0 z M 24 2 L 32 2 L 32 4 L 32 6 L 32 7.4296875 L 28 9.8300781 L 24 7.4296875 L 24 6 L 24 4 L 24 2 z M 11 6 L 22 6 L 22 7.4296875 C 22 8.1296875 22.370703 8.7903906 22.970703 9.1503906 L 26.970703 11.550781 C 27.290703 11.740781 27.64 11.830078 28 11.830078 C 28.36 11.830078 28.709297 11.740781 29.029297 11.550781 L 33.029297 9.1503906 C 33.629297 8.7903906 34 8.1296875 34 7.4296875 L 34 6 L 45 6 C 45.55 6 46 6.45 46 7 L 46 38.050781 C 45.67 38.010781 45.34 38 45 38 C 42.283 38 39.761828 38.839531 37.673828 40.269531 C 37.495828 40.105531 37.261 40 37 40 L 19 40 C 18.448 40 18 40.447 18 41 C 18 41.553 18.448 42 19 42 L 35.640625 42 C 34.935625 42.733 34.319781 43.549641 33.800781 44.431641 C 33.618781 44.177641 33.336 44 33 44 L 31 44 C 30.448 44 30 44.447 30 45 C 30 45.553 30.448 46 31 46 L 33 46 L 33.003906 46 C 32.358906 47.54 32 49.228 32 51 C 32 52.77 32.36 54.46 33 56 L 11 56 C 10.45 56 10 55.55 10 55 L 10 7 C 10 6.45 10.45 6 11 6 z M 28 14 C 24.14 14 21 17.14 21 21 L 21 23 C 21 24.61 21.540469 26.300938 22.480469 27.710938 C 19.350469 28.840937 16.679609 31.260312 15.099609 34.570312 C 14.859609 35.070312 15.070313 35.660391 15.570312 35.900391 C 16.060313 36.140391 16.660391 35.929688 16.900391 35.429688 C 18.380391 32.339688 20.940156 30.159375 23.910156 29.359375 C 25.040156 30.359375 26.45 31 28 31 C 29.55 31 30.959844 30.359375 32.089844 29.359375 C 35.059844 30.159375 37.619609 32.339688 39.099609 35.429688 C 39.269609 35.789687 39.63 36 40 36 C 40.15 36 40.289688 35.970391 40.429688 35.900391 C 40.929688 35.660391 41.140391 35.070312 40.900391 34.570312 C 39.320391 31.260313 36.649531 28.840938 33.519531 27.710938 C 34.459531 26.300937 35 24.61 35 23 L 35 21 C 35 17.14 31.86 14 28 14 z M 28 16 C 30.76 16 33 18.24 33 21 L 33 23 C 33 24.42 32.399922 25.990156 31.419922 27.160156 C 30.529922 28.250156 29.32 29 28 29 C 26.68 29 25.470078 28.250156 24.580078 27.160156 C 23.600078 25.990156 23 24.42 23 23 L 23 21 C 23 18.24 25.24 16 28 16 z M 45 40 C 45.34 40 45.67 40.020781 46 40.050781 C 46.68 40.110781 47.35 40.229922 48 40.419922 C 52.61 41.719922 56 45.97 56 51 C 56 57.07 51.07 62 45 62 C 41.59 62 38.529766 60.44 36.509766 58 C 35.999766 57.38 35.559219 56.71 35.199219 56 C 34.429219 54.5 34 52.8 34 51 C 34 44.93 38.93 40 45 40 z M 23 44 C 22.448 44 22 44.447 22 45 C 22 45.553 22.448 46 23 46 L 27 46 C 27.552 46 28 45.553 28 45 C 28 44.447 27.552 44 27 44 L 23 44 z M 40.757812 45.757812 C 40.502062 45.757812 40.246281 45.855281 40.050781 46.050781 C 39.659781 46.441781 39.659781 47.073844 40.050781 47.464844 L 43.585938 51 L 40.050781 54.535156 C 39.659781 54.926156 39.659781 55.558219 40.050781 55.949219 C 40.245781 56.144219 40.501813 56.242187 40.757812 56.242188 C 41.013813 56.242188 41.269844 56.144219 41.464844 55.949219 L 45 52.414062 L 48.535156 55.949219 C 48.730156 56.144219 48.986188 56.242187 49.242188 56.242188 C 49.498188 56.242188 49.754219 56.144219 49.949219 55.949219 C 50.340219 55.558219 50.340219 54.926156 49.949219 54.535156 L 46.414062 51 L 49.949219 47.464844 C 50.339219 47.073844 50.339219 46.440781 49.949219 46.050781 C 49.558219 45.659781 48.926156 45.659781 48.535156 46.050781 L 45 49.585938 L 41.464844 46.050781 C 41.269344 45.855281 41.013563 45.757812 40.757812 45.757812 z M 13 50 C 12.4 50 12 50.447 12 51 L 12 53 C 12 53.553 12.4 54 13 54 C 13.6 54 14 53.553 14 53 L 14 51 C 14 50.448 13.6 50 13 50 z M 18 50 C 17.4 50 17 50.447 17 51 L 17 53 C 17 53.553 17.4 54 18 54 C 18.6 54 19 53.553 19 53 L 19 51 C 19 50.448 18.6 50 18 50 z M 23 50 C 22.4 50 22 50.447 22 51 L 22 53 C 22 53.553 22.4 54 23 54 C 23.6 54 24 53.553 24 53 L 24 51 C 24 50.448 23.6 50 23 50 z M 28 50 C 27.4 50 27 50.447 27 51 L 27 53 C 27 53.553 27.4 54 28 54 C 28.6 54 29 53.553 29 53 L 29 51 C 29 50.448 28.6 50 28 50 z"/>
</svg>
