<?xml version="1.0" encoding="UTF-8" standalone="no"?>
<!DOCTYPE svg PUBLIC "-//W3C//DTD SVG 1.1//EN" "http://www.w3.org/Graphics/SVG/1.1/DTD/svg11.dtd">
<svg version="1.1" xmlns="http://www.w3.org/2000/svg" xmlns:xlink="http://www.w3.org/1999/xlink" preserveAspectRatio="xMidYMid meet" viewBox="0 0 640 640" width="640" height="640"><defs><path d="M594.13 148.9C609.33 148.9 621.65 161.23 621.65 176.43C621.65 238.7 621.65 398.01 621.65 460.29C621.65 475.49 609.33 487.81 594.13 487.81C478.67 487.81 159.83 487.81 44.37 487.81C29.17 487.81 16.85 475.49 16.85 460.29C16.85 398.01 16.85 238.7 16.85 176.43C16.85 161.23 29.17 148.9 44.37 148.9C159.83 148.9 478.67 148.9 594.13 148.9Z" id="gqjB5S3Cm"></path><path d="M621.65 179.9C621.65 248.71 486.15 304.58 319.25 304.58C152.35 304.58 16.85 248.71 16.85 179.9C16.85 111.09 152.35 55.22 319.25 55.22C486.15 55.22 621.65 111.09 621.65 179.9Z" id="fMXCRmqxx"></path><path d="" id="a48bK5hMs"></path><path d="M621.36 470.34C621.36 534.45 485.86 586.5 318.96 586.5C152.06 586.5 16.56 534.45 16.56 470.34C16.56 406.23 152.06 354.18 318.96 354.18C485.86 354.18 621.36 406.23 621.36 470.34Z" id="i4JWv55KFF"></path><path d="" id="b178JXxY8M"></path><path d="M618.51 381.73C618.51 472.21 483.01 545.68 316.11 545.68C149.21 545.68 13.71 472.21 13.71 381.73C13.71 291.25 149.21 217.79 316.11 217.79C483.01 217.79 618.51 291.25 618.51 381.73Z" id="b3p8qdbrz"></path><path d="M621.65 212.28C621.65 283.75 486.15 341.78 319.25 341.78C152.35 341.78 16.85 283.75 16.85 212.28C16.85 140.8 152.35 82.78 319.25 82.78C486.15 82.78 621.65 140.8 621.65 212.28Z" id="a4vmQFfErW"></path><path d="M183.31 107.5L241.89 107.5L241.89 155.74L183.31 155.74L183.31 107.5Z" id="aoStJqdB4"></path><path d="M193.6 215.25L251.72 207.84L257.81 255.7L199.7 263.1L193.6 215.25Z" id="c1Dwz1pYBs"></path><path d="M323.86 222.07L382.18 216.52L386.75 264.55L328.43 270.1L323.86 222.07Z" id="h7eUFk89nm"></path><path d="M341.58 96.53L399.23 106.95L390.65 154.42L333 144L341.58 96.53Z" id="a3bgiQl6Zc"></path><path d="M427.34 215.2L476.41 192.7L496.51 236.56L447.44 259.05L427.34 215.2Z" id="a1y4rnVRIY"></path><path d="M82.46 159.03L140.11 169.45L131.53 216.92L73.88 206.5L82.46 159.03Z" id="b3FoDHHDM"></path><path d="M505.17 135.99L563.74 135.23L564.36 183.47L505.78 184.23L505.17 135.99Z" id="hfNnVOl0X"></path><path d="M169.53 236.15C169.53 242.49 164.12 247.64 157.47 247.64C150.81 247.64 145.41 242.49 145.41 236.15C145.41 229.81 150.81 224.66 157.47 224.66C164.12 224.66 169.53 229.81 169.53 236.15Z" id="a2VopY1nLU"></path><path d="M312.43 99.93C312.43 106.27 307.03 111.42 300.37 111.42C293.72 111.42 288.31 106.27 288.31 99.93C288.31 93.59 293.72 88.45 300.37 88.45C307.03 88.45 312.43 93.59 312.43 99.93Z" id="a4vFJUJkwX"></path><path d="M448.45 173.92C448.45 180.26 443.56 185.41 437.53 185.41C431.51 185.41 426.62 180.26 426.62 173.92C426.62 167.58 431.51 162.43 437.53 162.43C443.56 162.43 448.45 167.58 448.45 173.92Z" id="e2Ks3JgHv"></path><path d="M155.07 125.2C155.07 131.54 149.66 136.69 143.01 136.69C136.35 136.69 130.95 131.54 130.95 125.2C130.95 118.86 136.35 113.72 143.01 113.72C149.66 113.72 155.07 118.86 155.07 125.2Z" id="bntbNJfCZ"></path><path d="M297.97 255.47C297.97 261.81 292.57 266.96 285.91 266.96C279.26 266.96 273.85 261.81 273.85 255.47C273.85 249.13 279.26 243.99 285.91 243.99C292.57 243.99 297.97 249.13 297.97 255.47Z" id="hBFTO8iiU"></path><path d="M535.07 231.82C535.07 238.16 529.66 243.31 523.01 243.31C516.35 243.31 510.95 238.16 510.95 231.82C510.95 225.48 516.35 220.34 523.01 220.34C529.66 220.34 535.07 225.48 535.07 231.82Z" id="b3wHpwXJ9l"></path><path d="M186.55 177.36C186.55 183.7 181.15 188.85 174.49 188.85C167.84 188.85 162.43 183.7 162.43 177.36C162.43 171.03 167.84 165.88 174.49 165.88C181.15 165.88 186.55 171.03 186.55 177.36Z" id="j107XlKKx9"></path><path d="M359.32 189.32C359.32 195.66 353.92 200.81 347.26 200.81C340.61 200.81 335.2 195.66 335.2 189.32C335.2 182.98 340.61 177.84 347.26 177.84C353.92 177.84 359.32 182.98 359.32 189.32Z" id="deRIm0Ooa"></path><path d="M462.03 108.24C462.03 114.58 456.62 119.73 449.97 119.73C443.31 119.73 437.91 114.58 437.91 108.24C437.91 101.9 443.31 96.76 449.97 96.76C456.62 96.76 462.03 101.9 462.03 108.24Z" id="d1Xr1umcbO"></path><path d="M274.8 156.49C274.8 162.83 269.39 167.97 262.74 167.97C256.08 167.97 250.68 162.83 250.68 156.49C250.68 150.15 256.08 145 262.74 145C269.39 145 274.8 150.15 274.8 156.49Z" id="d1dopXYHyA"></path><path d="M425.74 267.23C425.74 273.57 420.34 278.72 413.68 278.72C407.03 278.72 401.62 273.57 401.62 267.23C401.62 260.89 407.03 255.74 413.68 255.74C420.34 255.74 425.74 260.89 425.74 267.23Z" id="a4h7UEYQZT"></path></defs><g><g><g><use xlink:href="#gqjB5S3Cm" opacity="1" fill="#d0d4d4" fill-opacity="1"></use></g><g><g><filter id="shadow14560859" x="0.85" y="39.22" width="637.8" height="289.36" filterUnits="userSpaceOnUse" primitiveUnits="userSpaceOnUse"><feFlood></feFlood><feComposite in2="SourceAlpha" operator="in"></feComposite><feGaussianBlur stdDeviation="1"></feGaussianBlur><feOffset dx="1" dy="8" result="afterOffset"></feOffset><feFlood flood-color="#000000" flood-opacity="0.75"></feFlood><feComposite in2="afterOffset" operator="in"></feComposite><feMorphology operator="dilate" radius="1"></feMorphology><feComposite in2="SourceAlpha" operator="out"></feComposite></filter><path d="M621.65 179.9C621.65 248.71 486.15 304.58 319.25 304.58C152.35 304.58 16.85 248.71 16.85 179.9C16.85 111.09 152.35 55.22 319.25 55.22C486.15 55.22 621.65 111.09 621.65 179.9Z" id="a3X0oK51X" fill="white" fill-opacity="1" filter="url(#shadow14560859)"></path></g><g><filter id="shadow906277" x="4.85" y="43.22" width="628.8" height="277.36" filterUnits="userSpaceOnUse" primitiveUnits="userSpaceOnUse"><feFlood></feFlood><feComposite in2="SourceAlpha" operator="in"></feComposite><feGaussianBlur stdDeviation="1"></feGaussianBlur><feOffset dx="0" dy="-4" result="afterOffset"></feOffset><feFlood flood-color="#000000" flood-opacity="0.75"></feFlood><feComposite in2="afterOffset" operator="in"></feComposite><feMorphology operator="dilate" radius="1"></feMorphology><feComposite in2="SourceAlpha" operator="out"></feComposite></filter><path d="M621.65 179.9C621.65 248.71 486.15 304.58 319.25 304.58C152.35 304.58 16.85 248.71 16.85 179.9C16.85 111.09 152.35 55.22 319.25 55.22C486.15 55.22 621.65 111.09 621.65 179.9Z" id="b5Dnfq2XtM" fill="white" fill-opacity="1" filter="url(#shadow906277)"></path></g><use xlink:href="#fMXCRmqxx" opacity="1" fill="#c42e04" fill-opacity="1"></use><g><use xlink:href="#fMXCRmqxx" opacity="1" fill-opacity="0" stroke="#b6b4ad" stroke-width="1" stroke-opacity="1"></use></g></g><g><g><use xlink:href="#a48bK5hMs" opacity="1" fill-opacity="0" stroke="#840b36" stroke-width="1" stroke-opacity="1"></use></g></g><g><g><filter id="shadow6117339" x="-0.44" y="337.18" width="638.8" height="275.33" filterUnits="userSpaceOnUse" primitiveUnits="userSpaceOnUse"><feFlood></feFlood><feComposite in2="SourceAlpha" operator="in"></feComposite><feGaussianBlur stdDeviation="1"></feGaussianBlur><feOffset dx="0" dy="9" result="afterOffset"></feOffset><feFlood flood-color="#000000" flood-opacity="0.75"></feFlood><feComposite in2="afterOffset" operator="in"></feComposite><feMorphology operator="dilate" radius="1"></feMorphology><feComposite in2="SourceAlpha" operator="out"></feComposite></filter><path d="M621.36 470.34C621.36 534.45 485.86 586.5 318.96 586.5C152.06 586.5 16.56 534.45 16.56 470.34C16.56 406.23 152.06 354.18 318.96 354.18C485.86 354.18 621.36 406.23 621.36 470.34Z" id="l2tjCLq2GP" fill="white" fill-opacity="1" filter="url(#shadow6117339)"></path></g><use xlink:href="#i4JWv55KFF" opacity="1" fill="#d0d4d4" fill-opacity="1"></use></g><g><g><use xlink:href="#b178JXxY8M" opacity="1" fill-opacity="0" stroke="#840b36" stroke-width="1" stroke-opacity="1"></use></g></g><g></g><g><g><filter id="shadow12689275" x="0.85" y="66.78" width="636.8" height="299" filterUnits="userSpaceOnUse" primitiveUnits="userSpaceOnUse"><feFlood></feFlood><feComposite in2="SourceAlpha" operator="in"></feComposite><feGaussianBlur stdDeviation="1"></feGaussianBlur><feOffset dx="0" dy="8" result="afterOffset"></feOffset><feFlood flood-color="#000000" flood-opacity="0.75"></feFlood><feComposite in2="afterOffset" operator="in"></feComposite><feMorphology operator="dilate" radius="1"></feMorphology><feComposite in2="SourceAlpha" operator="out"></feComposite></filter><path d="M621.65 212.28C621.65 283.75 486.15 341.78 319.25 341.78C152.35 341.78 16.85 283.75 16.85 212.28C16.85 140.8 152.35 82.78 319.25 82.78C486.15 82.78 621.65 140.8 621.65 212.28Z" id="f1g0LPhfZ" fill="white" fill-opacity="1" filter="url(#shadow12689275)"></path></g></g><g><use xlink:href="#aoStJqdB4" opacity="1" fill="#e7be04" fill-opacity="1"></use></g><g><use xlink:href="#c1Dwz1pYBs" opacity="1" fill="#e7be04" fill-opacity="1"></use></g><g><use xlink:href="#h7eUFk89nm" opacity="1" fill="#e7be04" fill-opacity="1"></use></g><g><use xlink:href="#a3bgiQl6Zc" opacity="1" fill="#e7be04" fill-opacity="1"></use></g><g><use xlink:href="#a1y4rnVRIY" opacity="1" fill="#e7be04" fill-opacity="1"></use></g><g><use xlink:href="#b3FoDHHDM" opacity="1" fill="#e7be04" fill-opacity="1"></use></g><g><use xlink:href="#hfNnVOl0X" opacity="1" fill="#e7be04" fill-opacity="1"></use></g><g><use xlink:href="#a2VopY1nLU" opacity="1" fill="#95960c" fill-opacity="1"></use></g><g><use xlink:href="#a4vFJUJkwX" opacity="1" fill="#95960c" fill-opacity="1"></use></g><g><use xlink:href="#e2Ks3JgHv" opacity="1" fill="#95960c" fill-opacity="1"></use></g><g><use xlink:href="#bntbNJfCZ" opacity="1" fill="#95960c" fill-opacity="1"></use></g><g><use xlink:href="#hBFTO8iiU" opacity="1" fill="#95960c" fill-opacity="1"></use></g><g><use xlink:href="#b3wHpwXJ9l" opacity="1" fill="#95960c" fill-opacity="1"></use></g><g><use xlink:href="#j107XlKKx9" opacity="1" fill="#95960c" fill-opacity="1"></use></g><g><use xlink:href="#deRIm0Ooa" opacity="1" fill="#95960c" fill-opacity="1"></use></g><g><use xlink:href="#d1Xr1umcbO" opacity="1" fill="#95960c" fill-opacity="1"></use></g><g><use xlink:href="#d1dopXYHyA" opacity="1" fill="#95960c" fill-opacity="1"></use></g><g><use xlink:href="#a4h7UEYQZT" opacity="1" fill="#95960c" fill-opacity="1"></use></g></g></g></svg>