<?xml version="1.0" encoding="UTF-8" standalone="no"?>
<!DOCTYPE svg PUBLIC "-//W3C//DTD SVG 1.1//EN" "http://www.w3.org/Graphics/SVG/1.1/DTD/svg11.dtd">
<svg version="1.1" xmlns="http://www.w3.org/2000/svg" xmlns:xlink="http://www.w3.org/1999/xlink" preserveAspectRatio="xMidYMid meet" viewBox="0 0 640 640" width="640" height="640"><defs><path d="M594.13 148.9C609.33 148.9 621.65 161.23 621.65 176.43C621.65 238.7 621.65 398.01 621.65 460.29C621.65 475.49 609.33 487.81 594.13 487.81C478.67 487.81 159.83 487.81 44.37 487.81C29.17 487.81 16.85 475.49 16.85 460.29C16.85 398.01 16.85 238.7 16.85 176.43C16.85 161.23 29.17 148.9 44.37 148.9C159.83 148.9 478.67 148.9 594.13 148.9Z" id="c2v8WSbFAg"></path><path d="M621.65 179.9C621.65 248.71 486.15 304.58 319.25 304.58C152.35 304.58 16.85 248.71 16.85 179.9C16.85 111.09 152.35 55.22 319.25 55.22C486.15 55.22 621.65 111.09 621.65 179.9Z" id="a3h0WanH3D"></path><path d="" id="a1hfu5Jooh"></path><path d="M621.36 470.34C621.36 534.45 485.86 586.5 318.96 586.5C152.06 586.5 16.56 534.45 16.56 470.34C16.56 406.23 152.06 354.18 318.96 354.18C485.86 354.18 621.36 406.23 621.36 470.34Z" id="a7JkFUarY"></path><path d="" id="cmpdcfAGI"></path><path d="M618.51 381.73C618.51 472.21 483.01 545.68 316.11 545.68C149.21 545.68 13.71 472.21 13.71 381.73C13.71 291.25 149.21 217.79 316.11 217.79C483.01 217.79 618.51 291.25 618.51 381.73Z" id="b2E5V373bF"></path><path d="M621.65 213.43C621.65 284.9 486.15 342.93 319.25 342.93C152.35 342.93 16.85 284.9 16.85 213.43C16.85 141.95 152.35 83.92 319.25 83.92C486.15 83.92 621.65 141.95 621.65 213.43Z" id="hj5FQ3xOC"></path><path d="M490.57 170.46C490.57 176.8 480.53 181.95 468.16 181.95C455.79 181.95 445.75 176.8 445.75 170.46C445.75 164.12 455.79 158.97 468.16 158.97C480.53 158.97 490.57 164.12 490.57 170.46Z" id="eXLtEPCoU"></path><path d="M210.57 107.7C210.57 114.05 200.53 119.2 188.16 119.2C175.79 119.2 165.75 114.05 165.75 107.7C165.75 101.36 175.79 96.21 188.16 96.21C200.53 96.21 210.57 101.36 210.57 107.7Z" id="bj0zMDUUz"></path><path d="M278.85 162.18C278.85 168.53 268.81 173.68 256.44 173.68C244.07 173.68 234.02 168.53 234.02 162.18C234.02 155.84 244.07 150.69 256.44 150.69C268.81 150.69 278.85 155.84 278.85 162.18Z" id="bbZ9V7Uss"></path><path d="M418.39 220.11C418.39 226.46 408.35 231.61 395.98 231.61C383.61 231.61 373.56 226.46 373.56 220.11C373.56 213.77 383.61 208.62 395.98 208.62C408.35 208.62 418.39 213.77 418.39 220.11Z" id="dThf9qReZ"></path><path d="M295.79 266.23C292.96 271.9 281.67 272.02 270.61 266.49C259.54 260.96 252.86 251.86 255.7 246.18C258.54 240.51 269.82 240.39 280.89 245.93C291.95 251.46 298.63 260.56 295.79 266.23Z" id="cdMFGT1Lz"></path><path d="M375.16 176.54C368.74 179.46 359.37 172.68 354.25 161.42C349.13 150.16 350.19 138.65 356.61 135.73C363.03 132.81 372.4 139.59 377.51 150.85C382.63 162.11 381.58 173.62 375.16 176.54Z" id="b8ErpAiU5"></path><path d="M430.11 123.79C430.11 130.14 420.07 135.29 407.7 135.29C395.33 135.29 385.29 130.14 385.29 123.79C385.29 117.45 395.33 112.3 407.7 112.3C420.07 112.3 430.11 117.45 430.11 123.79Z" id="c26KswxOu"></path><path d="M530.57 210.46C530.57 216.8 520.53 221.95 508.16 221.95C495.79 221.95 485.75 216.8 485.75 210.46C485.75 204.12 495.79 198.97 508.16 198.97C520.53 198.97 530.57 204.12 530.57 210.46Z" id="d1FE3jminO"></path><path d="M355.17 93.68C355.17 100.02 345.13 105.17 332.76 105.17C320.39 105.17 310.34 100.02 310.34 93.68C310.34 87.33 320.39 82.18 332.76 82.18C345.13 82.18 355.17 87.33 355.17 93.68Z" id="b4iY8p6CDf"></path><path d="M292.41 209.08C292.41 215.42 282.37 220.57 270 220.57C257.63 220.57 247.59 215.42 247.59 209.08C247.59 202.74 257.63 197.59 270 197.59C282.37 197.59 292.41 202.74 292.41 209.08Z" id="a5IfNiuNR"></path><path d="M428.51 270.46C428.51 276.8 418.46 281.95 406.09 281.95C393.72 281.95 383.68 276.8 383.68 270.46C383.68 264.12 393.72 258.97 406.09 258.97C418.46 258.97 428.51 264.12 428.51 270.46Z" id="anY19o0a"></path><path d="M270.32 126.85C263.02 130.17 252.93 123.72 247.81 112.46C242.69 101.2 244.47 89.36 251.77 86.04C259.08 82.72 269.16 89.16 274.28 100.43C279.4 111.69 277.63 123.53 270.32 126.85Z" id="epbgorQz"></path><path d="M447.15 247.29C445.84 241.08 454.6 233.96 466.7 231.4C478.8 228.83 489.69 231.79 491.01 238C492.32 244.2 483.56 251.32 471.46 253.89C459.36 256.45 448.47 253.5 447.15 247.29Z" id="b1xwHEDDnG"></path><path d="M337.38 216.04C330.6 218.21 319.12 210 311.75 197.72C304.38 185.43 303.91 173.7 310.69 171.53C317.47 169.36 328.96 177.58 336.32 189.86C343.69 202.14 344.16 213.88 337.38 216.04Z" id="b9bq2UHSr"></path><path d="M146.19 177.32C139.89 178.06 133.6 168.69 132.15 156.4C130.7 144.12 134.64 133.54 140.94 132.8C147.24 132.06 153.53 141.43 154.98 153.71C156.43 166 152.49 176.57 146.19 177.32Z" id="b2QfzvG8cP"></path><path d="M209.74 268.25C202.68 264.45 201.69 252.52 207.55 241.63C213.41 230.73 223.9 224.97 230.97 228.77C238.04 232.57 239.02 244.5 233.16 255.39C227.3 266.29 216.81 272.05 209.74 268.25Z" id="f46tTEEsYd"></path><path d="M523.87 164.89C518.1 167.51 509.25 160.5 504.13 149.24C499.01 137.98 499.55 126.7 505.32 124.08C511.1 121.45 519.94 128.46 525.06 139.73C530.18 150.99 529.65 162.26 523.87 164.89Z" id="c3yjg64Ap"></path><path d="M97.9 227.42C92.12 230.04 83.28 223.03 78.16 211.77C73.04 200.51 73.57 189.23 79.35 186.61C85.12 183.98 93.97 190.99 99.08 202.26C104.2 213.52 103.67 224.79 97.9 227.42Z" id="a10zbJoEbs"></path><path d="M576.52 194.54C570.74 197.17 561.9 190.16 556.78 178.89C551.66 167.63 552.19 156.36 557.97 153.73C563.74 151.11 572.59 158.12 577.71 169.38C582.82 180.64 582.29 191.92 576.52 194.54Z" id="dpCgjHoYT"></path><path d="M169.17 272.82C161.87 276.14 151.78 269.7 146.66 258.43C141.54 247.17 143.32 235.33 150.62 232.01C157.93 228.69 168.01 235.14 173.13 246.4C178.25 257.66 176.48 269.5 169.17 272.82Z" id="a621sFUqNv"></path><path d="M338.6 281.33C331.29 284.65 321.21 278.2 316.09 266.94C310.97 255.68 312.74 243.84 320.05 240.52C327.35 237.2 337.44 243.65 342.56 254.91C347.68 266.17 345.9 278.01 338.6 281.33Z" id="d3JyU4fKm"></path><path d="M233.79 185.77C231.23 193.38 219.63 196.35 207.91 192.4C196.18 188.46 188.74 179.08 191.3 171.48C193.86 163.87 205.45 160.9 217.18 164.85C228.9 168.79 236.34 178.17 233.79 185.77Z" id="b33eMbvdZf"></path><path d="M432.62 201.79C425.32 205.11 415.23 198.66 410.11 187.4C404.99 176.14 406.77 164.3 414.07 160.98C421.38 157.66 431.46 164.11 436.58 175.37C441.7 186.63 439.93 198.47 432.62 201.79Z" id="b1j0xKsIpe"></path><path d="M467.56 127.54C460.26 130.86 450.17 124.41 445.05 113.15C439.93 101.89 441.71 90.05 449.01 86.73C456.32 83.41 466.4 89.85 471.52 101.12C476.64 112.38 474.87 124.22 467.56 127.54Z" id="a2BljBlK0d"></path><path d="M313.09 161.02C305.07 160.73 298.93 150.45 299.39 138.09C299.85 125.73 306.73 115.93 314.75 116.23C322.77 116.52 328.91 126.8 328.45 139.16C327.99 151.53 321.11 161.32 313.09 161.02Z" id="c11PqRMSsU"></path><path d="M171.91 172.71L205.91 147.68L234.75 116.85L218.58 122.83L179.74 157.36L171.91 172.71Z" id="a1fB73mWRL"></path><path d="M559.83 132.06L546.37 121.28L553.5 116.02L560.63 110.76L566.96 126.8L573.29 142.84L559.83 132.06Z" id="a14QmZFRUc"></path><path d="M359.08 190.69L378.62 186.09L395.86 174.6L388.97 195.29L369.43 203.33L349.89 207.93L347.59 187.24" id="b14QsJH83S"></path><path d="M494.71 94.14L538.39 106.78L494.71 106.78L494.71 94.14Z" id="a42TXjr1Va"></path><path d="M561.09 126.61L503.64 101.31L563.66 111.6L561.09 126.61Z" id="b1Nahe4R6r"></path><path d="M414.65 96.58C411.81 102.25 400.52 102.36 389.46 96.83C378.39 91.3 371.71 82.2 374.55 76.53C377.39 70.85 388.67 70.74 399.74 76.27C410.8 81.8 417.48 90.9 414.65 96.58Z" id="gfXbq3B1U"></path><path d="M119.77 143.33C119.77 149.68 109.73 154.83 97.36 154.83C84.99 154.83 74.94 149.68 74.94 143.33C74.94 136.99 84.99 131.84 97.36 131.84C109.73 131.84 119.77 136.99 119.77 143.33Z" id="b17mo0fCUX"></path><path d="M187.13 204.94C187.13 211.29 177.08 216.44 164.71 216.44C152.34 216.44 142.3 211.29 142.3 204.94C142.3 198.6 152.34 193.45 164.71 193.45C177.08 193.45 187.13 198.6 187.13 204.94Z" id="h4ddnERnYt"></path></defs><g><g><g><use xlink:href="#c2v8WSbFAg" opacity="1" fill="#d0d4d4" fill-opacity="1"></use></g><g><g><filter id="shadow4551712" x="0.85" y="39.22" width="637.8" height="289.36" filterUnits="userSpaceOnUse" primitiveUnits="userSpaceOnUse"><feFlood></feFlood><feComposite in2="SourceAlpha" operator="in"></feComposite><feGaussianBlur stdDeviation="1"></feGaussianBlur><feOffset dx="1" dy="8" result="afterOffset"></feOffset><feFlood flood-color="#000000" flood-opacity="0.75"></feFlood><feComposite in2="afterOffset" operator="in"></feComposite><feMorphology operator="dilate" radius="1"></feMorphology><feComposite in2="SourceAlpha" operator="out"></feComposite></filter><path d="M621.65 179.9C621.65 248.71 486.15 304.58 319.25 304.58C152.35 304.58 16.85 248.71 16.85 179.9C16.85 111.09 152.35 55.22 319.25 55.22C486.15 55.22 621.65 111.09 621.65 179.9Z" id="e2jRrx1MAv" fill="white" fill-opacity="1" filter="url(#shadow4551712)"></path></g><g><filter id="shadow8919240" x="4.85" y="43.22" width="628.8" height="277.36" filterUnits="userSpaceOnUse" primitiveUnits="userSpaceOnUse"><feFlood></feFlood><feComposite in2="SourceAlpha" operator="in"></feComposite><feGaussianBlur stdDeviation="1"></feGaussianBlur><feOffset dx="0" dy="-4" result="afterOffset"></feOffset><feFlood flood-color="#000000" flood-opacity="0.75"></feFlood><feComposite in2="afterOffset" operator="in"></feComposite><feMorphology operator="dilate" radius="1"></feMorphology><feComposite in2="SourceAlpha" operator="out"></feComposite></filter><path d="M621.65 179.9C621.65 248.71 486.15 304.58 319.25 304.58C152.35 304.58 16.85 248.71 16.85 179.9C16.85 111.09 152.35 55.22 319.25 55.22C486.15 55.22 621.65 111.09 621.65 179.9Z" id="d47lEwCPzv" fill="white" fill-opacity="1" filter="url(#shadow8919240)"></path></g><use xlink:href="#a3h0WanH3D" opacity="1" fill="#752f00" fill-opacity="1"></use><g><use xlink:href="#a3h0WanH3D" opacity="1" fill-opacity="0" stroke="#b6b4ad" stroke-width="1" stroke-opacity="1"></use></g></g><g><g><use xlink:href="#a1hfu5Jooh" opacity="1" fill-opacity="0" stroke="#840b36" stroke-width="1" stroke-opacity="1"></use></g></g><g><g><filter id="shadow11730532" x="-0.44" y="337.18" width="638.8" height="275.33" filterUnits="userSpaceOnUse" primitiveUnits="userSpaceOnUse"><feFlood></feFlood><feComposite in2="SourceAlpha" operator="in"></feComposite><feGaussianBlur stdDeviation="1"></feGaussianBlur><feOffset dx="0" dy="9" result="afterOffset"></feOffset><feFlood flood-color="#000000" flood-opacity="0.75"></feFlood><feComposite in2="afterOffset" operator="in"></feComposite><feMorphology operator="dilate" radius="1"></feMorphology><feComposite in2="SourceAlpha" operator="out"></feComposite></filter><path d="M621.36 470.34C621.36 534.45 485.86 586.5 318.96 586.5C152.06 586.5 16.56 534.45 16.56 470.34C16.56 406.23 152.06 354.18 318.96 354.18C485.86 354.18 621.36 406.23 621.36 470.34Z" id="c1cm3tfY4X" fill="white" fill-opacity="1" filter="url(#shadow11730532)"></path></g><use xlink:href="#a7JkFUarY" opacity="1" fill="#d0d4d4" fill-opacity="1"></use></g><g><g><use xlink:href="#cmpdcfAGI" opacity="1" fill-opacity="0" stroke="#840b36" stroke-width="1" stroke-opacity="1"></use></g></g><g></g><g><g><filter id="shadow13763871" x="0.85" y="67.92" width="636.8" height="299" filterUnits="userSpaceOnUse" primitiveUnits="userSpaceOnUse"><feFlood></feFlood><feComposite in2="SourceAlpha" operator="in"></feComposite><feGaussianBlur stdDeviation="1"></feGaussianBlur><feOffset dx="0" dy="8" result="afterOffset"></feOffset><feFlood flood-color="#000000" flood-opacity="0.75"></feFlood><feComposite in2="afterOffset" operator="in"></feComposite><feMorphology operator="dilate" radius="1"></feMorphology><feComposite in2="SourceAlpha" operator="out"></feComposite></filter><path d="M621.65 213.43C621.65 284.9 486.15 342.93 319.25 342.93C152.35 342.93 16.85 284.9 16.85 213.43C16.85 141.95 152.35 83.92 319.25 83.92C486.15 83.92 621.65 141.95 621.65 213.43Z" id="a1Vx245Wm5" fill="white" fill-opacity="1" filter="url(#shadow13763871)"></path></g></g><g><g><filter id="shadow11638309" x="436.75" y="149.97" width="63.83" height="41.99" filterUnits="userSpaceOnUse" primitiveUnits="userSpaceOnUse"><feFlood></feFlood><feComposite in2="SourceAlpha" operator="in"></feComposite><feGaussianBlur stdDeviation="1"></feGaussianBlur><feOffset dx="1" dy="1" result="afterOffset"></feOffset><feFlood flood-color="#000000" flood-opacity="0.5"></feFlood><feComposite in2="afterOffset" operator="in"></feComposite><feMorphology operator="dilate" radius="1"></feMorphology><feComposite in2="SourceAlpha" operator="out"></feComposite></filter><path d="M490.57 170.46C490.57 176.8 480.53 181.95 468.16 181.95C455.79 181.95 445.75 176.8 445.75 170.46C445.75 164.12 455.79 158.97 468.16 158.97C480.53 158.97 490.57 164.12 490.57 170.46Z" id="d3gbHLOD" fill="white" fill-opacity="1" filter="url(#shadow11638309)"></path></g><use xlink:href="#eXLtEPCoU" opacity="1" fill="#c14c14" fill-opacity="1"></use></g><g><g><filter id="shadow10955535" x="156.75" y="87.21" width="63.83" height="41.99" filterUnits="userSpaceOnUse" primitiveUnits="userSpaceOnUse"><feFlood></feFlood><feComposite in2="SourceAlpha" operator="in"></feComposite><feGaussianBlur stdDeviation="1"></feGaussianBlur><feOffset dx="1" dy="1" result="afterOffset"></feOffset><feFlood flood-color="#000000" flood-opacity="0.5"></feFlood><feComposite in2="afterOffset" operator="in"></feComposite><feMorphology operator="dilate" radius="1"></feMorphology><feComposite in2="SourceAlpha" operator="out"></feComposite></filter><path d="M210.57 107.7C210.57 114.05 200.53 119.2 188.16 119.2C175.79 119.2 165.75 114.05 165.75 107.7C165.75 101.36 175.79 96.21 188.16 96.21C200.53 96.21 210.57 101.36 210.57 107.7Z" id="f4a0w57ib" fill="white" fill-opacity="1" filter="url(#shadow10955535)"></path></g><use xlink:href="#bj0zMDUUz" opacity="1" fill="#c14c14" fill-opacity="1"></use></g><g><g><filter id="shadow14539427" x="225.02" y="141.69" width="63.83" height="41.99" filterUnits="userSpaceOnUse" primitiveUnits="userSpaceOnUse"><feFlood></feFlood><feComposite in2="SourceAlpha" operator="in"></feComposite><feGaussianBlur stdDeviation="1"></feGaussianBlur><feOffset dx="1" dy="1" result="afterOffset"></feOffset><feFlood flood-color="#000000" flood-opacity="0.5"></feFlood><feComposite in2="afterOffset" operator="in"></feComposite><feMorphology operator="dilate" radius="1"></feMorphology><feComposite in2="SourceAlpha" operator="out"></feComposite></filter><path d="M278.85 162.18C278.85 168.53 268.81 173.68 256.44 173.68C244.07 173.68 234.02 168.53 234.02 162.18C234.02 155.84 244.07 150.69 256.44 150.69C268.81 150.69 278.85 155.84 278.85 162.18Z" id="b9zSiAAO77" fill="white" fill-opacity="1" filter="url(#shadow14539427)"></path></g><use xlink:href="#bbZ9V7Uss" opacity="1" fill="#c14c14" fill-opacity="1"></use></g><g><g><filter id="shadow11204947" x="364.56" y="199.62" width="63.83" height="41.99" filterUnits="userSpaceOnUse" primitiveUnits="userSpaceOnUse"><feFlood></feFlood><feComposite in2="SourceAlpha" operator="in"></feComposite><feGaussianBlur stdDeviation="1"></feGaussianBlur><feOffset dx="1" dy="1" result="afterOffset"></feOffset><feFlood flood-color="#000000" flood-opacity="0.5"></feFlood><feComposite in2="afterOffset" operator="in"></feComposite><feMorphology operator="dilate" radius="1"></feMorphology><feComposite in2="SourceAlpha" operator="out"></feComposite></filter><path d="M418.39 220.11C418.39 226.46 408.35 231.61 395.98 231.61C383.61 231.61 373.56 226.46 373.56 220.11C373.56 213.77 383.61 208.62 395.98 208.62C408.35 208.62 418.39 213.77 418.39 220.11Z" id="b1N8amsww8" fill="white" fill-opacity="1" filter="url(#shadow11204947)"></path></g><use xlink:href="#dThf9qReZ" opacity="1" fill="#c14c14" fill-opacity="1"></use></g><g><g><filter id="shadow3167481" x="246.05" y="232.85" width="60.4" height="47.71" filterUnits="userSpaceOnUse" primitiveUnits="userSpaceOnUse"><feFlood></feFlood><feComposite in2="SourceAlpha" operator="in"></feComposite><feGaussianBlur stdDeviation="1"></feGaussianBlur><feOffset dx="1" dy="1" result="afterOffset"></feOffset><feFlood flood-color="#000000" flood-opacity="0.5"></feFlood><feComposite in2="afterOffset" operator="in"></feComposite><feMorphology operator="dilate" radius="1"></feMorphology><feComposite in2="SourceAlpha" operator="out"></feComposite></filter><path d="M295.79 266.23C292.96 271.9 281.67 272.02 270.61 266.49C259.54 260.96 252.86 251.86 255.7 246.18C258.54 240.51 269.82 240.39 280.89 245.93C291.95 251.46 298.63 260.56 295.79 266.23Z" id="f3vNxDSNP" fill="white" fill-opacity="1" filter="url(#shadow3167481)"></path></g><use xlink:href="#cdMFGT1Lz" opacity="1" fill="#c14c14" fill-opacity="1"></use></g><g><g><filter id="shadow14951700" x="342.01" y="126.05" width="48.75" height="61.17" filterUnits="userSpaceOnUse" primitiveUnits="userSpaceOnUse"><feFlood></feFlood><feComposite in2="SourceAlpha" operator="in"></feComposite><feGaussianBlur stdDeviation="1"></feGaussianBlur><feOffset dx="1" dy="1" result="afterOffset"></feOffset><feFlood flood-color="#000000" flood-opacity="0.5"></feFlood><feComposite in2="afterOffset" operator="in"></feComposite><feMorphology operator="dilate" radius="1"></feMorphology><feComposite in2="SourceAlpha" operator="out"></feComposite></filter><path d="M375.16 176.54C368.74 179.46 359.37 172.68 354.25 161.42C349.13 150.16 350.19 138.65 356.61 135.73C363.03 132.81 372.4 139.59 377.51 150.85C382.63 162.11 381.58 173.62 375.16 176.54Z" id="aaTAsqBfM8" fill="white" fill-opacity="1" filter="url(#shadow14951700)"></path></g><use xlink:href="#b8ErpAiU5" opacity="1" fill="#c14c14" fill-opacity="1"></use></g><g><g><filter id="shadow3531250" x="376.29" y="103.3" width="63.83" height="41.99" filterUnits="userSpaceOnUse" primitiveUnits="userSpaceOnUse"><feFlood></feFlood><feComposite in2="SourceAlpha" operator="in"></feComposite><feGaussianBlur stdDeviation="1"></feGaussianBlur><feOffset dx="1" dy="1" result="afterOffset"></feOffset><feFlood flood-color="#000000" flood-opacity="0.5"></feFlood><feComposite in2="afterOffset" operator="in"></feComposite><feMorphology operator="dilate" radius="1"></feMorphology><feComposite in2="SourceAlpha" operator="out"></feComposite></filter><path d="M430.11 123.79C430.11 130.14 420.07 135.29 407.7 135.29C395.33 135.29 385.29 130.14 385.29 123.79C385.29 117.45 395.33 112.3 407.7 112.3C420.07 112.3 430.11 117.45 430.11 123.79Z" id="g1RVynbkcm" fill="white" fill-opacity="1" filter="url(#shadow3531250)"></path></g><use xlink:href="#c26KswxOu" opacity="1" fill="#c14c14" fill-opacity="1"></use></g><g><g><filter id="shadow10009008" x="476.75" y="189.97" width="63.83" height="41.99" filterUnits="userSpaceOnUse" primitiveUnits="userSpaceOnUse"><feFlood></feFlood><feComposite in2="SourceAlpha" operator="in"></feComposite><feGaussianBlur stdDeviation="1"></feGaussianBlur><feOffset dx="1" dy="1" result="afterOffset"></feOffset><feFlood flood-color="#000000" flood-opacity="0.5"></feFlood><feComposite in2="afterOffset" operator="in"></feComposite><feMorphology operator="dilate" radius="1"></feMorphology><feComposite in2="SourceAlpha" operator="out"></feComposite></filter><path d="M530.57 210.46C530.57 216.8 520.53 221.95 508.16 221.95C495.79 221.95 485.75 216.8 485.75 210.46C485.75 204.12 495.79 198.97 508.16 198.97C520.53 198.97 530.57 204.12 530.57 210.46Z" id="o2Kl97E5Dj" fill="white" fill-opacity="1" filter="url(#shadow10009008)"></path></g><use xlink:href="#d1FE3jminO" opacity="1" fill="#c14c14" fill-opacity="1"></use></g><g><g><filter id="shadow11277744" x="301.34" y="73.18" width="63.83" height="41.99" filterUnits="userSpaceOnUse" primitiveUnits="userSpaceOnUse"><feFlood></feFlood><feComposite in2="SourceAlpha" operator="in"></feComposite><feGaussianBlur stdDeviation="1"></feGaussianBlur><feOffset dx="1" dy="1" result="afterOffset"></feOffset><feFlood flood-color="#000000" flood-opacity="0.5"></feFlood><feComposite in2="afterOffset" operator="in"></feComposite><feMorphology operator="dilate" radius="1"></feMorphology><feComposite in2="SourceAlpha" operator="out"></feComposite></filter><path d="M355.17 93.68C355.17 100.02 345.13 105.17 332.76 105.17C320.39 105.17 310.34 100.02 310.34 93.68C310.34 87.33 320.39 82.18 332.76 82.18C345.13 82.18 355.17 87.33 355.17 93.68Z" id="a1F4aMQx2g" fill="white" fill-opacity="1" filter="url(#shadow11277744)"></path></g><use xlink:href="#b4iY8p6CDf" opacity="1" fill="#c14c14" fill-opacity="1"></use></g><g><g><filter id="shadow13382647" x="238.59" y="188.59" width="63.83" height="41.99" filterUnits="userSpaceOnUse" primitiveUnits="userSpaceOnUse"><feFlood></feFlood><feComposite in2="SourceAlpha" operator="in"></feComposite><feGaussianBlur stdDeviation="1"></feGaussianBlur><feOffset dx="1" dy="1" result="afterOffset"></feOffset><feFlood flood-color="#000000" flood-opacity="0.5"></feFlood><feComposite in2="afterOffset" operator="in"></feComposite><feMorphology operator="dilate" radius="1"></feMorphology><feComposite in2="SourceAlpha" operator="out"></feComposite></filter><path d="M292.41 209.08C292.41 215.42 282.37 220.57 270 220.57C257.63 220.57 247.59 215.42 247.59 209.08C247.59 202.74 257.63 197.59 270 197.59C282.37 197.59 292.41 202.74 292.41 209.08Z" id="bD99Inblp" fill="white" fill-opacity="1" filter="url(#shadow13382647)"></path></g><use xlink:href="#a5IfNiuNR" opacity="1" fill="#c14c14" fill-opacity="1"></use></g><g><g><filter id="shadow6909190" x="374.68" y="249.97" width="63.83" height="41.99" filterUnits="userSpaceOnUse" primitiveUnits="userSpaceOnUse"><feFlood></feFlood><feComposite in2="SourceAlpha" operator="in"></feComposite><feGaussianBlur stdDeviation="1"></feGaussianBlur><feOffset dx="1" dy="1" result="afterOffset"></feOffset><feFlood flood-color="#000000" flood-opacity="0.5"></feFlood><feComposite in2="afterOffset" operator="in"></feComposite><feMorphology operator="dilate" radius="1"></feMorphology><feComposite in2="SourceAlpha" operator="out"></feComposite></filter><path d="M428.51 270.46C428.51 276.8 418.46 281.95 406.09 281.95C393.72 281.95 383.68 276.8 383.68 270.46C383.68 264.12 393.72 258.97 406.09 258.97C418.46 258.97 428.51 264.12 428.51 270.46Z" id="bueeRpX2" fill="white" fill-opacity="1" filter="url(#shadow6909190)"></path></g><use xlink:href="#anY19o0a" opacity="1" fill="#c14c14" fill-opacity="1"></use></g><g><g><filter id="shadow11595888" x="235.89" y="76.16" width="51.32" height="61.55" filterUnits="userSpaceOnUse" primitiveUnits="userSpaceOnUse"><feFlood></feFlood><feComposite in2="SourceAlpha" operator="in"></feComposite><feGaussianBlur stdDeviation="1"></feGaussianBlur><feOffset dx="1" dy="1" result="afterOffset"></feOffset><feFlood flood-color="#000000" flood-opacity="0.5"></feFlood><feComposite in2="afterOffset" operator="in"></feComposite><feMorphology operator="dilate" radius="1"></feMorphology><feComposite in2="SourceAlpha" operator="out"></feComposite></filter><path d="M270.32 126.85C263.02 130.17 252.93 123.72 247.81 112.46C242.69 101.2 244.47 89.36 251.77 86.04C259.08 82.72 269.16 89.16 274.28 100.43C279.4 111.69 277.63 123.53 270.32 126.85Z" id="a48Kt8Tas9" fill="white" fill-opacity="1" filter="url(#shadow11595888)"></path></g><use xlink:href="#epbgorQz" opacity="1" fill="#c14c14" fill-opacity="1"></use></g><g><g><filter id="shadow13721014" x="438.02" y="221.48" width="63.12" height="43.34" filterUnits="userSpaceOnUse" primitiveUnits="userSpaceOnUse"><feFlood></feFlood><feComposite in2="SourceAlpha" operator="in"></feComposite><feGaussianBlur stdDeviation="1"></feGaussianBlur><feOffset dx="1" dy="1" result="afterOffset"></feOffset><feFlood flood-color="#000000" flood-opacity="0.5"></feFlood><feComposite in2="afterOffset" operator="in"></feComposite><feMorphology operator="dilate" radius="1"></feMorphology><feComposite in2="SourceAlpha" operator="out"></feComposite></filter><path d="M447.15 247.29C445.84 241.08 454.6 233.96 466.7 231.4C478.8 228.83 489.69 231.79 491.01 238C492.32 244.2 483.56 251.32 471.46 253.89C459.36 256.45 448.47 253.5 447.15 247.29Z" id="bjtvye3qi" fill="white" fill-opacity="1" filter="url(#shadow13721014)"></path></g><use xlink:href="#b1xwHEDDnG" opacity="1" fill="#c14c14" fill-opacity="1"></use></g><g><g><filter id="shadow16248523" x="296.9" y="162.19" width="55.27" height="64.21" filterUnits="userSpaceOnUse" primitiveUnits="userSpaceOnUse"><feFlood></feFlood><feComposite in2="SourceAlpha" operator="in"></feComposite><feGaussianBlur stdDeviation="1"></feGaussianBlur><feOffset dx="1" dy="1" result="afterOffset"></feOffset><feFlood flood-color="#000000" flood-opacity="0.5"></feFlood><feComposite in2="afterOffset" operator="in"></feComposite><feMorphology operator="dilate" radius="1"></feMorphology><feComposite in2="SourceAlpha" operator="out"></feComposite></filter><path d="M337.38 216.04C330.6 218.21 319.12 210 311.75 197.72C304.38 185.43 303.91 173.7 310.69 171.53C317.47 169.36 328.96 177.58 336.32 189.86C343.69 202.14 344.16 213.88 337.38 216.04Z" id="cttIvrowf" fill="white" fill-opacity="1" filter="url(#shadow16248523)"></path></g><use xlink:href="#b9bq2UHSr" opacity="1" fill="#c14c14" fill-opacity="1"></use></g><g><g><filter id="shadow10468499" x="122.85" y="123.76" width="42.43" height="63.6" filterUnits="userSpaceOnUse" primitiveUnits="userSpaceOnUse"><feFlood></feFlood><feComposite in2="SourceAlpha" operator="in"></feComposite><feGaussianBlur stdDeviation="1"></feGaussianBlur><feOffset dx="1" dy="1" result="afterOffset"></feOffset><feFlood flood-color="#000000" flood-opacity="0.5"></feFlood><feComposite in2="afterOffset" operator="in"></feComposite><feMorphology operator="dilate" radius="1"></feMorphology><feComposite in2="SourceAlpha" operator="out"></feComposite></filter><path d="M146.19 177.32C139.89 178.06 133.6 168.69 132.15 156.4C130.7 144.12 134.64 133.54 140.94 132.8C147.24 132.06 153.53 141.43 154.98 153.71C156.43 166 152.49 176.57 146.19 177.32Z" id="bUBgfRvup" fill="white" fill-opacity="1" filter="url(#shadow10468499)"></path></g><use xlink:href="#b2QfzvG8cP" opacity="1" fill="#c14c14" fill-opacity="1"></use></g><g><g><filter id="shadow9927617" x="194.73" y="218.6" width="52.26" height="60.82" filterUnits="userSpaceOnUse" primitiveUnits="userSpaceOnUse"><feFlood></feFlood><feComposite in2="SourceAlpha" operator="in"></feComposite><feGaussianBlur stdDeviation="1"></feGaussianBlur><feOffset dx="1" dy="1" result="afterOffset"></feOffset><feFlood flood-color="#000000" flood-opacity="0.5"></feFlood><feComposite in2="afterOffset" operator="in"></feComposite><feMorphology operator="dilate" radius="1"></feMorphology><feComposite in2="SourceAlpha" operator="out"></feComposite></filter><path d="M209.74 268.25C202.68 264.45 201.69 252.52 207.55 241.63C213.41 230.73 223.9 224.97 230.97 228.77C238.04 232.57 239.02 244.5 233.16 255.39C227.3 266.29 216.81 272.05 209.74 268.25Z" id="a2pMRTiLxM" fill="white" fill-opacity="1" filter="url(#shadow9927617)"></path></g><use xlink:href="#f46tTEEsYd" opacity="1" fill="#c14c14" fill-opacity="1"></use></g><g><g><filter id="shadow11152365" x="491.62" y="114.53" width="46.96" height="60.91" filterUnits="userSpaceOnUse" primitiveUnits="userSpaceOnUse"><feFlood></feFlood><feComposite in2="SourceAlpha" operator="in"></feComposite><feGaussianBlur stdDeviation="1"></feGaussianBlur><feOffset dx="1" dy="1" result="afterOffset"></feOffset><feFlood flood-color="#000000" flood-opacity="0.5"></feFlood><feComposite in2="afterOffset" operator="in"></feComposite><feMorphology operator="dilate" radius="1"></feMorphology><feComposite in2="SourceAlpha" operator="out"></feComposite></filter><path d="M523.87 164.89C518.1 167.51 509.25 160.5 504.13 149.24C499.01 137.98 499.55 126.7 505.32 124.08C511.1 121.45 519.94 128.46 525.06 139.73C530.18 150.99 529.65 162.26 523.87 164.89Z" id="b3ku5xFdQa" fill="white" fill-opacity="1" filter="url(#shadow11152365)"></path></g><use xlink:href="#c3yjg64Ap" opacity="1" fill="#c14c14" fill-opacity="1"></use></g><g><g><filter id="shadow3169347" x="65.64" y="177.06" width="46.96" height="60.91" filterUnits="userSpaceOnUse" primitiveUnits="userSpaceOnUse"><feFlood></feFlood><feComposite in2="SourceAlpha" operator="in"></feComposite><feGaussianBlur stdDeviation="1"></feGaussianBlur><feOffset dx="1" dy="1" result="afterOffset"></feOffset><feFlood flood-color="#000000" flood-opacity="0.5"></feFlood><feComposite in2="afterOffset" operator="in"></feComposite><feMorphology operator="dilate" radius="1"></feMorphology><feComposite in2="SourceAlpha" operator="out"></feComposite></filter><path d="M97.9 227.42C92.12 230.04 83.28 223.03 78.16 211.77C73.04 200.51 73.57 189.23 79.35 186.61C85.12 183.98 93.97 190.99 99.08 202.26C104.2 213.52 103.67 224.79 97.9 227.42Z" id="ekJuyduQg" fill="white" fill-opacity="1" filter="url(#shadow3169347)"></path></g><use xlink:href="#a10zbJoEbs" opacity="1" fill="#c14c14" fill-opacity="1"></use></g><g><g><filter id="shadow7515998" x="544.26" y="144.18" width="46.96" height="60.91" filterUnits="userSpaceOnUse" primitiveUnits="userSpaceOnUse"><feFlood></feFlood><feComposite in2="SourceAlpha" operator="in"></feComposite><feGaussianBlur stdDeviation="1"></feGaussianBlur><feOffset dx="1" dy="1" result="afterOffset"></feOffset><feFlood flood-color="#000000" flood-opacity="0.5"></feFlood><feComposite in2="afterOffset" operator="in"></feComposite><feMorphology operator="dilate" radius="1"></feMorphology><feComposite in2="SourceAlpha" operator="out"></feComposite></filter><path d="M576.52 194.54C570.74 197.17 561.9 190.16 556.78 178.89C551.66 167.63 552.19 156.36 557.97 153.73C563.74 151.11 572.59 158.12 577.71 169.38C582.82 180.64 582.29 191.92 576.52 194.54Z" id="d30d6ijaob" fill="white" fill-opacity="1" filter="url(#shadow7515998)"></path></g><use xlink:href="#dpCgjHoYT" opacity="1" fill="#c14c14" fill-opacity="1"></use></g><g><g><filter id="shadow5589332" x="134.74" y="222.14" width="51.32" height="61.55" filterUnits="userSpaceOnUse" primitiveUnits="userSpaceOnUse"><feFlood></feFlood><feComposite in2="SourceAlpha" operator="in"></feComposite><feGaussianBlur stdDeviation="1"></feGaussianBlur><feOffset dx="1" dy="1" result="afterOffset"></feOffset><feFlood flood-color="#000000" flood-opacity="0.5"></feFlood><feComposite in2="afterOffset" operator="in"></feComposite><feMorphology operator="dilate" radius="1"></feMorphology><feComposite in2="SourceAlpha" operator="out"></feComposite></filter><path d="M169.17 272.82C161.87 276.14 151.78 269.7 146.66 258.43C141.54 247.17 143.32 235.33 150.62 232.01C157.93 228.69 168.01 235.14 173.13 246.4C178.25 257.66 176.48 269.5 169.17 272.82Z" id="c3v9npoWyx" fill="white" fill-opacity="1" filter="url(#shadow5589332)"></path></g><use xlink:href="#a621sFUqNv" opacity="1" fill="#c14c14" fill-opacity="1"></use></g><g><g><filter id="shadow5305697" x="304.16" y="230.65" width="51.32" height="61.55" filterUnits="userSpaceOnUse" primitiveUnits="userSpaceOnUse"><feFlood></feFlood><feComposite in2="SourceAlpha" operator="in"></feComposite><feGaussianBlur stdDeviation="1"></feGaussianBlur><feOffset dx="1" dy="1" result="afterOffset"></feOffset><feFlood flood-color="#000000" flood-opacity="0.5"></feFlood><feComposite in2="afterOffset" operator="in"></feComposite><feMorphology operator="dilate" radius="1"></feMorphology><feComposite in2="SourceAlpha" operator="out"></feComposite></filter><path d="M338.6 281.33C331.29 284.65 321.21 278.2 316.09 266.94C310.97 255.68 312.74 243.84 320.05 240.52C327.35 237.2 337.44 243.65 342.56 254.91C347.68 266.17 345.9 278.01 338.6 281.33Z" id="cqjY1LLHA" fill="white" fill-opacity="1" filter="url(#shadow5305697)"></path></g><use xlink:href="#d3JyU4fKm" opacity="1" fill="#c14c14" fill-opacity="1"></use></g><g><g><filter id="shadow16674020" x="181.79" y="154.1" width="62.49" height="50.05" filterUnits="userSpaceOnUse" primitiveUnits="userSpaceOnUse"><feFlood></feFlood><feComposite in2="SourceAlpha" operator="in"></feComposite><feGaussianBlur stdDeviation="1"></feGaussianBlur><feOffset dx="1" dy="1" result="afterOffset"></feOffset><feFlood flood-color="#000000" flood-opacity="0.5"></feFlood><feComposite in2="afterOffset" operator="in"></feComposite><feMorphology operator="dilate" radius="1"></feMorphology><feComposite in2="SourceAlpha" operator="out"></feComposite></filter><path d="M233.79 185.77C231.23 193.38 219.63 196.35 207.91 192.4C196.18 188.46 188.74 179.08 191.3 171.48C193.86 163.87 205.45 160.9 217.18 164.85C228.9 168.79 236.34 178.17 233.79 185.77Z" id="b2hbI6JgyF" fill="white" fill-opacity="1" filter="url(#shadow16674020)"></path></g><use xlink:href="#b33eMbvdZf" opacity="1" fill="#c14c14" fill-opacity="1"></use></g><g><g><filter id="shadow15834529" x="398.19" y="151.11" width="51.32" height="61.55" filterUnits="userSpaceOnUse" primitiveUnits="userSpaceOnUse"><feFlood></feFlood><feComposite in2="SourceAlpha" operator="in"></feComposite><feGaussianBlur stdDeviation="1"></feGaussianBlur><feOffset dx="1" dy="1" result="afterOffset"></feOffset><feFlood flood-color="#000000" flood-opacity="0.5"></feFlood><feComposite in2="afterOffset" operator="in"></feComposite><feMorphology operator="dilate" radius="1"></feMorphology><feComposite in2="SourceAlpha" operator="out"></feComposite></filter><path d="M432.62 201.79C425.32 205.11 415.23 198.66 410.11 187.4C404.99 176.14 406.77 164.3 414.07 160.98C421.38 157.66 431.46 164.11 436.58 175.37C441.7 186.63 439.93 198.47 432.62 201.79Z" id="b1hSEO6JN6" fill="white" fill-opacity="1" filter="url(#shadow15834529)"></path></g><use xlink:href="#b1j0xKsIpe" opacity="1" fill="#c14c14" fill-opacity="1"></use></g><g><g><filter id="shadow5527689" x="433.13" y="76.85" width="51.32" height="61.55" filterUnits="userSpaceOnUse" primitiveUnits="userSpaceOnUse"><feFlood></feFlood><feComposite in2="SourceAlpha" operator="in"></feComposite><feGaussianBlur stdDeviation="1"></feGaussianBlur><feOffset dx="1" dy="1" result="afterOffset"></feOffset><feFlood flood-color="#000000" flood-opacity="0.5"></feFlood><feComposite in2="afterOffset" operator="in"></feComposite><feMorphology operator="dilate" radius="1"></feMorphology><feComposite in2="SourceAlpha" operator="out"></feComposite></filter><path d="M467.56 127.54C460.26 130.86 450.17 124.41 445.05 113.15C439.93 101.89 441.71 90.05 449.01 86.73C456.32 83.41 466.4 89.85 471.52 101.12C476.64 112.38 474.87 124.22 467.56 127.54Z" id="b1jsPmAt3x" fill="white" fill-opacity="1" filter="url(#shadow5527689)"></path></g><use xlink:href="#a2BljBlK0d" opacity="1" fill="#c14c14" fill-opacity="1"></use></g><g><g><filter id="shadow1313298" x="290.37" y="107.22" width="48.1" height="63.81" filterUnits="userSpaceOnUse" primitiveUnits="userSpaceOnUse"><feFlood></feFlood><feComposite in2="SourceAlpha" operator="in"></feComposite><feGaussianBlur stdDeviation="1"></feGaussianBlur><feOffset dx="1" dy="1" result="afterOffset"></feOffset><feFlood flood-color="#000000" flood-opacity="0.5"></feFlood><feComposite in2="afterOffset" operator="in"></feComposite><feMorphology operator="dilate" radius="1"></feMorphology><feComposite in2="SourceAlpha" operator="out"></feComposite></filter><path d="M313.09 161.02C305.07 160.73 298.93 150.45 299.39 138.09C299.85 125.73 306.73 115.93 314.75 116.23C322.77 116.52 328.91 126.8 328.45 139.16C327.99 151.53 321.11 161.32 313.09 161.02Z" id="e1thfn92TA" fill="white" fill-opacity="1" filter="url(#shadow1313298)"></path></g><use xlink:href="#c11PqRMSsU" opacity="1" fill="#c14c14" fill-opacity="1"></use></g><g><g><filter id="shadow8437686" x="162.91" y="107.85" width="81.84" height="74.86" filterUnits="userSpaceOnUse" primitiveUnits="userSpaceOnUse"><feFlood></feFlood><feComposite in2="SourceAlpha" operator="in"></feComposite><feGaussianBlur stdDeviation="1"></feGaussianBlur><feOffset dx="1" dy="1" result="afterOffset"></feOffset><feFlood flood-color="#000000" flood-opacity="0.5"></feFlood><feComposite in2="afterOffset" operator="in"></feComposite><feMorphology operator="dilate" radius="1"></feMorphology><feComposite in2="SourceAlpha" operator="out"></feComposite></filter><path d="M171.91 172.71L205.91 147.68L234.75 116.85L218.58 122.83L179.74 157.36L171.91 172.71Z" id="e8ZBZ2Zzqt" fill="white" fill-opacity="1" filter="url(#shadow8437686)"></path></g><use xlink:href="#a1fB73mWRL" opacity="1" fill="#40a010" fill-opacity="1"></use></g><g><g><filter id="shadow12762538" x="537.37" y="101.76" width="44.92" height="51.08" filterUnits="userSpaceOnUse" primitiveUnits="userSpaceOnUse"><feFlood></feFlood><feComposite in2="SourceAlpha" operator="in"></feComposite><feGaussianBlur stdDeviation="1"></feGaussianBlur><feOffset dx="0" dy="1" result="afterOffset"></feOffset><feFlood flood-color="#000000" flood-opacity="0.5"></feFlood><feComposite in2="afterOffset" operator="in"></feComposite><feMorphology operator="dilate" radius="1"></feMorphology><feComposite in2="SourceAlpha" operator="out"></feComposite></filter><path d="M559.83 132.06L546.37 121.28L553.5 116.02L560.63 110.76L566.96 126.8L573.29 142.84L559.83 132.06Z" id="a1C9QIS3e9" fill="white" fill-opacity="1" filter="url(#shadow12762538)"></path></g><use xlink:href="#a14QmZFRUc" opacity="1" fill="#40a010" fill-opacity="1"></use></g><g><g><filter id="shadow6744407" x="338.59" y="165.6" width="67.28" height="52.33" filterUnits="userSpaceOnUse" primitiveUnits="userSpaceOnUse"><feFlood></feFlood><feComposite in2="SourceAlpha" operator="in"></feComposite><feGaussianBlur stdDeviation="1"></feGaussianBlur><feOffset dx="1" dy="1" result="afterOffset"></feOffset><feFlood flood-color="#000000" flood-opacity="0.5"></feFlood><feComposite in2="afterOffset" operator="in"></feComposite><feMorphology operator="dilate" radius="1"></feMorphology><feComposite in2="SourceAlpha" operator="out"></feComposite></filter><path d="M359.08 190.69L378.62 186.09L395.86 174.6L388.97 195.29L369.43 203.33L349.89 207.93L347.59 187.24" id="d306AtMUEz" fill="none" stroke="white" filter="url(#shadow6744407)"></path></g><use xlink:href="#b14QsJH83S" opacity="1" fill="#40a010" fill-opacity="1"></use></g><g><g><filter id="shadow3628687" x="485.71" y="85.14" width="62.68" height="31.64" filterUnits="userSpaceOnUse" primitiveUnits="userSpaceOnUse"><feFlood></feFlood><feComposite in2="SourceAlpha" operator="in"></feComposite><feGaussianBlur stdDeviation="1"></feGaussianBlur><feOffset dx="1" dy="1" result="afterOffset"></feOffset><feFlood flood-color="#000000" flood-opacity="0.5"></feFlood><feComposite in2="afterOffset" operator="in"></feComposite><feMorphology operator="dilate" radius="1"></feMorphology><feComposite in2="SourceAlpha" operator="out"></feComposite></filter><path d="M494.71 94.14L538.39 106.78L494.71 106.78L494.71 94.14Z" id="a2QInhPlwD" fill="white" fill-opacity="1" filter="url(#shadow3628687)"></path></g><use xlink:href="#a42TXjr1Va" opacity="1" fill="#40a010" fill-opacity="1"></use></g><g><use xlink:href="#b1Nahe4R6r" opacity="1" fill="#40a010" fill-opacity="1"></use></g><g><g><filter id="shadow9000554" x="364.9" y="63.2" width="60.4" height="47.71" filterUnits="userSpaceOnUse" primitiveUnits="userSpaceOnUse"><feFlood></feFlood><feComposite in2="SourceAlpha" operator="in"></feComposite><feGaussianBlur stdDeviation="1"></feGaussianBlur><feOffset dx="1" dy="1" result="afterOffset"></feOffset><feFlood flood-color="#000000" flood-opacity="0.5"></feFlood><feComposite in2="afterOffset" operator="in"></feComposite><feMorphology operator="dilate" radius="1"></feMorphology><feComposite in2="SourceAlpha" operator="out"></feComposite></filter><path d="M414.65 96.58C411.81 102.25 400.52 102.36 389.46 96.83C378.39 91.3 371.71 82.2 374.55 76.53C377.39 70.85 388.67 70.74 399.74 76.27C410.8 81.8 417.48 90.9 414.65 96.58Z" id="b1DG13mg0Y" fill="white" fill-opacity="1" filter="url(#shadow9000554)"></path></g><use xlink:href="#gfXbq3B1U" opacity="1" fill="#c14c14" fill-opacity="1"></use></g><g><g><filter id="shadow5883303" x="65.94" y="122.84" width="63.83" height="41.99" filterUnits="userSpaceOnUse" primitiveUnits="userSpaceOnUse"><feFlood></feFlood><feComposite in2="SourceAlpha" operator="in"></feComposite><feGaussianBlur stdDeviation="1"></feGaussianBlur><feOffset dx="1" dy="1" result="afterOffset"></feOffset><feFlood flood-color="#000000" flood-opacity="0.5"></feFlood><feComposite in2="afterOffset" operator="in"></feComposite><feMorphology operator="dilate" radius="1"></feMorphology><feComposite in2="SourceAlpha" operator="out"></feComposite></filter><path d="M119.77 143.33C119.77 149.68 109.73 154.83 97.36 154.83C84.99 154.83 74.94 149.68 74.94 143.33C74.94 136.99 84.99 131.84 97.36 131.84C109.73 131.84 119.77 136.99 119.77 143.33Z" id="b1d7Je4au8" fill="white" fill-opacity="1" filter="url(#shadow5883303)"></path></g><use xlink:href="#b17mo0fCUX" opacity="1" fill="#c14c14" fill-opacity="1"></use></g><g><g><filter id="shadow3057991" x="133.3" y="184.45" width="63.83" height="41.99" filterUnits="userSpaceOnUse" primitiveUnits="userSpaceOnUse"><feFlood></feFlood><feComposite in2="SourceAlpha" operator="in"></feComposite><feGaussianBlur stdDeviation="1"></feGaussianBlur><feOffset dx="1" dy="1" result="afterOffset"></feOffset><feFlood flood-color="#000000" flood-opacity="0.5"></feFlood><feComposite in2="afterOffset" operator="in"></feComposite><feMorphology operator="dilate" radius="1"></feMorphology><feComposite in2="SourceAlpha" operator="out"></feComposite></filter><path d="M187.13 204.94C187.13 211.29 177.08 216.44 164.71 216.44C152.34 216.44 142.3 211.29 142.3 204.94C142.3 198.6 152.34 193.45 164.71 193.45C177.08 193.45 187.13 198.6 187.13 204.94Z" id="d1g3xvRYtr" fill="white" fill-opacity="1" filter="url(#shadow3057991)"></path></g><use xlink:href="#h4ddnERnYt" opacity="1" fill="#c14c14" fill-opacity="1"></use></g></g></g></svg>