<?xml version="1.0" encoding="UTF-8" standalone="no"?>
<!DOCTYPE svg PUBLIC "-//W3C//DTD SVG 1.1//EN" "http://www.w3.org/Graphics/SVG/1.1/DTD/svg11.dtd">
<svg version="1.1" xmlns="http://www.w3.org/2000/svg" xmlns:xlink="http://www.w3.org/1999/xlink" preserveAspectRatio="xMidYMid meet" viewBox="0 0 640 640" width="492" height="492"><defs><path d="M424.27 252.63C429.11 252.63 433.03 256.56 433.03 261.4C433.03 281.89 433.03 334.6 433.03 355.09C433.03 359.93 429.11 363.86 424.27 363.86C387.5 363.86 285.96 363.86 249.19 363.86C244.35 363.86 240.43 359.93 240.43 355.09C240.43 334.6 240.43 281.89 240.43 261.4C240.43 256.56 244.35 252.63 249.19 252.63C285.96 252.63 387.5 252.63 424.27 252.63Z" id="h11seTA7Gq"></path><path d="M433.03 262.81C433.03 285.39 389.88 303.72 336.73 303.72C283.58 303.72 240.43 285.39 240.43 262.81C240.43 240.22 283.58 221.89 336.73 221.89C389.88 221.89 433.03 240.22 433.03 262.81Z" id="ag4JabUGG"></path><path d="" id="a3lPZJ6rjF"></path><path d="M432.94 358.12C432.94 379.16 389.79 396.24 336.64 396.24C283.49 396.24 240.33 379.16 240.33 358.12C240.33 337.08 283.49 320 336.64 320C389.79 320 432.94 337.08 432.94 358.12Z" id="cEYgx2x76"></path><path d="" id="d1cLXiFUUM"></path><path d="M432.03 329.04C432.03 358.74 388.88 382.85 335.73 382.85C282.58 382.85 239.43 358.74 239.43 329.04C239.43 299.35 282.58 275.24 335.73 275.24C388.88 275.24 432.03 299.35 432.03 329.04Z" id="a1UpOeZ0HK"></path><path d="M433.03 273.43C433.03 296.89 389.88 315.93 336.73 315.93C283.58 315.93 240.43 296.89 240.43 273.43C240.43 249.97 283.58 230.93 336.73 230.93C389.88 230.93 433.03 249.97 433.03 273.43Z" id="a1aeuQcMA8"></path></defs><g><g><g><use xlink:href="#h11seTA7Gq" opacity="1" fill="#d0d4d4" fill-opacity="1"></use></g><g><g><filter id="shadow13130999" x="231.43" y="212.89" width="211.61" height="100.84" filterUnits="userSpaceOnUse" primitiveUnits="userSpaceOnUse"><feFlood></feFlood><feComposite in2="SourceAlpha" operator="in"></feComposite><feGaussianBlur stdDeviation="1"></feGaussianBlur><feOffset dx="1" dy="1" result="afterOffset"></feOffset><feFlood flood-color="#000000" flood-opacity="0.5"></feFlood><feComposite in2="afterOffset" operator="in"></feComposite><feMorphology operator="dilate" radius="1"></feMorphology><feComposite in2="SourceAlpha" operator="out"></feComposite></filter><path d="M433.03 262.81C433.03 285.39 389.88 303.72 336.73 303.72C283.58 303.72 240.43 285.39 240.43 262.81C240.43 240.22 283.58 221.89 336.73 221.89C389.88 221.89 433.03 240.22 433.03 262.81Z" id="c5YqVehRh1" fill="white" fill-opacity="1" filter="url(#shadow13130999)"></path></g><use xlink:href="#ag4JabUGG" opacity="1" fill="#f5f4f2" fill-opacity="1"></use><g><use xlink:href="#ag4JabUGG" opacity="1" fill-opacity="0" stroke="#b6b4ad" stroke-width="1" stroke-opacity="1"></use></g></g><g><g><use xlink:href="#a3lPZJ6rjF" opacity="1" fill-opacity="0" stroke="#840b36" stroke-width="1" stroke-opacity="1"></use></g></g><g><g><filter id="shadow8398445" x="223.33" y="303" width="226.61" height="119.24" filterUnits="userSpaceOnUse" primitiveUnits="userSpaceOnUse"><feFlood></feFlood><feComposite in2="SourceAlpha" operator="in"></feComposite><feGaussianBlur stdDeviation="1"></feGaussianBlur><feOffset dx="0" dy="9" result="afterOffset"></feOffset><feFlood flood-color="#000000" flood-opacity="0.35"></feFlood><feComposite in2="afterOffset" operator="in"></feComposite><feMorphology operator="dilate" radius="1"></feMorphology><feComposite in2="SourceAlpha" operator="out"></feComposite></filter><path d="M432.94 358.12C432.94 379.16 389.79 396.24 336.64 396.24C283.49 396.24 240.33 379.16 240.33 358.12C240.33 337.08 283.49 320 336.64 320C389.79 320 432.94 337.08 432.94 358.12Z" id="iiVYH5bR8" fill="white" fill-opacity="1" filter="url(#shadow8398445)"></path></g><use xlink:href="#cEYgx2x76" opacity="1" fill="#d0d4d4" fill-opacity="1"></use></g><g><g><use xlink:href="#d1cLXiFUUM" opacity="1" fill-opacity="0" stroke="#840b36" stroke-width="1" stroke-opacity="1"></use></g></g><g><use xlink:href="#a1UpOeZ0HK" opacity="1" fill="#d0d4d4" fill-opacity="0.12"></use></g><g><g><filter id="shadow4862866" x="231.43" y="221.93" width="210.61" height="104" filterUnits="userSpaceOnUse" primitiveUnits="userSpaceOnUse"><feFlood></feFlood><feComposite in2="SourceAlpha" operator="in"></feComposite><feGaussianBlur stdDeviation="1"></feGaussianBlur><feOffset dx="0" dy="1" result="afterOffset"></feOffset><feFlood flood-color="#000000" flood-opacity="0.5"></feFlood><feComposite in2="afterOffset" operator="in"></feComposite><feMorphology operator="dilate" radius="1"></feMorphology><feComposite in2="SourceAlpha" operator="out"></feComposite></filter><path d="M433.03 273.43C433.03 296.89 389.88 315.93 336.73 315.93C283.58 315.93 240.43 296.89 240.43 273.43C240.43 249.97 283.58 230.93 336.73 230.93C389.88 230.93 433.03 249.97 433.03 273.43Z" id="f5gl3kNUcR" fill="white" fill-opacity="1" filter="url(#shadow4862866)"></path></g><use xlink:href="#a1aeuQcMA8" opacity="1" fill="#d0d4d4" fill-opacity="0.12"></use></g></g></g></svg>