<?xml version="1.0" encoding="UTF-8" standalone="no"?>
<!DOCTYPE svg PUBLIC "-//W3C//DTD SVG 1.1//EN" "http://www.w3.org/Graphics/SVG/1.1/DTD/svg11.dtd">
<svg version="1.1" xmlns="http://www.w3.org/2000/svg" xmlns:xlink="http://www.w3.org/1999/xlink" preserveAspectRatio="xMidYMid meet" viewBox="0 0 640 640" width="640" height="640"><defs><path d="M594.13 148.9C609.33 148.9 621.65 161.23 621.65 176.43C621.65 238.7 621.65 398.01 621.65 460.29C621.65 475.49 609.33 487.81 594.13 487.81C478.67 487.81 159.83 487.81 44.37 487.81C29.17 487.81 16.85 475.49 16.85 460.29C16.85 398.01 16.85 238.7 16.85 176.43C16.85 161.23 29.17 148.9 44.37 148.9C159.83 148.9 478.67 148.9 594.13 148.9Z" id="c6Ddf7u08"></path><path d="M621.65 179.9C621.65 248.71 486.15 304.58 319.25 304.58C152.35 304.58 16.85 248.71 16.85 179.9C16.85 111.09 152.35 55.22 319.25 55.22C486.15 55.22 621.65 111.09 621.65 179.9Z" id="b9gICl88Tw"></path><path d="" id="b2fzwsQBvi"></path><path d="M621.36 470.34C621.36 534.45 485.86 586.5 318.96 586.5C152.06 586.5 16.56 534.45 16.56 470.34C16.56 406.23 152.06 354.18 318.96 354.18C485.86 354.18 621.36 406.23 621.36 470.34Z" id="aeGtFaEq3"></path><path d="" id="bDeRKqxZi"></path><path d="M621.65 212.28C621.65 283.75 486.15 341.78 319.25 341.78C152.35 341.78 16.85 283.75 16.85 212.28C16.85 140.8 152.35 82.78 319.25 82.78C486.15 82.78 621.65 140.8 621.65 212.28Z" id="f1mSMpvTsk"></path><path d="M618.51 382.73C618.51 473.21 483.01 546.68 316.11 546.68C149.21 546.68 13.71 473.21 13.71 382.73C13.71 292.25 149.21 218.79 316.11 218.79C483.01 218.79 618.51 292.25 618.51 382.73Z" id="f98h3m8nlV"></path><path d="M169.55 205.01L204.43 184.2L238.6 206.16L224.83 240.54L182.16 239.83L169.55 205.01Z" id="aj3zme66C"></path><path d="M184.64 207.75C184.64 210.51 182.29 212.75 179.39 212.75C176.49 212.75 174.14 210.51 174.14 207.75C174.14 204.99 176.49 202.75 179.39 202.75C182.29 202.75 184.64 204.99 184.64 207.75Z" id="dcEAr2iPi"></path><path d="M209.14 194.75C209.14 197.51 206.79 199.75 203.89 199.75C200.99 199.75 198.64 197.51 198.64 194.75C198.64 191.99 200.99 189.75 203.89 189.75C206.79 189.75 209.14 191.99 209.14 194.75Z" id="b1WAuLEeQm"></path><path d="M223.14 228.25C223.14 231.01 220.79 233.25 217.89 233.25C214.99 233.25 212.64 231.01 212.64 228.25C212.64 225.49 214.99 223.25 217.89 223.25C220.79 223.25 223.14 225.49 223.14 228.25Z" id="b2IvQY5KID"></path><path d="M232.14 206.75C232.14 209.51 229.79 211.75 226.89 211.75C223.99 211.75 221.64 209.51 221.64 206.75C221.64 203.99 223.99 201.75 226.89 201.75C229.79 201.75 232.14 203.99 232.14 206.75Z" id="aqdtWOtSi"></path><path d="M193.14 230.25C193.14 233.01 190.79 235.25 187.89 235.25C184.99 235.25 182.64 233.01 182.64 230.25C182.64 227.49 184.99 225.25 187.89 225.25C190.79 225.25 193.14 227.49 193.14 230.25Z" id="d19BrdHkUw"></path><path d="M90.11 151.8L116.81 121.19L156.1 131.47L153.69 168.42L112.9 180.99L90.11 151.8Z" id="a1xUrRhvXc"></path><path d="M436.33 124.15L460.58 91.58L500.56 98.79L501 135.82L461.3 151.5L436.33 124.15Z" id="b3etCylulQ"></path><path d="M400.08 244.22L426.67 213.53L466.01 223.67L463.71 260.63L422.97 273.34L400.08 244.22Z" id="a1gS6B9086"></path><path d="M359.61 89.84L399.95 85.11L422.16 119.12L395.54 144.87L356.88 126.77L359.61 89.84Z" id="d5EStHDt5F"></path><path d="M230.22 269.71L244.06 231.53L284.41 226.9L295.51 262.24L262.02 288.69L230.22 269.71Z" id="a32UOdEvIl"></path><path d="M494.78 237.75L506.33 198.81L546.34 191.8L559.52 226.41L527.65 254.81L494.78 237.75Z" id="b19EuAybM2"></path><path d="M241.68 172.39L275.79 150.35L310.72 171.08L298.19 205.93L255.52 206.74L241.68 172.39Z" id="a3rPOgvWBI"></path><path d="M175.23 103.25L213.29 89.08L242.93 116.84L223.19 148.18L181.34 139.77L175.23 103.25Z" id="argn2AEXU"></path><path d="M83.71 207.19L121.77 193.02L151.42 220.78L131.67 252.12L89.83 243.71L83.71 207.19Z" id="aP9xAuT9S"></path><path d="M268.86 93.85L306.93 79.68L336.57 107.45L316.82 138.78L274.98 130.38L268.86 93.85Z" id="a15WsV1uA1"></path><path d="M324.62 243.55L362.68 229.38L392.33 257.15L372.58 288.48L330.74 280.08L324.62 243.55Z" id="f2l4m9oP0g"></path><path d="M336.13 184.84L363.16 154.53L402.35 165.24L399.52 202.16L358.59 214.28L336.13 184.84Z" id="b3ZtSRmaM"></path><path d="M365.64 239.25C365.64 242.01 363.29 244.25 360.39 244.25C357.49 244.25 355.14 242.01 355.14 239.25C355.14 236.49 357.49 234.25 360.39 234.25C363.29 234.25 365.64 236.49 365.64 239.25Z" id="e1hN4LqWVj"></path><path d="M339.14 249.25C339.14 252.01 336.79 254.25 333.89 254.25C330.99 254.25 328.64 252.01 328.64 249.25C328.64 246.49 330.99 244.25 333.89 244.25C336.79 244.25 339.14 246.49 339.14 249.25Z" id="d3J6ngHRSb"></path><path d="M259.64 175.25C259.64 178.01 257.29 180.25 254.39 180.25C251.49 180.25 249.14 178.01 249.14 175.25C249.14 172.49 251.49 170.25 254.39 170.25C257.29 170.25 259.64 172.49 259.64 175.25Z" id="h1OrAQd236"></path><path d="M280.14 159.25C280.14 162.01 277.79 164.25 274.89 164.25C271.99 164.25 269.64 162.01 269.64 159.25C269.64 156.49 271.99 154.25 274.89 154.25C277.79 154.25 280.14 156.49 280.14 159.25Z" id="c1KrxW4eV"></path><path d="M266.64 277.75C266.64 280.51 264.29 282.75 261.39 282.75C258.49 282.75 256.14 280.51 256.14 277.75C256.14 274.99 258.49 272.75 261.39 272.75C264.29 272.75 266.64 274.99 266.64 277.75Z" id="b6gk0L5H2"></path><path d="M297.14 198.75C297.14 201.51 294.79 203.75 291.89 203.75C288.99 203.75 286.64 201.51 286.64 198.75C286.64 195.99 288.99 193.75 291.89 193.75C294.79 193.75 297.14 195.99 297.14 198.75Z" id="a15NLDcmxI"></path><path d="M306.64 173.75C306.64 176.51 304.29 178.75 301.39 178.75C298.49 178.75 296.14 176.51 296.14 173.75C296.14 170.99 298.49 168.75 301.39 168.75C304.29 168.75 306.64 170.99 306.64 173.75Z" id="cxjujTYZz"></path><path d="M268.14 198.25C268.14 201.01 265.79 203.25 262.89 203.25C259.99 203.25 257.64 201.01 257.64 198.25C257.64 195.49 259.99 193.25 262.89 193.25C265.79 193.25 268.14 195.49 268.14 198.25Z" id="caPPUfxHjt"></path><path d="M283.64 235.25C283.64 238.01 281.29 240.25 278.39 240.25C275.49 240.25 273.14 238.01 273.14 235.25C273.14 232.49 275.49 230.25 278.39 230.25C281.29 230.25 283.64 232.49 283.64 235.25Z" id="c40fR6vyYp"></path><path d="M245.64 266.25C245.64 269.01 243.29 271.25 240.39 271.25C237.49 271.25 235.14 269.01 235.14 266.25C235.14 263.49 237.49 261.25 240.39 261.25C243.29 261.25 245.64 263.49 245.64 266.25Z" id="g4LOoXkT4k"></path><path d="M255.64 238.25C255.64 241.01 253.29 243.25 250.39 243.25C247.49 243.25 245.14 241.01 245.14 238.25C245.14 235.49 247.49 233.25 250.39 233.25C253.29 233.25 255.64 235.49 255.64 238.25Z" id="hQUXS8A2z"></path><path d="M291.14 260.25C291.14 263.01 288.79 265.25 285.89 265.25C282.99 265.25 280.64 263.01 280.64 260.25C280.64 257.49 282.99 255.25 285.89 255.25C288.79 255.25 291.14 257.49 291.14 260.25Z" id="eb1SvvCG"></path><path d="M147.14 221.75C147.14 224.51 144.79 226.75 141.89 226.75C138.99 226.75 136.64 224.51 136.64 221.75C136.64 218.99 138.99 216.75 141.89 216.75C144.79 216.75 147.14 218.99 147.14 221.75Z" id="e1Q9MCy1wp"></path><path d="M125.14 202.25C125.14 205.01 122.79 207.25 119.89 207.25C116.99 207.25 114.64 205.01 114.64 202.25C114.64 199.49 116.99 197.25 119.89 197.25C122.79 197.25 125.14 199.49 125.14 202.25Z" id="ebvftPflyC"></path><path d="M102.14 235.75C102.14 238.51 99.79 240.75 96.89 240.75C93.99 240.75 91.64 238.51 91.64 235.75C91.64 232.99 93.99 230.75 96.89 230.75C99.79 230.75 102.14 232.99 102.14 235.75Z" id="c2f4yk0fe2"></path><path d="M121.14 172.75C121.14 175.51 118.79 177.75 115.89 177.75C112.99 177.75 110.64 175.51 110.64 172.75C110.64 169.99 112.99 167.75 115.89 167.75C118.79 167.75 121.14 169.99 121.14 172.75Z" id="frKBXCGak"></path><path d="M132.64 243.75C132.64 246.51 130.29 248.75 127.39 248.75C124.49 248.75 122.14 246.51 122.14 243.75C122.14 240.99 124.49 238.75 127.39 238.75C130.29 238.75 132.64 240.99 132.64 243.75Z" id="g3BuB9niDW"></path><path d="M151.14 163.75C151.14 166.51 148.79 168.75 145.89 168.75C142.99 168.75 140.64 166.51 140.64 163.75C140.64 160.99 142.99 158.75 145.89 158.75C148.79 158.75 151.14 160.99 151.14 163.75Z" id="b8jco3NEo"></path><path d="M344.14 273.75C344.14 276.51 341.79 278.75 338.89 278.75C335.99 278.75 333.64 276.51 333.64 273.75C333.64 270.99 335.99 268.75 338.89 268.75C341.79 268.75 344.14 270.99 344.14 273.75Z" id="aTXawLsku"></path><path d="M124.64 131.25C124.64 134.01 122.29 136.25 119.39 136.25C116.49 136.25 114.14 134.01 114.14 131.25C114.14 128.49 116.49 126.25 119.39 126.25C122.29 126.25 124.64 128.49 124.64 131.25Z" id="b5fZtE3OFe"></path><path d="M151.64 137.25C151.64 140.01 149.29 142.25 146.39 142.25C143.49 142.25 141.14 140.01 141.14 137.25C141.14 134.49 143.49 132.25 146.39 132.25C149.29 132.25 151.64 134.49 151.64 137.25Z" id="c1KCJtMxL1"></path><path d="M351.14 185.25C351.14 188.01 348.79 190.25 345.89 190.25C342.99 190.25 340.64 188.01 340.64 185.25C340.64 182.49 342.99 180.25 345.89 180.25C348.79 180.25 351.14 182.49 351.14 185.25Z" id="bV75Bl4TC"></path><path d="M373.14 278.75C373.14 281.51 370.79 283.75 367.89 283.75C364.99 283.75 362.64 281.51 362.64 278.75C362.64 275.99 364.99 273.75 367.89 273.75C370.79 273.75 373.14 275.99 373.14 278.75Z" id="d4NwLjwZT"></path><path d="M106.14 153.25C106.14 156.01 103.79 158.25 100.89 158.25C97.99 158.25 95.64 156.01 95.64 153.25C95.64 150.49 97.99 148.25 100.89 148.25C103.79 148.25 106.14 150.49 106.14 153.25Z" id="dvPzHeKfT"></path><path d="M98.64 212.25C98.64 215.01 96.29 217.25 93.39 217.25C90.49 217.25 88.14 215.01 88.14 212.25C88.14 209.49 90.49 207.25 93.39 207.25C96.29 207.25 98.64 209.49 98.64 212.25Z" id="aeXfshfbj"></path><path d="M190.14 108.25C190.14 111.01 187.79 113.25 184.89 113.25C181.99 113.25 179.64 111.01 179.64 108.25C179.64 105.49 181.99 103.25 184.89 103.25C187.79 103.25 190.14 105.49 190.14 108.25Z" id="a32WpKY8Hs"></path><path d="M215.64 99.75C215.64 102.51 213.29 104.75 210.39 104.75C207.49 104.75 205.14 102.51 205.14 99.75C205.14 96.99 207.49 94.75 210.39 94.75C213.29 94.75 215.64 96.99 215.64 99.75Z" id="b1lvVn5MEM"></path><path d="M237.64 118.75C237.64 121.51 235.29 123.75 232.39 123.75C229.49 123.75 227.14 121.51 227.14 118.75C227.14 115.99 229.49 113.75 232.39 113.75C235.29 113.75 237.64 115.99 237.64 118.75Z" id="aUCniXu5B"></path><path d="M224.14 139.25C224.14 142.01 221.79 144.25 218.89 144.25C215.99 144.25 213.64 142.01 213.64 139.25C213.64 136.49 215.99 134.25 218.89 134.25C221.79 134.25 224.14 136.49 224.14 139.25Z" id="hMrMia4l4"></path><path d="M194.64 133.25C194.64 136.01 192.29 138.25 189.39 138.25C186.49 138.25 184.14 136.01 184.14 133.25C184.14 130.49 186.49 128.25 189.39 128.25C192.29 128.25 194.64 130.49 194.64 133.25Z" id="g4kQDcFMDb"></path><path d="M315.63 128.75C315.63 131.51 313.27 133.75 310.38 133.75C307.48 133.75 305.13 131.51 305.13 128.75C305.13 125.99 307.48 123.75 310.38 123.75C313.27 123.75 315.63 125.99 315.63 128.75Z" id="b1fawT2Zkf"></path><path d="M385.64 259.75C385.64 262.51 383.29 264.75 380.39 264.75C377.49 264.75 375.14 262.51 375.14 259.75C375.14 256.99 377.49 254.75 380.39 254.75C383.29 254.75 385.64 256.99 385.64 259.75Z" id="aaZa958Wt"></path><path d="M434.69 222.75C434.69 225.51 432.34 227.75 429.44 227.75C426.54 227.75 424.19 225.51 424.19 222.75C424.19 219.99 426.54 217.75 429.44 217.75C432.34 217.75 434.69 219.99 434.69 222.75Z" id="ccP8u6zzN"></path><path d="M366.14 205.75C366.14 208.51 363.79 210.75 360.89 210.75C357.99 210.75 355.64 208.51 355.64 205.75C355.64 202.99 357.99 200.75 360.89 200.75C363.79 200.75 366.14 202.99 366.14 205.75Z" id="am2eBGnSf"></path><path d="M414.8 243.45C414.8 246.21 412.45 248.45 409.55 248.45C406.66 248.45 404.3 246.21 404.3 243.45C404.3 240.69 406.66 238.45 409.55 238.45C412.45 238.45 414.8 240.69 414.8 243.45Z" id="g1Qxjitdc4"></path><path d="M512.14 231.25C512.14 234.01 509.79 236.25 506.89 236.25C503.99 236.25 501.64 234.01 501.64 231.25C501.64 228.49 503.99 226.25 506.89 226.25C509.79 226.25 512.14 228.49 512.14 231.25Z" id="a9E2j74X2"></path><path d="M462.69 253.15C462.69 255.91 460.34 258.15 457.44 258.15C454.55 258.15 452.19 255.91 452.19 253.15C452.19 250.39 454.55 248.15 457.44 248.15C460.34 248.15 462.69 250.39 462.69 253.15Z" id="j4h3L9kDe"></path><path d="M463.65 229.8C463.65 232.56 461.3 234.8 458.4 234.8C455.5 234.8 453.15 232.56 453.15 229.8C453.15 227.04 455.5 224.8 458.4 224.8C461.3 224.8 463.65 227.04 463.65 229.8Z" id="aLPasq4kU"></path><path d="M555.14 224.25C555.14 227.01 552.79 229.25 549.89 229.25C546.99 229.25 544.64 227.01 544.64 224.25C544.64 221.49 546.99 219.25 549.89 219.25C552.79 219.25 555.14 221.49 555.14 224.25Z" id="d1sf8jtVf4"></path><path d="M530.14 243.75C530.14 246.51 527.79 248.75 524.89 248.75C521.99 248.75 519.64 246.51 519.64 243.75C519.64 240.99 521.99 238.75 524.89 238.75C527.79 238.75 530.14 240.99 530.14 243.75Z" id="f5YGHmlxHg"></path><path d="M518.14 205.25C518.14 208.01 515.79 210.25 512.89 210.25C509.99 210.25 507.64 208.01 507.64 205.25C507.64 202.49 509.99 200.25 512.89 200.25C515.79 200.25 518.14 202.49 518.14 205.25Z" id="a2LD9EB3JH"></path><path d="M431.75 260.62C431.75 263.38 429.4 265.62 426.5 265.62C423.6 265.62 421.25 263.38 421.25 260.62C421.25 257.86 423.6 255.62 426.5 255.62C429.4 255.62 431.75 257.86 431.75 260.62Z" id="b3VUOvriZM"></path><path d="M456.14 125.25C456.14 128.01 453.79 130.25 450.89 130.25C447.99 130.25 445.64 128.01 445.64 125.25C445.64 122.49 447.99 120.25 450.89 120.25C453.79 120.25 456.14 122.49 456.14 125.25Z" id="a5m6JGmRbv"></path><path d="M469.14 142.75C469.14 145.51 466.79 147.75 463.89 147.75C460.99 147.75 458.64 145.51 458.64 142.75C458.64 139.99 460.99 137.75 463.89 137.75C466.79 137.75 469.14 139.99 469.14 142.75Z" id="c10yDmAoVg"></path><path d="M545.64 199.25C545.64 202.01 543.29 204.25 540.39 204.25C537.49 204.25 535.14 202.01 535.14 199.25C535.14 196.49 537.49 194.25 540.39 194.25C543.29 194.25 545.64 196.49 545.64 199.25Z" id="f12E7C2LKY"></path><path d="M499.64 130.75C499.64 133.51 497.29 135.75 494.39 135.75C491.49 135.75 489.14 133.51 489.14 130.75C489.14 127.99 491.49 125.75 494.39 125.75C497.29 125.75 499.64 127.99 499.64 130.75Z" id="ceJ5diJDm"></path><path d="M398.14 169.75C398.14 172.51 395.79 174.75 392.89 174.75C389.99 174.75 387.64 172.51 387.64 169.75C387.64 166.99 389.99 164.75 392.89 164.75C395.79 164.75 398.14 166.99 398.14 169.75Z" id="a1lBYIiIBw"></path><path d="M498.64 104.25C498.64 107.01 496.29 109.25 493.39 109.25C490.49 109.25 488.14 107.01 488.14 104.25C488.14 101.49 490.49 99.25 493.39 99.25C496.29 99.25 498.64 101.49 498.64 104.25Z" id="bbyjriibD"></path><path d="M398.14 196.75C398.14 199.51 395.79 201.75 392.89 201.75C389.99 201.75 387.64 199.51 387.64 196.75C387.64 193.99 389.99 191.75 392.89 191.75C395.79 191.75 398.14 193.99 398.14 196.75Z" id="b18awlpZ3x"></path><path d="M470.64 102.25C470.64 105.01 468.29 107.25 465.39 107.25C462.49 107.25 460.14 105.01 460.14 102.25C460.14 99.49 462.49 97.25 465.39 97.25C468.29 97.25 470.64 99.49 470.64 102.25Z" id="bnAbR0tzy"></path><path d="M371.64 164.25C371.64 167.01 369.29 169.25 366.39 169.25C363.49 169.25 361.14 167.01 361.14 164.25C361.14 161.49 363.49 159.25 366.39 159.25C369.29 159.25 371.64 161.49 371.64 164.25Z" id="b43u5bkqsf"></path><path d="M398.14 134.75C398.14 137.51 395.79 139.75 392.89 139.75C389.99 139.75 387.64 137.51 387.64 134.75C387.64 131.99 389.99 129.75 392.89 129.75C395.79 129.75 398.14 131.99 398.14 134.75Z" id="cUCFgizyN"></path><path d="M417.64 117.75C417.64 120.51 415.29 122.75 412.39 122.75C409.49 122.75 407.14 120.51 407.14 117.75C407.14 114.99 409.49 112.75 412.39 112.75C415.29 112.75 417.64 114.99 417.64 117.75Z" id="g5DuiBZTF"></path><path d="M372.14 121.75C372.14 124.51 369.79 126.75 366.89 126.75C363.99 126.75 361.64 124.51 361.64 121.75C361.64 118.99 363.99 116.75 366.89 116.75C369.79 116.75 372.14 118.99 372.14 121.75Z" id="a5r2g6mDw"></path><path d="M399.78 90.37C401.3 92.68 400.56 95.85 398.13 97.43C395.71 99.02 392.51 98.44 391 96.13C389.49 93.82 390.23 90.65 392.65 89.07C395.08 87.48 398.27 88.06 399.78 90.37Z" id="b5tWOGsYzx"></path><path d="M372.64 99.25C372.64 102.01 370.29 104.25 367.39 104.25C364.49 104.25 362.14 102.01 362.14 99.25C362.14 96.49 364.49 94.25 367.39 94.25C370.29 94.25 372.64 96.49 372.64 99.25Z" id="e2f27xgZB2"></path><path d="M290.14 123.25C290.14 126.01 287.79 128.25 284.89 128.25C281.99 128.25 279.64 126.01 279.64 123.25C279.64 120.49 281.99 118.25 284.89 118.25C287.79 118.25 290.14 120.49 290.14 123.25Z" id="b45QAFqyl"></path><path d="M332.14 109.25C332.14 112.01 329.79 114.25 326.89 114.25C323.99 114.25 321.64 112.01 321.64 109.25C321.64 106.49 323.99 104.25 326.89 104.25C329.79 104.25 332.14 106.49 332.14 109.25Z" id="b1kZ5wCDkx"></path><path d="M285.14 99.25C285.14 102.01 282.79 104.25 279.89 104.25C276.99 104.25 274.64 102.01 274.64 99.25C274.64 96.49 276.99 94.25 279.89 94.25C282.79 94.25 285.14 96.49 285.14 99.25Z" id="avhcde5Ql"></path><path d="M309.64 89.25C309.64 92.01 307.29 94.25 304.39 94.25C301.49 94.25 299.14 92.01 299.14 89.25C299.14 86.49 301.49 84.25 304.39 84.25C307.29 84.25 309.64 86.49 309.64 89.25Z" id="fhX9mOJh4"></path><path d="M521.19 177.04L493.19 206.46L454.38 194.5L458.39 157.68L499.68 146.89L521.19 177.04Z" id="dJmLdDSz"></path><path d="M470.14 187.75C470.14 190.51 467.79 192.75 464.89 192.75C461.99 192.75 459.64 190.51 459.64 187.75C459.64 184.99 461.99 182.75 464.89 182.75C467.79 182.75 470.14 184.99 470.14 187.75Z" id="iLcLfUMqo"></path><path d="M497.14 193.75C497.14 196.51 494.79 198.75 491.89 198.75C488.99 198.75 486.64 196.51 486.64 193.75C486.64 190.99 488.99 188.75 491.89 188.75C494.79 188.75 497.14 190.99 497.14 193.75Z" id="cYGFkThdj"></path><path d="M500.14 157.75C500.14 160.51 497.79 162.75 494.89 162.75C491.99 162.75 489.64 160.51 489.64 157.75C489.64 154.99 491.99 152.75 494.89 152.75C497.79 152.75 500.14 154.99 500.14 157.75Z" id="anImXBPF"></path><path d="M513.14 174.75C513.14 177.51 510.79 179.75 507.89 179.75C504.99 179.75 502.64 177.51 502.64 174.75C502.64 171.99 504.99 169.75 507.89 169.75C510.79 169.75 513.14 171.99 513.14 174.75Z" id="c2BZj3OIz"></path><path d="M472.14 163.75C472.14 166.51 469.79 168.75 466.89 168.75C463.99 168.75 461.64 166.51 461.64 163.75C461.64 160.99 463.99 158.75 466.89 158.75C469.79 158.75 472.14 160.99 472.14 163.75Z" id="hednVhaqY"></path><path d="M530.72 127.42L571.33 127.47L589.39 163.85L559.92 186.29L523.67 163.78L530.72 127.42Z" id="bI8KwtHHN"></path><path d="M95.68 183.55L67.68 212.98L28.86 201.02L32.87 164.2L74.16 153.4L95.68 183.55Z" id="jUwMQ5EWz"></path><path d="M543.14 134.25C543.14 131.49 540.79 129.25 537.89 129.25C534.99 129.25 532.64 131.49 532.64 134.25C532.64 137.01 534.99 139.25 537.89 139.25C540.79 139.25 543.14 137.01 543.14 134.25Z" id="b4INH9A1e"></path><path d="M584.64 161.75C584.64 158.99 582.29 156.75 579.39 156.75C576.49 156.75 574.14 158.99 574.14 161.75C574.14 164.51 576.49 166.75 579.39 166.75C582.29 166.75 584.64 164.51 584.64 161.75Z" id="eadHMnx5"></path><path d="M538.14 160.75C538.14 157.99 535.79 155.75 532.89 155.75C529.99 155.75 527.64 157.99 527.64 160.75C527.64 163.51 529.99 165.75 532.89 165.75C535.79 165.75 538.14 163.51 538.14 160.75Z" id="c1vwP0TBam"></path><path d="M563.64 176.25C563.64 173.49 561.29 171.25 558.39 171.25C555.49 171.25 553.14 173.49 553.14 176.25C553.14 179.01 555.49 181.25 558.39 181.25C561.29 181.25 563.64 179.01 563.64 176.25Z" id="aYsvtlxHi"></path><path d="M571.14 136.25C571.14 133.49 568.79 131.25 565.89 131.25C562.99 131.25 560.64 133.49 560.64 136.25C560.64 139.01 562.99 141.25 565.89 141.25C568.79 141.25 571.14 139.01 571.14 136.25Z" id="cDwdsdsw0"></path><path d="M35.64 172.25C35.64 175.01 37.99 177.25 40.89 177.25C43.79 177.25 46.14 175.01 46.14 172.25C46.14 169.49 43.79 167.25 40.89 167.25C37.99 167.25 35.64 169.49 35.64 172.25Z" id="jIxkgTB9M"></path><path d="M34.64 195.25C34.64 198.01 36.99 200.25 39.89 200.25C42.79 200.25 45.14 198.01 45.14 195.25C45.14 192.49 42.79 190.25 39.89 190.25C36.99 190.25 34.64 192.49 34.64 195.25Z" id="a46lB2KqL"></path><path d="M80.64 186.25C80.64 189.01 82.99 191.25 85.89 191.25C88.79 191.25 91.14 189.01 91.14 186.25C91.14 183.49 88.79 181.25 85.89 181.25C82.99 181.25 80.64 183.49 80.64 186.25Z" id="d3MSys8JN8"></path><path d="M59.64 203.25C59.64 206.01 61.99 208.25 64.89 208.25C67.79 208.25 70.14 206.01 70.14 203.25C70.14 200.49 67.79 198.25 64.89 198.25C61.99 198.25 59.64 200.49 59.64 203.25Z" id="c1xDAYfJV"></path><path d="M63.64 163.25C63.64 166.01 65.99 168.25 68.89 168.25C71.79 168.25 74.14 166.01 74.14 163.25C74.14 160.49 71.79 158.25 68.89 158.25C65.99 158.25 63.64 160.49 63.64 163.25Z" id="b1jLmfX0hD"></path><path d="M299.06 232.63L301.88 203.4L329.78 194.22L344.2 217.79L325.22 241.52L299.06 232.63Z" id="a2A3fNls4g"></path><path d="M211.75 267.8L187.53 288.55L157.52 277.75L163.19 250.33L196.71 244.18L211.75 267.8Z" id="dCjw1Jw4n"></path><path d="M401.64 170.16L420.77 143.85L452.77 149.52L453.43 179.34L421.83 192.09L401.64 170.16Z" id="d8rAtH9Gn"></path><path d="M157.87 160.72L182.4 144.17L207.49 159.7L198.46 185.84L167.8 186.47L157.87 160.72Z" id="c2Get3S0Te"></path><path d="M322.89 175.86L353.96 166.28L358.95 134.15L330.96 123.87L308.68 149.65L322.89 175.86Z" id="f2K3dX9kB1"></path><path d="M198.14 252.75C198.14 255.51 195.79 257.75 192.89 257.75C189.99 257.75 187.64 255.51 187.64 252.75C187.64 249.99 189.99 247.75 192.89 247.75C195.79 247.75 198.14 249.99 198.14 252.75Z" id="itcCxgR53"></path><path d="M190.64 279.75C190.64 282.51 188.29 284.75 185.39 284.75C182.49 284.75 180.14 282.51 180.14 279.75C180.14 276.99 182.49 274.75 185.39 274.75C188.29 274.75 190.64 276.99 190.64 279.75Z" id="dHSkr8T2"></path><path d="M207.64 265.75C207.64 268.51 205.29 270.75 202.39 270.75C199.49 270.75 197.14 268.51 197.14 265.75C197.14 262.99 199.49 260.75 202.39 260.75C205.29 260.75 207.64 262.99 207.64 265.75Z" id="i1RipXhtu2"></path><path d="M430.64 152.75C430.64 155.51 428.29 157.75 425.39 157.75C422.49 157.75 420.14 155.51 420.14 152.75C420.14 149.99 422.49 147.75 425.39 147.75C428.29 147.75 430.64 149.99 430.64 152.75Z" id="d1ndP1MaOU"></path><path d="M417.14 169.25C417.14 172.01 414.79 174.25 411.89 174.25C408.99 174.25 406.64 172.01 406.64 169.25C406.64 166.49 408.99 164.25 411.89 164.25C414.79 164.25 417.14 166.49 417.14 169.25Z" id="ckD7QLQOE"></path><path d="M428.64 181.25C428.64 184.01 426.29 186.25 423.39 186.25C420.49 186.25 418.14 184.01 418.14 181.25C418.14 178.49 420.49 176.25 423.39 176.25C426.29 176.25 428.64 178.49 428.64 181.25Z" id="cF1Pm7mho"></path><path d="M172.14 273.75C172.14 276.51 169.79 278.75 166.89 278.75C163.99 278.75 161.64 276.51 161.64 273.75C161.64 270.99 163.99 268.75 166.89 268.75C169.79 268.75 172.14 270.99 172.14 273.75Z" id="brsOmTmZl"></path><path d="M352.64 161.75C352.64 163.68 350.85 165.25 348.64 165.25C346.43 165.25 344.64 163.68 344.64 161.75C344.64 159.82 346.43 158.25 348.64 158.25C350.85 158.25 352.64 159.82 352.64 161.75Z" id="a3wNs9XuvC"></path><path d="M176.14 257.75C176.14 260.51 173.79 262.75 170.89 262.75C167.99 262.75 165.64 260.51 165.64 257.75C165.64 254.99 167.99 252.75 170.89 252.75C173.79 252.75 176.14 254.99 176.14 257.75Z" id="a2iVN71RNi"></path><path d="M448.64 155.25C448.64 158.01 446.29 160.25 443.39 160.25C440.49 160.25 438.14 158.01 438.14 155.25C438.14 152.49 440.49 150.25 443.39 150.25C446.29 150.25 448.64 152.49 448.64 155.25Z" id="buxEVV71u"></path><path d="M449.64 173.25C449.64 176.01 447.29 178.25 444.39 178.25C441.49 178.25 439.14 176.01 439.14 173.25C439.14 170.49 441.49 168.25 444.39 168.25C447.29 168.25 449.64 170.49 449.64 173.25Z" id="aJnamPdIX"></path><path d="M203.64 162.75C203.64 164.68 201.85 166.25 199.64 166.25C197.43 166.25 195.64 164.68 195.64 162.75C195.64 160.82 197.43 159.25 199.64 159.25C201.85 159.25 203.64 160.82 203.64 162.75Z" id="ccACHG1Ho"></path><path d="M168.64 162.75C168.64 160.82 166.85 159.25 164.64 159.25C162.43 159.25 160.64 160.82 160.64 162.75C160.64 164.68 162.43 166.25 164.64 166.25C166.85 166.25 168.64 164.68 168.64 162.75Z" id="c2m1bAkga5"></path><path d="M197.64 180.25C197.64 178.32 195.85 176.75 193.64 176.75C191.43 176.75 189.64 178.32 189.64 180.25C189.64 182.18 191.43 183.75 193.64 183.75C195.85 183.75 197.64 182.18 197.64 180.25Z" id="d1ExNyHzLG"></path><path d="M176.14 180.25C176.14 178.32 174.35 176.75 172.14 176.75C169.93 176.75 168.14 178.32 168.14 180.25C168.14 182.18 169.93 183.75 172.14 183.75C174.35 183.75 176.14 182.18 176.14 180.25Z" id="hj1Bc5iBA"></path><path d="M186.64 151.75C186.64 149.82 184.85 148.25 182.64 148.25C180.43 148.25 178.64 149.82 178.64 151.75C178.64 153.68 180.43 155.25 182.64 155.25C184.85 155.25 186.64 153.68 186.64 151.75Z" id="dMk23AM59"></path><path d="M356.14 138.75C356.14 136.82 354.35 135.25 352.14 135.25C349.93 135.25 348.14 136.82 348.14 138.75C348.14 140.68 349.93 142.25 352.14 142.25C354.35 142.25 356.14 140.68 356.14 138.75Z" id="a3o8dSVaaw"></path><path d="M320.64 150.25C320.64 152.18 318.85 153.75 316.64 153.75C314.43 153.75 312.64 152.18 312.64 150.25C312.64 148.32 314.43 146.75 316.64 146.75C318.85 146.75 320.64 148.32 320.64 150.25Z" id="ejmaokalu"></path><path d="M330.64 168.25C330.64 166.32 328.85 164.75 326.64 164.75C324.43 164.75 322.64 166.32 322.64 168.25C322.64 170.18 324.43 171.75 326.64 171.75C328.85 171.75 330.64 170.18 330.64 168.25Z" id="cyQzjIS8"></path><path d="M337.14 131.75C337.14 133.68 335.35 135.25 333.14 135.25C330.93 135.25 329.14 133.68 329.14 131.75C329.14 129.82 330.93 128.25 333.14 128.25C335.35 128.25 337.14 129.82 337.14 131.75Z" id="b4M57dPbAA"></path><path d="M312.64 207.75C312.64 209.68 310.85 211.25 308.64 211.25C306.43 211.25 304.64 209.68 304.64 207.75C304.64 205.82 306.43 204.25 308.64 204.25C310.85 204.25 312.64 205.82 312.64 207.75Z" id="a1PCM0Fqbb"></path><path d="M330.64 201.75C330.64 203.68 328.85 205.25 326.64 205.25C324.43 205.25 322.64 203.68 322.64 201.75C322.64 199.82 324.43 198.25 326.64 198.25C328.85 198.25 330.64 199.82 330.64 201.75Z" id="cFNKGcXJ8"></path><path d="M326.64 234.25C326.64 236.18 324.85 237.75 322.64 237.75C320.43 237.75 318.64 236.18 318.64 234.25C318.64 232.32 320.43 230.75 322.64 230.75C324.85 230.75 326.64 232.32 326.64 234.25Z" id="gcl1gS2n1"></path><path d="M341.14 216.75C341.14 218.68 339.35 220.25 337.14 220.25C334.93 220.25 333.14 218.68 333.14 216.75C333.14 214.82 334.93 213.25 337.14 213.25C339.35 213.25 341.14 214.82 341.14 216.75Z" id="bsFNMqDG6"></path><path d="M310.14 228.25C310.14 230.18 308.35 231.75 306.14 231.75C303.93 231.75 302.14 230.18 302.14 228.25C302.14 226.32 303.93 224.75 306.14 224.75C308.35 224.75 310.14 226.32 310.14 228.25Z" id="atJLe6Sb4"></path></defs><g><g><g><use xlink:href="#c6Ddf7u08" opacity="1" fill="#d0d4d4" fill-opacity="1"></use></g><g><g><filter id="shadow15935732" x="0.85" y="39.22" width="637.8" height="289.36" filterUnits="userSpaceOnUse" primitiveUnits="userSpaceOnUse"><feFlood></feFlood><feComposite in2="SourceAlpha" operator="in"></feComposite><feGaussianBlur stdDeviation="1"></feGaussianBlur><feOffset dx="1" dy="8" result="afterOffset"></feOffset><feFlood flood-color="#000000" flood-opacity="0.75"></feFlood><feComposite in2="afterOffset" operator="in"></feComposite><feMorphology operator="dilate" radius="1"></feMorphology><feComposite in2="SourceAlpha" operator="out"></feComposite></filter><path d="M621.65 179.9C621.65 248.71 486.15 304.58 319.25 304.58C152.35 304.58 16.85 248.71 16.85 179.9C16.85 111.09 152.35 55.22 319.25 55.22C486.15 55.22 621.65 111.09 621.65 179.9Z" id="a13H9zc3Pe" fill="white" fill-opacity="1" filter="url(#shadow15935732)"></path></g><g><filter id="shadow8440910" x="4.85" y="43.22" width="628.8" height="277.36" filterUnits="userSpaceOnUse" primitiveUnits="userSpaceOnUse"><feFlood></feFlood><feComposite in2="SourceAlpha" operator="in"></feComposite><feGaussianBlur stdDeviation="1"></feGaussianBlur><feOffset dx="0" dy="-4" result="afterOffset"></feOffset><feFlood flood-color="#000000" flood-opacity="0.75"></feFlood><feComposite in2="afterOffset" operator="in"></feComposite><feMorphology operator="dilate" radius="1"></feMorphology><feComposite in2="SourceAlpha" operator="out"></feComposite></filter><path d="M621.65 179.9C621.65 248.71 486.15 304.58 319.25 304.58C152.35 304.58 16.85 248.71 16.85 179.9C16.85 111.09 152.35 55.22 319.25 55.22C486.15 55.22 621.65 111.09 621.65 179.9Z" id="d7mDKvBwq9" fill="white" fill-opacity="1" filter="url(#shadow8440910)"></path></g><use xlink:href="#b9gICl88Tw" opacity="1" fill="#f5f4f2" fill-opacity="1"></use><g><use xlink:href="#b9gICl88Tw" opacity="1" fill-opacity="0" stroke="#b6b4ad" stroke-width="1" stroke-opacity="1"></use></g></g><g><g><use xlink:href="#b2fzwsQBvi" opacity="1" fill-opacity="0" stroke="#840b36" stroke-width="1" stroke-opacity="1"></use></g></g><g><g><filter id="shadow4587019" x="-0.44" y="337.18" width="638.8" height="275.33" filterUnits="userSpaceOnUse" primitiveUnits="userSpaceOnUse"><feFlood></feFlood><feComposite in2="SourceAlpha" operator="in"></feComposite><feGaussianBlur stdDeviation="1"></feGaussianBlur><feOffset dx="0" dy="9" result="afterOffset"></feOffset><feFlood flood-color="#000000" flood-opacity="0.75"></feFlood><feComposite in2="afterOffset" operator="in"></feComposite><feMorphology operator="dilate" radius="1"></feMorphology><feComposite in2="SourceAlpha" operator="out"></feComposite></filter><path d="M621.36 470.34C621.36 534.45 485.86 586.5 318.96 586.5C152.06 586.5 16.56 534.45 16.56 470.34C16.56 406.23 152.06 354.18 318.96 354.18C485.86 354.18 621.36 406.23 621.36 470.34Z" id="d1pu6IpNPi" fill="white" fill-opacity="1" filter="url(#shadow4587019)"></path></g><use xlink:href="#aeGtFaEq3" opacity="1" fill="#d0d4d4" fill-opacity="1"></use></g><g><g><use xlink:href="#bDeRKqxZi" opacity="1" fill-opacity="0" stroke="#840b36" stroke-width="1" stroke-opacity="1"></use></g></g><g><g><filter id="shadow14712865" x="0.85" y="66.78" width="636.8" height="299" filterUnits="userSpaceOnUse" primitiveUnits="userSpaceOnUse"><feFlood></feFlood><feComposite in2="SourceAlpha" operator="in"></feComposite><feGaussianBlur stdDeviation="1"></feGaussianBlur><feOffset dx="0" dy="8" result="afterOffset"></feOffset><feFlood flood-color="#000000" flood-opacity="0.75"></feFlood><feComposite in2="afterOffset" operator="in"></feComposite><feMorphology operator="dilate" radius="1"></feMorphology><feComposite in2="SourceAlpha" operator="out"></feComposite></filter><path d="M621.65 212.28C621.65 283.75 486.15 341.78 319.25 341.78C152.35 341.78 16.85 283.75 16.85 212.28C16.85 140.8 152.35 82.78 319.25 82.78C486.15 82.78 621.65 140.8 621.65 212.28Z" id="a4CdBZReP" fill="white" fill-opacity="1" filter="url(#shadow14712865)"></path></g></g><g></g><g><g><filter id="shadow597219" x="160.55" y="175.2" width="88.05" height="75.34" filterUnits="userSpaceOnUse" primitiveUnits="userSpaceOnUse"><feFlood></feFlood><feComposite in2="SourceAlpha" operator="in"></feComposite><feGaussianBlur stdDeviation="1"></feGaussianBlur><feOffset dx="1" dy="1" result="afterOffset"></feOffset><feFlood flood-color="#000000" flood-opacity="0.5"></feFlood><feComposite in2="afterOffset" operator="in"></feComposite><feMorphology operator="dilate" radius="1"></feMorphology><feComposite in2="SourceAlpha" operator="out"></feComposite></filter><path d="M169.55 205.01L204.43 184.2L238.6 206.16L224.83 240.54L182.16 239.83L169.55 205.01Z" id="arK0xRwDq" fill="white" fill-opacity="1" filter="url(#shadow597219)"></path></g><use xlink:href="#aj3zme66C" opacity="1" fill="#235413" fill-opacity="1"></use></g><g><use xlink:href="#dcEAr2iPi" opacity="1" fill="#e5c28f" fill-opacity="0.99"></use></g><g><use xlink:href="#b1WAuLEeQm" opacity="1" fill="#e5c28f" fill-opacity="0.99"></use></g><g><use xlink:href="#b2IvQY5KID" opacity="1" fill="#e5c28f" fill-opacity="0.99"></use></g><g><use xlink:href="#aqdtWOtSi" opacity="1" fill="#e5c28f" fill-opacity="0.99"></use></g><g><use xlink:href="#d19BrdHkUw" opacity="1" fill="#e5c28f" fill-opacity="0.99"></use></g><g><g><filter id="shadow4402066" x="81.11" y="112.19" width="85" height="78.8" filterUnits="userSpaceOnUse" primitiveUnits="userSpaceOnUse"><feFlood></feFlood><feComposite in2="SourceAlpha" operator="in"></feComposite><feGaussianBlur stdDeviation="1"></feGaussianBlur><feOffset dx="1" dy="1" result="afterOffset"></feOffset><feFlood flood-color="#000000" flood-opacity="0.5"></feFlood><feComposite in2="afterOffset" operator="in"></feComposite><feMorphology operator="dilate" radius="1"></feMorphology><feComposite in2="SourceAlpha" operator="out"></feComposite></filter><path d="M90.11 151.8L116.81 121.19L156.1 131.47L153.69 168.42L112.9 180.99L90.11 151.8Z" id="fcuj0xnzg" fill="white" fill-opacity="1" filter="url(#shadow4402066)"></path></g><use xlink:href="#a1xUrRhvXc" opacity="1" fill="#235413" fill-opacity="1"></use></g><g><g><filter id="shadow13863323" x="427.33" y="82.58" width="83.68" height="78.92" filterUnits="userSpaceOnUse" primitiveUnits="userSpaceOnUse"><feFlood></feFlood><feComposite in2="SourceAlpha" operator="in"></feComposite><feGaussianBlur stdDeviation="1"></feGaussianBlur><feOffset dx="1" dy="1" result="afterOffset"></feOffset><feFlood flood-color="#000000" flood-opacity="0.5"></feFlood><feComposite in2="afterOffset" operator="in"></feComposite><feMorphology operator="dilate" radius="1"></feMorphology><feComposite in2="SourceAlpha" operator="out"></feComposite></filter><path d="M436.33 124.15L460.58 91.58L500.56 98.79L501 135.82L461.3 151.5L436.33 124.15Z" id="cSrvTvIye" fill="white" fill-opacity="1" filter="url(#shadow13863323)"></path></g><use xlink:href="#b3etCylulQ" opacity="1" fill="#235413" fill-opacity="1"></use></g><g><g><filter id="shadow15197350" x="391.08" y="204.53" width="84.93" height="78.81" filterUnits="userSpaceOnUse" primitiveUnits="userSpaceOnUse"><feFlood></feFlood><feComposite in2="SourceAlpha" operator="in"></feComposite><feGaussianBlur stdDeviation="1"></feGaussianBlur><feOffset dx="1" dy="1" result="afterOffset"></feOffset><feFlood flood-color="#000000" flood-opacity="0.5"></feFlood><feComposite in2="afterOffset" operator="in"></feComposite><feMorphology operator="dilate" radius="1"></feMorphology><feComposite in2="SourceAlpha" operator="out"></feComposite></filter><path d="M400.08 244.22L426.67 213.53L466.01 223.67L463.71 260.63L422.97 273.34L400.08 244.22Z" id="a1Gt9shDs" fill="white" fill-opacity="1" filter="url(#shadow15197350)"></path></g><use xlink:href="#a1gS6B9086" opacity="1" fill="#235413" fill-opacity="1"></use></g><g><g><filter id="shadow9100826" x="347.88" y="76.11" width="84.27" height="78.76" filterUnits="userSpaceOnUse" primitiveUnits="userSpaceOnUse"><feFlood></feFlood><feComposite in2="SourceAlpha" operator="in"></feComposite><feGaussianBlur stdDeviation="1"></feGaussianBlur><feOffset dx="1" dy="1" result="afterOffset"></feOffset><feFlood flood-color="#000000" flood-opacity="0.5"></feFlood><feComposite in2="afterOffset" operator="in"></feComposite><feMorphology operator="dilate" radius="1"></feMorphology><feComposite in2="SourceAlpha" operator="out"></feComposite></filter><path d="M359.61 89.84L399.95 85.11L422.16 119.12L395.54 144.87L356.88 126.77L359.61 89.84Z" id="apwCZIKsK" fill="white" fill-opacity="1" filter="url(#shadow9100826)"></path></g><use xlink:href="#d5EStHDt5F" opacity="1" fill="#235413" fill-opacity="1"></use></g><g><g><filter id="shadow7292554" x="221.22" y="217.9" width="84.29" height="80.79" filterUnits="userSpaceOnUse" primitiveUnits="userSpaceOnUse"><feFlood></feFlood><feComposite in2="SourceAlpha" operator="in"></feComposite><feGaussianBlur stdDeviation="1"></feGaussianBlur><feOffset dx="1" dy="1" result="afterOffset"></feOffset><feFlood flood-color="#000000" flood-opacity="0.5"></feFlood><feComposite in2="afterOffset" operator="in"></feComposite><feMorphology operator="dilate" radius="1"></feMorphology><feComposite in2="SourceAlpha" operator="out"></feComposite></filter><path d="M230.22 269.71L244.06 231.53L284.41 226.9L295.51 262.24L262.02 288.69L230.22 269.71Z" id="aMjFlVCJo" fill="white" fill-opacity="1" filter="url(#shadow7292554)"></path></g><use xlink:href="#a32UOdEvIl" opacity="1" fill="#235413" fill-opacity="1"></use></g><g><g><filter id="shadow8657687" x="485.78" y="182.8" width="83.73" height="82.01" filterUnits="userSpaceOnUse" primitiveUnits="userSpaceOnUse"><feFlood></feFlood><feComposite in2="SourceAlpha" operator="in"></feComposite><feGaussianBlur stdDeviation="1"></feGaussianBlur><feOffset dx="1" dy="1" result="afterOffset"></feOffset><feFlood flood-color="#000000" flood-opacity="0.5"></feFlood><feComposite in2="afterOffset" operator="in"></feComposite><feMorphology operator="dilate" radius="1"></feMorphology><feComposite in2="SourceAlpha" operator="out"></feComposite></filter><path d="M494.78 237.75L506.33 198.81L546.34 191.8L559.52 226.41L527.65 254.81L494.78 237.75Z" id="e1GwOZzlX" fill="white" fill-opacity="1" filter="url(#shadow8657687)"></path></g><use xlink:href="#b19EuAybM2" opacity="1" fill="#235413" fill-opacity="1"></use></g><g><g><filter id="shadow4208324" x="232.68" y="141.35" width="88.05" height="75.39" filterUnits="userSpaceOnUse" primitiveUnits="userSpaceOnUse"><feFlood></feFlood><feComposite in2="SourceAlpha" operator="in"></feComposite><feGaussianBlur stdDeviation="1"></feGaussianBlur><feOffset dx="1" dy="1" result="afterOffset"></feOffset><feFlood flood-color="#000000" flood-opacity="0.5"></feFlood><feComposite in2="afterOffset" operator="in"></feComposite><feMorphology operator="dilate" radius="1"></feMorphology><feComposite in2="SourceAlpha" operator="out"></feComposite></filter><path d="M241.68 172.39L275.79 150.35L310.72 171.08L298.19 205.93L255.52 206.74L241.68 172.39Z" id="a2enFVDI8E" fill="white" fill-opacity="1" filter="url(#shadow4208324)"></path></g><use xlink:href="#a3rPOgvWBI" opacity="1" fill="#235413" fill-opacity="1"></use></g><g><g><filter id="shadow3668784" x="166.23" y="80.08" width="86.71" height="78.1" filterUnits="userSpaceOnUse" primitiveUnits="userSpaceOnUse"><feFlood></feFlood><feComposite in2="SourceAlpha" operator="in"></feComposite><feGaussianBlur stdDeviation="1"></feGaussianBlur><feOffset dx="1" dy="1" result="afterOffset"></feOffset><feFlood flood-color="#000000" flood-opacity="0.5"></feFlood><feComposite in2="afterOffset" operator="in"></feComposite><feMorphology operator="dilate" radius="1"></feMorphology><feComposite in2="SourceAlpha" operator="out"></feComposite></filter><path d="M175.23 103.25L213.29 89.08L242.93 116.84L223.19 148.18L181.34 139.77L175.23 103.25Z" id="aq3bT98wE" fill="white" fill-opacity="1" filter="url(#shadow3668784)"></path></g><use xlink:href="#argn2AEXU" opacity="1" fill="#235413" fill-opacity="1"></use></g><g><g><filter id="shadow15496654" x="74.71" y="184.02" width="86.71" height="78.1" filterUnits="userSpaceOnUse" primitiveUnits="userSpaceOnUse"><feFlood></feFlood><feComposite in2="SourceAlpha" operator="in"></feComposite><feGaussianBlur stdDeviation="1"></feGaussianBlur><feOffset dx="1" dy="1" result="afterOffset"></feOffset><feFlood flood-color="#000000" flood-opacity="0.5"></feFlood><feComposite in2="afterOffset" operator="in"></feComposite><feMorphology operator="dilate" radius="1"></feMorphology><feComposite in2="SourceAlpha" operator="out"></feComposite></filter><path d="M83.71 207.19L121.77 193.02L151.42 220.78L131.67 252.12L89.83 243.71L83.71 207.19Z" id="g2wUDbA5Lw" fill="white" fill-opacity="1" filter="url(#shadow15496654)"></path></g><use xlink:href="#aP9xAuT9S" opacity="1" fill="#235413" fill-opacity="1"></use></g><g><g><filter id="shadow9808070" x="259.86" y="70.68" width="86.71" height="78.1" filterUnits="userSpaceOnUse" primitiveUnits="userSpaceOnUse"><feFlood></feFlood><feComposite in2="SourceAlpha" operator="in"></feComposite><feGaussianBlur stdDeviation="1"></feGaussianBlur><feOffset dx="1" dy="1" result="afterOffset"></feOffset><feFlood flood-color="#000000" flood-opacity="0.5"></feFlood><feComposite in2="afterOffset" operator="in"></feComposite><feMorphology operator="dilate" radius="1"></feMorphology><feComposite in2="SourceAlpha" operator="out"></feComposite></filter><path d="M268.86 93.85L306.93 79.68L336.57 107.45L316.82 138.78L274.98 130.38L268.86 93.85Z" id="e1jpEljB03" fill="white" fill-opacity="1" filter="url(#shadow9808070)"></path></g><use xlink:href="#a15WsV1uA1" opacity="1" fill="#235413" fill-opacity="1"></use></g><g><g><filter id="shadow5934296" x="315.62" y="220.38" width="86.71" height="78.1" filterUnits="userSpaceOnUse" primitiveUnits="userSpaceOnUse"><feFlood></feFlood><feComposite in2="SourceAlpha" operator="in"></feComposite><feGaussianBlur stdDeviation="1"></feGaussianBlur><feOffset dx="1" dy="1" result="afterOffset"></feOffset><feFlood flood-color="#000000" flood-opacity="0.5"></feFlood><feComposite in2="afterOffset" operator="in"></feComposite><feMorphology operator="dilate" radius="1"></feMorphology><feComposite in2="SourceAlpha" operator="out"></feComposite></filter><path d="M324.62 243.55L362.68 229.38L392.33 257.15L372.58 288.48L330.74 280.08L324.62 243.55Z" id="fQe8GDZc" fill="white" fill-opacity="1" filter="url(#shadow5934296)"></path></g><use xlink:href="#f2l4m9oP0g" opacity="1" fill="#235413" fill-opacity="1"></use></g><g><g><filter id="shadow7879729" x="327.13" y="145.53" width="85.22" height="78.75" filterUnits="userSpaceOnUse" primitiveUnits="userSpaceOnUse"><feFlood></feFlood><feComposite in2="SourceAlpha" operator="in"></feComposite><feGaussianBlur stdDeviation="1"></feGaussianBlur><feOffset dx="1" dy="1" result="afterOffset"></feOffset><feFlood flood-color="#000000" flood-opacity="0.5"></feFlood><feComposite in2="afterOffset" operator="in"></feComposite><feMorphology operator="dilate" radius="1"></feMorphology><feComposite in2="SourceAlpha" operator="out"></feComposite></filter><path d="M336.13 184.84L363.16 154.53L402.35 165.24L399.52 202.16L358.59 214.28L336.13 184.84Z" id="bkcWF8FY7" fill="white" fill-opacity="1" filter="url(#shadow7879729)"></path></g><use xlink:href="#b3ZtSRmaM" opacity="1" fill="#235413" fill-opacity="1"></use></g><g><use xlink:href="#e1hN4LqWVj" opacity="1" fill="#e5c28f" fill-opacity="0.99"></use></g><g><use xlink:href="#d3J6ngHRSb" opacity="1" fill="#e5c28f" fill-opacity="0.99"></use></g><g><use xlink:href="#h1OrAQd236" opacity="1" fill="#e5c28f" fill-opacity="0.99"></use></g><g><use xlink:href="#c1KrxW4eV" opacity="1" fill="#e5c28f" fill-opacity="0.99"></use></g><g><use xlink:href="#b6gk0L5H2" opacity="1" fill="#e5c28f" fill-opacity="0.99"></use></g><g><use xlink:href="#a15NLDcmxI" opacity="1" fill="#e5c28f" fill-opacity="0.99"></use></g><g><use xlink:href="#cxjujTYZz" opacity="1" fill="#e5c28f" fill-opacity="0.99"></use></g><g><use xlink:href="#caPPUfxHjt" opacity="1" fill="#e5c28f" fill-opacity="0.99"></use></g><g><use xlink:href="#c40fR6vyYp" opacity="1" fill="#e5c28f" fill-opacity="0.99"></use></g><g><use xlink:href="#g4LOoXkT4k" opacity="1" fill="#e5c28f" fill-opacity="0.99"></use></g><g><use xlink:href="#hQUXS8A2z" opacity="1" fill="#e5c28f" fill-opacity="0.99"></use></g><g><use xlink:href="#eb1SvvCG" opacity="1" fill="#e5c28f" fill-opacity="0.99"></use></g><g><use xlink:href="#e1Q9MCy1wp" opacity="1" fill="#e5c28f" fill-opacity="0.99"></use></g><g><use xlink:href="#ebvftPflyC" opacity="1" fill="#e5c28f" fill-opacity="0.99"></use></g><g><use xlink:href="#c2f4yk0fe2" opacity="1" fill="#e5c28f" fill-opacity="0.99"></use></g><g><use xlink:href="#frKBXCGak" opacity="1" fill="#e5c28f" fill-opacity="0.99"></use></g><g><use xlink:href="#g3BuB9niDW" opacity="1" fill="#e5c28f" fill-opacity="0.99"></use></g><g><use xlink:href="#b8jco3NEo" opacity="1" fill="#e5c28f" fill-opacity="0.99"></use></g><g><use xlink:href="#aTXawLsku" opacity="1" fill="#e5c28f" fill-opacity="0.99"></use></g><g><use xlink:href="#b5fZtE3OFe" opacity="1" fill="#e5c28f" fill-opacity="0.99"></use></g><g><use xlink:href="#c1KCJtMxL1" opacity="1" fill="#e5c28f" fill-opacity="0.99"></use></g><g><use xlink:href="#bV75Bl4TC" opacity="1" fill="#e5c28f" fill-opacity="0.99"></use></g><g><use xlink:href="#d4NwLjwZT" opacity="1" fill="#e5c28f" fill-opacity="0.99"></use></g><g><use xlink:href="#dvPzHeKfT" opacity="1" fill="#e5c28f" fill-opacity="0.99"></use></g><g><use xlink:href="#aeXfshfbj" opacity="1" fill="#e5c28f" fill-opacity="0.99"></use></g><g><use xlink:href="#a32WpKY8Hs" opacity="1" fill="#e5c28f" fill-opacity="0.99"></use></g><g><use xlink:href="#b1lvVn5MEM" opacity="1" fill="#e5c28f" fill-opacity="0.99"></use></g><g><use xlink:href="#aUCniXu5B" opacity="1" fill="#e5c28f" fill-opacity="0.99"></use></g><g><use xlink:href="#hMrMia4l4" opacity="1" fill="#e5c28f" fill-opacity="0.99"></use></g><g><use xlink:href="#g4kQDcFMDb" opacity="1" fill="#e5c28f" fill-opacity="0.99"></use></g><g><g><filter id="shadow11612899" x="296.13" y="114.75" width="29.5" height="29" filterUnits="userSpaceOnUse" primitiveUnits="userSpaceOnUse"><feFlood></feFlood><feComposite in2="SourceAlpha" operator="in"></feComposite><feGaussianBlur stdDeviation="1"></feGaussianBlur><feOffset dx="1" dy="1" result="afterOffset"></feOffset><feFlood flood-color="#000000" flood-opacity="0.5"></feFlood><feComposite in2="afterOffset" operator="in"></feComposite><feMorphology operator="dilate" radius="1"></feMorphology><feComposite in2="SourceAlpha" operator="out"></feComposite></filter><path d="M315.63 128.75C315.63 131.51 313.27 133.75 310.38 133.75C307.48 133.75 305.13 131.51 305.13 128.75C305.13 125.99 307.48 123.75 310.38 123.75C313.27 123.75 315.63 125.99 315.63 128.75Z" id="b3YgGHUMLQ" fill="white" fill-opacity="1" filter="url(#shadow11612899)"></path></g><use xlink:href="#b1fawT2Zkf" opacity="1" fill="#e5c28f" fill-opacity="0.99"></use></g><g><use xlink:href="#aaZa958Wt" opacity="1" fill="#e5c28f" fill-opacity="0.99"></use></g><g><use xlink:href="#ccP8u6zzN" opacity="1" fill="#e5c28f" fill-opacity="0.99"></use></g><g><use xlink:href="#am2eBGnSf" opacity="1" fill="#e5c28f" fill-opacity="0.99"></use></g><g><use xlink:href="#g1Qxjitdc4" opacity="1" fill="#e5c28f" fill-opacity="0.99"></use></g><g><use xlink:href="#a9E2j74X2" opacity="1" fill="#e5c28f" fill-opacity="0.99"></use></g><g><use xlink:href="#j4h3L9kDe" opacity="1" fill="#e5c28f" fill-opacity="0.99"></use></g><g><use xlink:href="#aLPasq4kU" opacity="1" fill="#e5c28f" fill-opacity="0.99"></use></g><g><use xlink:href="#d1sf8jtVf4" opacity="1" fill="#e5c28f" fill-opacity="0.99"></use></g><g><use xlink:href="#f5YGHmlxHg" opacity="1" fill="#e5c28f" fill-opacity="0.99"></use></g><g><use xlink:href="#a2LD9EB3JH" opacity="1" fill="#e5c28f" fill-opacity="0.99"></use></g><g><use xlink:href="#b3VUOvriZM" opacity="1" fill="#e5c28f" fill-opacity="0.99"></use></g><g><use xlink:href="#a5m6JGmRbv" opacity="1" fill="#e5c28f" fill-opacity="0.99"></use></g><g><use xlink:href="#c10yDmAoVg" opacity="1" fill="#e5c28f" fill-opacity="0.99"></use></g><g><use xlink:href="#f12E7C2LKY" opacity="1" fill="#e5c28f" fill-opacity="0.99"></use></g><g><use xlink:href="#ceJ5diJDm" opacity="1" fill="#e5c28f" fill-opacity="0.99"></use></g><g><use xlink:href="#a1lBYIiIBw" opacity="1" fill="#e5c28f" fill-opacity="0.99"></use></g><g><use xlink:href="#bbyjriibD" opacity="1" fill="#e5c28f" fill-opacity="0.99"></use></g><g><use xlink:href="#b18awlpZ3x" opacity="1" fill="#e5c28f" fill-opacity="0.99"></use></g><g><use xlink:href="#bnAbR0tzy" opacity="1" fill="#e5c28f" fill-opacity="0.99"></use></g><g><use xlink:href="#b43u5bkqsf" opacity="1" fill="#e5c28f" fill-opacity="0.99"></use></g><g><use xlink:href="#cUCFgizyN" opacity="1" fill="#e5c28f" fill-opacity="0.99"></use></g><g><use xlink:href="#g5DuiBZTF" opacity="1" fill="#e5c28f" fill-opacity="0.99"></use></g><g><use xlink:href="#a5r2g6mDw" opacity="1" fill="#e5c28f" fill-opacity="0.99"></use></g><g><use xlink:href="#b5tWOGsYzx" opacity="1" fill="#e5c28f" fill-opacity="0.99"></use></g><g><use xlink:href="#e2f27xgZB2" opacity="1" fill="#e5c28f" fill-opacity="0.99"></use></g><g><use xlink:href="#b45QAFqyl" opacity="1" fill="#e5c28f" fill-opacity="0.99"></use></g><g><use xlink:href="#b1kZ5wCDkx" opacity="1" fill="#e5c28f" fill-opacity="0.99"></use></g><g><use xlink:href="#avhcde5Ql" opacity="1" fill="#e5c28f" fill-opacity="0.99"></use></g><g><use xlink:href="#fhX9mOJh4" opacity="1" fill="#e5c28f" fill-opacity="0.99"></use></g><g><g><filter id="shadow6034731" x="445.38" y="137.89" width="85.81" height="78.57" filterUnits="userSpaceOnUse" primitiveUnits="userSpaceOnUse"><feFlood></feFlood><feComposite in2="SourceAlpha" operator="in"></feComposite><feGaussianBlur stdDeviation="1"></feGaussianBlur><feOffset dx="1" dy="1" result="afterOffset"></feOffset><feFlood flood-color="#000000" flood-opacity="0.5"></feFlood><feComposite in2="afterOffset" operator="in"></feComposite><feMorphology operator="dilate" radius="1"></feMorphology><feComposite in2="SourceAlpha" operator="out"></feComposite></filter><path d="M521.19 177.04L493.19 206.46L454.38 194.5L458.39 157.68L499.68 146.89L521.19 177.04Z" id="f1KpCRyUOW" fill="white" fill-opacity="1" filter="url(#shadow6034731)"></path></g><use xlink:href="#dJmLdDSz" opacity="1" fill="#235413" fill-opacity="1"></use></g><g><use xlink:href="#iLcLfUMqo" opacity="1" fill="#e5c28f" fill-opacity="0.99"></use></g><g><use xlink:href="#cYGFkThdj" opacity="1" fill="#e5c28f" fill-opacity="0.99"></use></g><g><use xlink:href="#anImXBPF" opacity="1" fill="#e5c28f" fill-opacity="0.99"></use></g><g><use xlink:href="#c2BZj3OIz" opacity="1" fill="#e5c28f" fill-opacity="0.99"></use></g><g><use xlink:href="#hednVhaqY" opacity="1" fill="#e5c28f" fill-opacity="0.99"></use></g><g><g><filter id="shadow7255688" x="514.67" y="118.42" width="84.72" height="77.87" filterUnits="userSpaceOnUse" primitiveUnits="userSpaceOnUse"><feFlood></feFlood><feComposite in2="SourceAlpha" operator="in"></feComposite><feGaussianBlur stdDeviation="1"></feGaussianBlur><feOffset dx="1" dy="1" result="afterOffset"></feOffset><feFlood flood-color="#000000" flood-opacity="0.5"></feFlood><feComposite in2="afterOffset" operator="in"></feComposite><feMorphology operator="dilate" radius="1"></feMorphology><feComposite in2="SourceAlpha" operator="out"></feComposite></filter><path d="M530.72 127.42L571.33 127.47L589.39 163.85L559.92 186.29L523.67 163.78L530.72 127.42Z" id="gVWSkqRhq" fill="white" fill-opacity="1" filter="url(#shadow7255688)"></path></g><use xlink:href="#bI8KwtHHN" opacity="1" fill="#235413" fill-opacity="1"></use></g><g><g><filter id="shadow8709395" x="19.86" y="144.4" width="85.81" height="78.57" filterUnits="userSpaceOnUse" primitiveUnits="userSpaceOnUse"><feFlood></feFlood><feComposite in2="SourceAlpha" operator="in"></feComposite><feGaussianBlur stdDeviation="1"></feGaussianBlur><feOffset dx="1" dy="1" result="afterOffset"></feOffset><feFlood flood-color="#000000" flood-opacity="0.5"></feFlood><feComposite in2="afterOffset" operator="in"></feComposite><feMorphology operator="dilate" radius="1"></feMorphology><feComposite in2="SourceAlpha" operator="out"></feComposite></filter><path d="M95.68 183.55L67.68 212.98L28.86 201.02L32.87 164.2L74.16 153.4L95.68 183.55Z" id="bKY872aKD" fill="white" fill-opacity="1" filter="url(#shadow8709395)"></path></g><use xlink:href="#jUwMQ5EWz" opacity="1" fill="#235413" fill-opacity="1"></use></g><g><use xlink:href="#b4INH9A1e" opacity="1" fill="#e5c28f" fill-opacity="0.99"></use></g><g><use xlink:href="#eadHMnx5" opacity="1" fill="#e5c28f" fill-opacity="0.99"></use></g><g><use xlink:href="#c1vwP0TBam" opacity="1" fill="#e5c28f" fill-opacity="0.99"></use></g><g><use xlink:href="#aYsvtlxHi" opacity="1" fill="#e5c28f" fill-opacity="0.99"></use></g><g><use xlink:href="#cDwdsdsw0" opacity="1" fill="#e5c28f" fill-opacity="0.99"></use></g><g><use xlink:href="#jIxkgTB9M" opacity="1" fill="#e5c28f" fill-opacity="0.99"></use></g><g><use xlink:href="#a46lB2KqL" opacity="1" fill="#e5c28f" fill-opacity="0.99"></use></g><g><use xlink:href="#d3MSys8JN8" opacity="1" fill="#e5c28f" fill-opacity="0.99"></use></g><g><use xlink:href="#c1xDAYfJV" opacity="1" fill="#e5c28f" fill-opacity="0.99"></use></g><g><use xlink:href="#b1jLmfX0hD" opacity="1" fill="#e5c28f" fill-opacity="0.99"></use></g><g><g><filter id="shadow13109237" x="290.06" y="185.22" width="64.14" height="66.3" filterUnits="userSpaceOnUse" primitiveUnits="userSpaceOnUse"><feFlood></feFlood><feComposite in2="SourceAlpha" operator="in"></feComposite><feGaussianBlur stdDeviation="1"></feGaussianBlur><feOffset dx="1" dy="1" result="afterOffset"></feOffset><feFlood flood-color="#000000" flood-opacity="0.5"></feFlood><feComposite in2="afterOffset" operator="in"></feComposite><feMorphology operator="dilate" radius="1"></feMorphology><feComposite in2="SourceAlpha" operator="out"></feComposite></filter><path d="M299.06 232.63L301.88 203.4L329.78 194.22L344.2 217.79L325.22 241.52L299.06 232.63Z" id="cvYzCpOFg" fill="white" fill-opacity="1" filter="url(#shadow13109237)"></path></g><use xlink:href="#a2A3fNls4g" opacity="1" fill="#235413" fill-opacity="1"></use></g><g><g><filter id="shadow9223110" x="148.52" y="235.18" width="73.23" height="63.37" filterUnits="userSpaceOnUse" primitiveUnits="userSpaceOnUse"><feFlood></feFlood><feComposite in2="SourceAlpha" operator="in"></feComposite><feGaussianBlur stdDeviation="1"></feGaussianBlur><feOffset dx="1" dy="1" result="afterOffset"></feOffset><feFlood flood-color="#000000" flood-opacity="0.5"></feFlood><feComposite in2="afterOffset" operator="in"></feComposite><feMorphology operator="dilate" radius="1"></feMorphology><feComposite in2="SourceAlpha" operator="out"></feComposite></filter><path d="M211.75 267.8L187.53 288.55L157.52 277.75L163.19 250.33L196.71 244.18L211.75 267.8Z" id="b2ADkx78S" fill="white" fill-opacity="1" filter="url(#shadow9223110)"></path></g><use xlink:href="#dCjw1Jw4n" opacity="1" fill="#235413" fill-opacity="1"></use></g><g><g><filter id="shadow193713" x="392.64" y="134.85" width="70.79" height="67.24" filterUnits="userSpaceOnUse" primitiveUnits="userSpaceOnUse"><feFlood></feFlood><feComposite in2="SourceAlpha" operator="in"></feComposite><feGaussianBlur stdDeviation="1"></feGaussianBlur><feOffset dx="1" dy="1" result="afterOffset"></feOffset><feFlood flood-color="#000000" flood-opacity="0.5"></feFlood><feComposite in2="afterOffset" operator="in"></feComposite><feMorphology operator="dilate" radius="1"></feMorphology><feComposite in2="SourceAlpha" operator="out"></feComposite></filter><path d="M401.64 170.16L420.77 143.85L452.77 149.52L453.43 179.34L421.83 192.09L401.64 170.16Z" id="fIVffPIdP" fill="white" fill-opacity="1" filter="url(#shadow193713)"></path></g><use xlink:href="#d8rAtH9Gn" opacity="1" fill="#235413" fill-opacity="1"></use></g><g><g><filter id="shadow16327347" x="148.87" y="135.17" width="68.62" height="61.29" filterUnits="userSpaceOnUse" primitiveUnits="userSpaceOnUse"><feFlood></feFlood><feComposite in2="SourceAlpha" operator="in"></feComposite><feGaussianBlur stdDeviation="1"></feGaussianBlur><feOffset dx="1" dy="1" result="afterOffset"></feOffset><feFlood flood-color="#000000" flood-opacity="0.5"></feFlood><feComposite in2="afterOffset" operator="in"></feComposite><feMorphology operator="dilate" radius="1"></feMorphology><feComposite in2="SourceAlpha" operator="out"></feComposite></filter><path d="M157.87 160.72L182.4 144.17L207.49 159.7L198.46 185.84L167.8 186.47L157.87 160.72Z" id="g6ciZnwTu" fill="white" fill-opacity="1" filter="url(#shadow16327347)"></path></g><use xlink:href="#c2Get3S0Te" opacity="1" fill="#235413" fill-opacity="1"></use></g><g><g><filter id="shadow7066162" x="299.68" y="114.87" width="69.28" height="70.99" filterUnits="userSpaceOnUse" primitiveUnits="userSpaceOnUse"><feFlood></feFlood><feComposite in2="SourceAlpha" operator="in"></feComposite><feGaussianBlur stdDeviation="1"></feGaussianBlur><feOffset dx="1" dy="1" result="afterOffset"></feOffset><feFlood flood-color="#000000" flood-opacity="0.5"></feFlood><feComposite in2="afterOffset" operator="in"></feComposite><feMorphology operator="dilate" radius="1"></feMorphology><feComposite in2="SourceAlpha" operator="out"></feComposite></filter><path d="M322.89 175.86L353.96 166.28L358.95 134.15L330.96 123.87L308.68 149.65L322.89 175.86Z" id="d1rGwtVzxH" fill="white" fill-opacity="1" filter="url(#shadow7066162)"></path></g><use xlink:href="#f2K3dX9kB1" opacity="1" fill="#235413" fill-opacity="1"></use></g><g><use xlink:href="#itcCxgR53" opacity="1" fill="#e5c28f" fill-opacity="0.99"></use></g><g><use xlink:href="#dHSkr8T2" opacity="1" fill="#e5c28f" fill-opacity="0.99"></use></g><g><use xlink:href="#i1RipXhtu2" opacity="1" fill="#e5c28f" fill-opacity="0.99"></use></g><g><use xlink:href="#d1ndP1MaOU" opacity="1" fill="#e5c28f" fill-opacity="0.99"></use></g><g><use xlink:href="#ckD7QLQOE" opacity="1" fill="#e5c28f" fill-opacity="0.99"></use></g><g><use xlink:href="#cF1Pm7mho" opacity="1" fill="#e5c28f" fill-opacity="0.99"></use></g><g><use xlink:href="#brsOmTmZl" opacity="1" fill="#e5c28f" fill-opacity="0.99"></use></g><g><use xlink:href="#a3wNs9XuvC" opacity="1" fill="#e5c28f" fill-opacity="0.99"></use></g><g><use xlink:href="#a2iVN71RNi" opacity="1" fill="#e5c28f" fill-opacity="0.99"></use></g><g><use xlink:href="#buxEVV71u" opacity="1" fill="#e5c28f" fill-opacity="0.99"></use></g><g><use xlink:href="#aJnamPdIX" opacity="1" fill="#e5c28f" fill-opacity="0.99"></use></g><g><use xlink:href="#ccACHG1Ho" opacity="1" fill="#e5c28f" fill-opacity="0.99"></use></g><g><use xlink:href="#c2m1bAkga5" opacity="1" fill="#e5c28f" fill-opacity="0.99"></use></g><g><use xlink:href="#d1ExNyHzLG" opacity="1" fill="#e5c28f" fill-opacity="0.99"></use></g><g><use xlink:href="#hj1Bc5iBA" opacity="1" fill="#e5c28f" fill-opacity="0.99"></use></g><g><use xlink:href="#dMk23AM59" opacity="1" fill="#e5c28f" fill-opacity="0.99"></use></g><g><use xlink:href="#a3o8dSVaaw" opacity="1" fill="#e5c28f" fill-opacity="0.99"></use></g><g><use xlink:href="#ejmaokalu" opacity="1" fill="#e5c28f" fill-opacity="0.99"></use></g><g><use xlink:href="#cyQzjIS8" opacity="1" fill="#e5c28f" fill-opacity="0.99"></use></g><g><use xlink:href="#b4M57dPbAA" opacity="1" fill="#e5c28f" fill-opacity="0.99"></use></g><g><use xlink:href="#a1PCM0Fqbb" opacity="1" fill="#e5c28f" fill-opacity="0.99"></use></g><g><use xlink:href="#cFNKGcXJ8" opacity="1" fill="#e5c28f" fill-opacity="0.99"></use></g><g><use xlink:href="#gcl1gS2n1" opacity="1" fill="#e5c28f" fill-opacity="0.99"></use></g><g><use xlink:href="#bsFNMqDG6" opacity="1" fill="#e5c28f" fill-opacity="0.99"></use></g><g><use xlink:href="#atJLe6Sb4" opacity="1" fill="#e5c28f" fill-opacity="0.99"></use></g></g></g></svg>