<?xml version="1.0" encoding="UTF-8" standalone="no"?>
<!DOCTYPE svg PUBLIC "-//W3C//DTD SVG 1.1//EN" "http://www.w3.org/Graphics/SVG/1.1/DTD/svg11.dtd">
<svg version="1.1" xmlns="http://www.w3.org/2000/svg" xmlns:xlink="http://www.w3.org/1999/xlink" preserveAspectRatio="xMidYMid meet" viewBox="0 0 640 640" width="640" height="640"><defs><path d="M594.13 148.9C609.33 148.9 621.65 161.23 621.65 176.43C621.65 238.7 621.65 398.01 621.65 460.29C621.65 475.49 609.33 487.81 594.13 487.81C478.67 487.81 159.83 487.81 44.37 487.81C29.17 487.81 16.85 475.49 16.85 460.29C16.85 398.01 16.85 238.7 16.85 176.43C16.85 161.23 29.17 148.9 44.37 148.9C159.83 148.9 478.67 148.9 594.13 148.9Z" id="b1uRGwqBti"></path><path d="M621.65 179.9C621.65 248.71 486.15 304.58 319.25 304.58C152.35 304.58 16.85 248.71 16.85 179.9C16.85 111.09 152.35 55.22 319.25 55.22C486.15 55.22 621.65 111.09 621.65 179.9Z" id="b3RLq9I9nu"></path><path d="" id="aemDPJOXP"></path><path d="M621.36 470.34C621.36 534.45 485.86 586.5 318.96 586.5C152.06 586.5 16.56 534.45 16.56 470.34C16.56 406.23 152.06 354.18 318.96 354.18C485.86 354.18 621.36 406.23 621.36 470.34Z" id="c3BjWHZwVr"></path><path d="" id="a3DscpyA4Z"></path><path d="M618.51 381.73C618.51 472.21 483.01 545.68 316.11 545.68C149.21 545.68 13.71 472.21 13.71 381.73C13.71 291.25 149.21 217.79 316.11 217.79C483.01 217.79 618.51 291.25 618.51 381.73Z" id="buiR9pPEy"></path><path d="M621.65 212.28C621.65 283.75 486.15 341.78 319.25 341.78C152.35 341.78 16.85 283.75 16.85 212.28C16.85 140.8 152.35 82.78 319.25 82.78C486.15 82.78 621.65 140.8 621.65 212.28Z" id="btlnsm0xi"></path><path d="M245.88 114.93C245.88 119.37 241.76 122.97 236.69 122.97C231.62 122.97 227.5 119.37 227.5 114.93C227.5 110.49 231.62 106.89 236.69 106.89C241.76 106.89 245.88 110.49 245.88 114.93Z" id="b21IW8NGZn"></path><path d="M330.2 107.36C330.2 111.8 326.09 115.41 321.01 115.41C315.94 115.41 311.82 111.8 311.82 107.36C311.82 102.93 315.94 99.32 321.01 99.32C326.09 99.32 330.2 102.93 330.2 107.36Z" id="a1s9qe9rUr"></path><path d="M427.16 119.32C427.16 123.76 423.04 127.36 417.97 127.36C412.9 127.36 408.78 123.76 408.78 119.32C408.78 114.89 412.9 111.28 417.97 111.28C423.04 111.28 427.16 114.89 427.16 119.32Z" id="c1xNlkDJPr"></path><path d="M518.38 142.77C518.38 147.21 514.26 150.81 509.19 150.81C504.12 150.81 500 147.21 500 142.77C500 138.33 504.12 134.73 509.19 134.73C514.26 134.73 518.38 138.33 518.38 142.77Z" id="cgYUViH7l"></path><path d="M576.28 190.34C576.28 194.78 572.17 198.38 567.09 198.38C562.02 198.38 557.91 194.78 557.91 190.34C557.91 185.9 562.02 182.3 567.09 182.3C572.17 182.3 576.28 185.9 576.28 190.34Z" id="h1iAOCDSXz"></path><path d="M523.92 229.86C523.92 234.3 519.8 237.91 514.73 237.91C509.66 237.91 505.54 234.3 505.54 229.86C505.54 225.43 509.66 221.82 514.73 221.82C519.8 221.82 523.92 225.43 523.92 229.86Z" id="bdvC4TYj2"></path><path d="M446.28 248.72C446.28 253.15 442.17 256.76 437.09 256.76C432.02 256.76 427.91 253.15 427.91 248.72C427.91 244.28 432.02 240.68 437.09 240.68C442.17 240.68 446.28 244.28 446.28 248.72Z" id="bzMAmUMvW"></path><path d="M365.2 260.68C365.2 265.11 361.09 268.72 356.01 268.72C350.94 268.72 346.82 265.11 346.82 260.68C346.82 256.24 350.94 252.64 356.01 252.64C361.09 252.64 365.2 256.24 365.2 260.68Z" id="aooA56FJ"></path><path d="M285.27 263.45C285.27 267.88 281.15 271.49 276.08 271.49C271.01 271.49 266.89 267.88 266.89 263.45C266.89 259.01 271.01 255.41 276.08 255.41C281.15 255.41 285.27 259.01 285.27 263.45Z" id="b1eWCn2jY"></path><path d="M207.64 257.03C207.64 261.46 203.52 265.07 198.45 265.07C193.37 265.07 189.26 261.46 189.26 257.03C189.26 252.59 193.37 248.99 198.45 248.99C203.52 248.99 207.64 252.59 207.64 257.03Z" id="a4loVh8c6G"></path><path d="M134.59 229.93C134.59 234.37 130.48 237.97 125.41 237.97C120.33 237.97 116.22 234.37 116.22 229.93C116.22 225.49 120.33 221.89 125.41 221.89C130.48 221.89 134.59 225.49 134.59 229.93Z" id="k2TOmPaMX6"></path><path d="M89.12 181.01C89.12 185.45 85 189.05 79.93 189.05C74.86 189.05 70.74 185.45 70.74 181.01C70.74 176.58 74.86 172.97 79.93 172.97C85 172.97 89.12 176.58 89.12 181.01Z" id="a21Y7hc0o"></path><path d="M161.96 132.09C161.96 136.53 157.84 140.14 152.77 140.14C147.7 140.14 143.58 136.53 143.58 132.09C143.58 127.66 147.7 124.05 152.77 124.05C157.84 124.05 161.96 127.66 161.96 132.09Z" id="b13CWOpS4b"></path><path d="M179.66 190C179.66 194.44 175.54 198.04 170.47 198.04C165.4 198.04 161.28 194.44 161.28 190C161.28 185.56 165.4 181.96 170.47 181.96C175.54 181.96 179.66 185.56 179.66 190Z" id="aurKZlwi5"></path><path d="M261.69 168.65C261.69 173.09 257.57 176.69 252.5 176.69C247.43 176.69 243.31 173.09 243.31 168.65C243.31 164.21 247.43 160.61 252.5 160.61C257.57 160.61 261.69 164.21 261.69 168.65Z" id="bbnOfgoIg"></path><path d="M250.47 216.01C250.47 220.45 246.36 224.05 241.28 224.05C236.21 224.05 232.09 220.45 232.09 216.01C232.09 211.58 236.21 207.97 241.28 207.97C246.36 207.97 250.47 211.58 250.47 216.01Z" id="cskgZgNbh"></path><path d="M442.91 185.61C442.91 205.89 417.94 222.36 387.2 222.36C356.45 222.36 331.49 205.89 331.49 185.61C331.49 165.32 356.45 148.85 387.2 148.85C417.94 148.85 442.91 165.32 442.91 185.61Z" id="a4zXjiV7ei"></path><path d="M390.07 205.14C390.07 213.38 369.48 220.07 344.12 220.07C318.76 220.07 298.18 213.38 298.18 205.14C298.18 196.89 318.76 190.2 344.12 190.2C369.48 190.2 390.07 196.89 390.07 205.14Z" id="bFX6LS6LC"></path><path d="M290.14 207.43L271.76 199.9L271.76 180.53L274.05 161.17L282.09 143.95L301.62 136.42L322.3 129.96L342.97 124.58L363.65 122.43L384.32 123.51L401.55 135.34L415.34 150.41L432.57 163.32L430.27 182.69L416.49 196.67" id="a5bjIGLNW"></path><path d="M490.14 175.41C490.14 179.84 486.02 183.45 480.95 183.45C475.87 183.45 471.76 179.84 471.76 175.41C471.76 170.97 475.87 167.36 480.95 167.36C486.02 167.36 490.14 170.97 490.14 175.41Z" id="ljuNtMmnZ"></path></defs><g><g><g><use xlink:href="#b1uRGwqBti" opacity="1" fill="#d0d4d4" fill-opacity="1"></use></g><g><g><filter id="shadow12527381" x="0.85" y="39.22" width="637.8" height="289.36" filterUnits="userSpaceOnUse" primitiveUnits="userSpaceOnUse"><feFlood></feFlood><feComposite in2="SourceAlpha" operator="in"></feComposite><feGaussianBlur stdDeviation="1"></feGaussianBlur><feOffset dx="1" dy="8" result="afterOffset"></feOffset><feFlood flood-color="#000000" flood-opacity="0.75"></feFlood><feComposite in2="afterOffset" operator="in"></feComposite><feMorphology operator="dilate" radius="1"></feMorphology><feComposite in2="SourceAlpha" operator="out"></feComposite></filter><path d="M621.65 179.9C621.65 248.71 486.15 304.58 319.25 304.58C152.35 304.58 16.85 248.71 16.85 179.9C16.85 111.09 152.35 55.22 319.25 55.22C486.15 55.22 621.65 111.09 621.65 179.9Z" id="i3fKSoq5h" fill="white" fill-opacity="1" filter="url(#shadow12527381)"></path></g><g><filter id="shadow1043330" x="4.85" y="43.22" width="628.8" height="277.36" filterUnits="userSpaceOnUse" primitiveUnits="userSpaceOnUse"><feFlood></feFlood><feComposite in2="SourceAlpha" operator="in"></feComposite><feGaussianBlur stdDeviation="1"></feGaussianBlur><feOffset dx="0" dy="-4" result="afterOffset"></feOffset><feFlood flood-color="#000000" flood-opacity="0.75"></feFlood><feComposite in2="afterOffset" operator="in"></feComposite><feMorphology operator="dilate" radius="1"></feMorphology><feComposite in2="SourceAlpha" operator="out"></feComposite></filter><path d="M621.65 179.9C621.65 248.71 486.15 304.58 319.25 304.58C152.35 304.58 16.85 248.71 16.85 179.9C16.85 111.09 152.35 55.22 319.25 55.22C486.15 55.22 621.65 111.09 621.65 179.9Z" id="a1aeqmrQp0" fill="white" fill-opacity="1" filter="url(#shadow1043330)"></path></g><use xlink:href="#b3RLq9I9nu" opacity="1" fill="#804f04" fill-opacity="1"></use><g><use xlink:href="#b3RLq9I9nu" opacity="1" fill-opacity="0" stroke="#b6b4ad" stroke-width="1" stroke-opacity="1"></use></g></g><g><g><use xlink:href="#aemDPJOXP" opacity="1" fill-opacity="0" stroke="#840b36" stroke-width="1" stroke-opacity="1"></use></g></g><g><g><filter id="shadow2122842" x="-0.44" y="337.18" width="638.8" height="275.33" filterUnits="userSpaceOnUse" primitiveUnits="userSpaceOnUse"><feFlood></feFlood><feComposite in2="SourceAlpha" operator="in"></feComposite><feGaussianBlur stdDeviation="1"></feGaussianBlur><feOffset dx="0" dy="9" result="afterOffset"></feOffset><feFlood flood-color="#000000" flood-opacity="0.75"></feFlood><feComposite in2="afterOffset" operator="in"></feComposite><feMorphology operator="dilate" radius="1"></feMorphology><feComposite in2="SourceAlpha" operator="out"></feComposite></filter><path d="M621.36 470.34C621.36 534.45 485.86 586.5 318.96 586.5C152.06 586.5 16.56 534.45 16.56 470.34C16.56 406.23 152.06 354.18 318.96 354.18C485.86 354.18 621.36 406.23 621.36 470.34Z" id="m5t3A5ySF8" fill="white" fill-opacity="1" filter="url(#shadow2122842)"></path></g><use xlink:href="#c3BjWHZwVr" opacity="1" fill="#d0d4d4" fill-opacity="1"></use></g><g><g><use xlink:href="#a3DscpyA4Z" opacity="1" fill-opacity="0" stroke="#840b36" stroke-width="1" stroke-opacity="1"></use></g></g><g></g><g><g><filter id="shadow2788378" x="0.85" y="66.78" width="636.8" height="299" filterUnits="userSpaceOnUse" primitiveUnits="userSpaceOnUse"><feFlood></feFlood><feComposite in2="SourceAlpha" operator="in"></feComposite><feGaussianBlur stdDeviation="1"></feGaussianBlur><feOffset dx="0" dy="8" result="afterOffset"></feOffset><feFlood flood-color="#000000" flood-opacity="0.75"></feFlood><feComposite in2="afterOffset" operator="in"></feComposite><feMorphology operator="dilate" radius="1"></feMorphology><feComposite in2="SourceAlpha" operator="out"></feComposite></filter><path d="M621.65 212.28C621.65 283.75 486.15 341.78 319.25 341.78C152.35 341.78 16.85 283.75 16.85 212.28C16.85 140.8 152.35 82.78 319.25 82.78C486.15 82.78 621.65 140.8 621.65 212.28Z" id="a1KrUuIwfn" fill="white" fill-opacity="1" filter="url(#shadow2788378)"></path></g></g><g><use xlink:href="#b21IW8NGZn" opacity="1" fill="#442b1d" fill-opacity="1"></use></g><g><use xlink:href="#a1s9qe9rUr" opacity="1" fill="#442b1d" fill-opacity="1"></use></g><g><use xlink:href="#c1xNlkDJPr" opacity="1" fill="#442b1d" fill-opacity="1"></use></g><g><use xlink:href="#cgYUViH7l" opacity="1" fill="#442b1d" fill-opacity="1"></use></g><g><use xlink:href="#h1iAOCDSXz" opacity="1" fill="#442b1d" fill-opacity="1"></use></g><g><use xlink:href="#bdvC4TYj2" opacity="1" fill="#442b1d" fill-opacity="1"></use></g><g><use xlink:href="#bzMAmUMvW" opacity="1" fill="#442b1d" fill-opacity="1"></use></g><g><use xlink:href="#aooA56FJ" opacity="1" fill="#442b1d" fill-opacity="1"></use></g><g><use xlink:href="#b1eWCn2jY" opacity="1" fill="#442b1d" fill-opacity="1"></use></g><g><use xlink:href="#a4loVh8c6G" opacity="1" fill="#442b1d" fill-opacity="1"></use></g><g><use xlink:href="#k2TOmPaMX6" opacity="1" fill="#442b1d" fill-opacity="1"></use></g><g><use xlink:href="#a21Y7hc0o" opacity="1" fill="#442b1d" fill-opacity="1"></use></g><g><use xlink:href="#b13CWOpS4b" opacity="1" fill="#442b1d" fill-opacity="1"></use></g><g><use xlink:href="#aurKZlwi5" opacity="1" fill="#442b1d" fill-opacity="1"></use></g><g><use xlink:href="#bbnOfgoIg" opacity="1" fill="#442b1d" fill-opacity="1"></use></g><g><use xlink:href="#cskgZgNbh" opacity="1" fill="#442b1d" fill-opacity="1"></use></g><g><use xlink:href="#a4zXjiV7ei" opacity="1" fill="#f3ca8f" fill-opacity="1"></use></g><g><use xlink:href="#bFX6LS6LC" opacity="1" fill="#f3ca8f" fill-opacity="1"></use></g><g><use xlink:href="#a5bjIGLNW" opacity="1" fill="#f3ca8f" fill-opacity="1"></use></g><g><use xlink:href="#ljuNtMmnZ" opacity="1" fill="#442b1d" fill-opacity="1"></use></g></g></g></svg>