<?xml version="1.0" encoding="UTF-8" standalone="no"?>
<!DOCTYPE svg PUBLIC "-//W3C//DTD SVG 1.1//EN" "http://www.w3.org/Graphics/SVG/1.1/DTD/svg11.dtd">
<svg version="1.1" xmlns="http://www.w3.org/2000/svg" xmlns:xlink="http://www.w3.org/1999/xlink" preserveAspectRatio="xMidYMid meet" viewBox="0 0 640 640" width="640" height="640"><defs><path d="M594.13 148.9C609.33 148.9 621.65 161.23 621.65 176.43C621.65 238.7 621.65 398.01 621.65 460.29C621.65 475.49 609.33 487.81 594.13 487.81C478.67 487.81 159.83 487.81 44.37 487.81C29.17 487.81 16.85 475.49 16.85 460.29C16.85 398.01 16.85 238.7 16.85 176.43C16.85 161.23 29.17 148.9 44.37 148.9C159.83 148.9 478.67 148.9 594.13 148.9Z" id="eFZI6Dwul"></path><path d="M621.65 179.9C621.65 248.71 486.15 304.58 319.25 304.58C152.35 304.58 16.85 248.71 16.85 179.9C16.85 111.09 152.35 55.22 319.25 55.22C486.15 55.22 621.65 111.09 621.65 179.9Z" id="bGdcma8XI"></path><path d="" id="ck31FnTl2"></path><path d="M621.36 470.34C621.36 534.45 485.86 586.5 318.96 586.5C152.06 586.5 16.56 534.45 16.56 470.34C16.56 406.23 152.06 354.18 318.96 354.18C485.86 354.18 621.36 406.23 621.36 470.34Z" id="bJbqqShuG"></path><path d="" id="d3iLG8mezf"></path><path d="M618.51 381.73C618.51 472.21 483.01 545.68 316.11 545.68C149.21 545.68 13.71 472.21 13.71 381.73C13.71 291.25 149.21 217.79 316.11 217.79C483.01 217.79 618.51 291.25 618.51 381.73Z" id="eiP9GSBDE"></path><path d="M621.65 212.28C621.65 283.75 486.15 341.78 319.25 341.78C152.35 341.78 16.85 283.75 16.85 212.28C16.85 140.8 152.35 82.78 319.25 82.78C486.15 82.78 621.65 140.8 621.65 212.28Z" id="acfexwLWJ"></path><path d="M551.03 173.45C551.03 206.44 510.35 233.22 460.23 233.22C410.11 233.22 369.43 206.44 369.43 173.45C369.43 140.46 410.11 113.68 460.23 113.68C510.35 113.68 551.03 140.46 551.03 173.45Z" id="ariA77HLm"></path><path d="M401.61 228.05C401.61 187.76 360.92 155.06 310.8 155.06C260.69 155.06 220 187.76 220 228.05C220 268.33 260.69 301.03 310.8 301.03C360.92 301.03 401.61 268.33 401.61 228.05Z" id="d190ovAU3"></path><path d="M232.64 197.59C232.64 235.02 198.65 265.4 156.78 265.4C114.91 265.4 80.92 235.02 80.92 197.59C80.92 160.16 114.91 129.77 156.78 129.77C198.65 129.77 232.64 160.16 232.64 197.59Z" id="k1sc59lgog"></path><path d="M384.37 134.37C384.37 173.7 345.22 205.63 297.01 205.63C248.8 205.63 209.66 173.7 209.66 134.37C209.66 95.04 248.8 63.1 297.01 63.1C345.22 63.1 384.37 95.04 384.37 134.37Z" id="eK1d2gRAu"></path></defs><g><g><g><use xlink:href="#eFZI6Dwul" opacity="1" fill="#d0d4d4" fill-opacity="1"></use></g><g><g><filter id="shadow5301103" x="0.85" y="39.22" width="637.8" height="289.36" filterUnits="userSpaceOnUse" primitiveUnits="userSpaceOnUse"><feFlood></feFlood><feComposite in2="SourceAlpha" operator="in"></feComposite><feGaussianBlur stdDeviation="1"></feGaussianBlur><feOffset dx="1" dy="8" result="afterOffset"></feOffset><feFlood flood-color="#000000" flood-opacity="0.75"></feFlood><feComposite in2="afterOffset" operator="in"></feComposite><feMorphology operator="dilate" radius="1"></feMorphology><feComposite in2="SourceAlpha" operator="out"></feComposite></filter><path d="M621.65 179.9C621.65 248.71 486.15 304.58 319.25 304.58C152.35 304.58 16.85 248.71 16.85 179.9C16.85 111.09 152.35 55.22 319.25 55.22C486.15 55.22 621.65 111.09 621.65 179.9Z" id="a1TBa32cWo" fill="white" fill-opacity="1" filter="url(#shadow5301103)"></path></g><g><filter id="shadow6043692" x="4.85" y="43.22" width="628.8" height="277.36" filterUnits="userSpaceOnUse" primitiveUnits="userSpaceOnUse"><feFlood></feFlood><feComposite in2="SourceAlpha" operator="in"></feComposite><feGaussianBlur stdDeviation="1"></feGaussianBlur><feOffset dx="0" dy="-4" result="afterOffset"></feOffset><feFlood flood-color="#000000" flood-opacity="0.75"></feFlood><feComposite in2="afterOffset" operator="in"></feComposite><feMorphology operator="dilate" radius="1"></feMorphology><feComposite in2="SourceAlpha" operator="out"></feComposite></filter><path d="M621.65 179.9C621.65 248.71 486.15 304.58 319.25 304.58C152.35 304.58 16.85 248.71 16.85 179.9C16.85 111.09 152.35 55.22 319.25 55.22C486.15 55.22 621.65 111.09 621.65 179.9Z" id="eyaOOM3VV" fill="white" fill-opacity="1" filter="url(#shadow6043692)"></path></g><use xlink:href="#bGdcma8XI" opacity="1" fill="#c7ac61" fill-opacity="1"></use><g><use xlink:href="#bGdcma8XI" opacity="1" fill-opacity="0" stroke="#b6b4ad" stroke-width="1" stroke-opacity="1"></use></g></g><g><g><use xlink:href="#ck31FnTl2" opacity="1" fill-opacity="0" stroke="#840b36" stroke-width="1" stroke-opacity="1"></use></g></g><g><g><filter id="shadow10464845" x="-0.44" y="337.18" width="638.8" height="275.33" filterUnits="userSpaceOnUse" primitiveUnits="userSpaceOnUse"><feFlood></feFlood><feComposite in2="SourceAlpha" operator="in"></feComposite><feGaussianBlur stdDeviation="1"></feGaussianBlur><feOffset dx="0" dy="9" result="afterOffset"></feOffset><feFlood flood-color="#000000" flood-opacity="0.75"></feFlood><feComposite in2="afterOffset" operator="in"></feComposite><feMorphology operator="dilate" radius="1"></feMorphology><feComposite in2="SourceAlpha" operator="out"></feComposite></filter><path d="M621.36 470.34C621.36 534.45 485.86 586.5 318.96 586.5C152.06 586.5 16.56 534.45 16.56 470.34C16.56 406.23 152.06 354.18 318.96 354.18C485.86 354.18 621.36 406.23 621.36 470.34Z" id="f1HExMm9mX" fill="white" fill-opacity="1" filter="url(#shadow10464845)"></path></g><use xlink:href="#bJbqqShuG" opacity="1" fill="#d0d4d4" fill-opacity="1"></use></g><g><g><use xlink:href="#d3iLG8mezf" opacity="1" fill-opacity="0" stroke="#840b36" stroke-width="1" stroke-opacity="1"></use></g></g><g></g><g><g><filter id="shadow1169740" x="0.85" y="66.78" width="636.8" height="299" filterUnits="userSpaceOnUse" primitiveUnits="userSpaceOnUse"><feFlood></feFlood><feComposite in2="SourceAlpha" operator="in"></feComposite><feGaussianBlur stdDeviation="1"></feGaussianBlur><feOffset dx="0" dy="8" result="afterOffset"></feOffset><feFlood flood-color="#000000" flood-opacity="0.75"></feFlood><feComposite in2="afterOffset" operator="in"></feComposite><feMorphology operator="dilate" radius="1"></feMorphology><feComposite in2="SourceAlpha" operator="out"></feComposite></filter><path d="M621.65 212.28C621.65 283.75 486.15 341.78 319.25 341.78C152.35 341.78 16.85 283.75 16.85 212.28C16.85 140.8 152.35 82.78 319.25 82.78C486.15 82.78 621.65 140.8 621.65 212.28Z" id="d1CVDrNmS" fill="white" fill-opacity="1" filter="url(#shadow1169740)"></path></g></g><g><g><filter id="shadow4224831" x="358.43" y="102.68" width="204.61" height="142.54" filterUnits="userSpaceOnUse" primitiveUnits="userSpaceOnUse"><feFlood></feFlood><feComposite in2="SourceAlpha" operator="in"></feComposite><feGaussianBlur stdDeviation="1"></feGaussianBlur><feOffset dx="1" dy="1" result="afterOffset"></feOffset><feFlood flood-color="#000000" flood-opacity="0.5"></feFlood><feComposite in2="afterOffset" operator="in"></feComposite><feMorphology operator="dilate" radius="3"></feMorphology><feComposite in2="SourceAlpha" operator="out"></feComposite></filter><path d="M551.03 173.45C551.03 206.44 510.35 233.22 460.23 233.22C410.11 233.22 369.43 206.44 369.43 173.45C369.43 140.46 410.11 113.68 460.23 113.68C510.35 113.68 551.03 140.46 551.03 173.45Z" id="buhAD25N4" fill="white" fill-opacity="1" filter="url(#shadow4224831)"></path></g><use xlink:href="#ariA77HLm" opacity="1" fill="#c5633b" fill-opacity="1"></use></g><g><g><filter id="shadow5150306" x="209" y="144.06" width="204.61" height="168.98" filterUnits="userSpaceOnUse" primitiveUnits="userSpaceOnUse"><feFlood></feFlood><feComposite in2="SourceAlpha" operator="in"></feComposite><feGaussianBlur stdDeviation="1"></feGaussianBlur><feOffset dx="1" dy="1" result="afterOffset"></feOffset><feFlood flood-color="#000000" flood-opacity="0.5"></feFlood><feComposite in2="afterOffset" operator="in"></feComposite><feMorphology operator="dilate" radius="3"></feMorphology><feComposite in2="SourceAlpha" operator="out"></feComposite></filter><path d="M401.61 228.05C401.61 187.76 360.92 155.06 310.8 155.06C260.69 155.06 220 187.76 220 228.05C220 268.33 260.69 301.03 310.8 301.03C360.92 301.03 401.61 268.33 401.61 228.05Z" id="cQtQ8XmLL" fill="white" fill-opacity="1" filter="url(#shadow5150306)"></path></g><use xlink:href="#d190ovAU3" opacity="1" fill="#c5633b" fill-opacity="1"></use></g><g><g><filter id="shadow331423" x="69.92" y="118.77" width="174.72" height="158.63" filterUnits="userSpaceOnUse" primitiveUnits="userSpaceOnUse"><feFlood></feFlood><feComposite in2="SourceAlpha" operator="in"></feComposite><feGaussianBlur stdDeviation="1"></feGaussianBlur><feOffset dx="1" dy="1" result="afterOffset"></feOffset><feFlood flood-color="#000000" flood-opacity="0.5"></feFlood><feComposite in2="afterOffset" operator="in"></feComposite><feMorphology operator="dilate" radius="3"></feMorphology><feComposite in2="SourceAlpha" operator="out"></feComposite></filter><path d="M232.64 197.59C232.64 235.02 198.65 265.4 156.78 265.4C114.91 265.4 80.92 235.02 80.92 197.59C80.92 160.16 114.91 129.77 156.78 129.77C198.65 129.77 232.64 160.16 232.64 197.59Z" id="a2rcjJnAE" fill="white" fill-opacity="1" filter="url(#shadow331423)"></path></g><use xlink:href="#k1sc59lgog" opacity="1" fill="#c5633b" fill-opacity="1"></use><g><use xlink:href="#k1sc59lgog" opacity="1" fill-opacity="0" stroke="#719d54" stroke-width="1" stroke-opacity="1"></use></g></g><g><g><filter id="shadow2889005" x="197.66" y="51.1" width="199.71" height="167.53" filterUnits="userSpaceOnUse" primitiveUnits="userSpaceOnUse"><feFlood></feFlood><feComposite in2="SourceAlpha" operator="in"></feComposite><feGaussianBlur stdDeviation="1"></feGaussianBlur><feOffset dx="1" dy="1" result="afterOffset"></feOffset><feFlood flood-color="#000000" flood-opacity="0.5"></feFlood><feComposite in2="afterOffset" operator="in"></feComposite><feMorphology operator="dilate" radius="4"></feMorphology><feComposite in2="SourceAlpha" operator="out"></feComposite></filter><path d="M384.37 134.37C384.37 173.7 345.22 205.63 297.01 205.63C248.8 205.63 209.66 173.7 209.66 134.37C209.66 95.04 248.8 63.1 297.01 63.1C345.22 63.1 384.37 95.04 384.37 134.37Z" id="a2kuABBY9K" fill="white" fill-opacity="1" filter="url(#shadow2889005)"></path></g><use xlink:href="#eK1d2gRAu" opacity="1" fill="#c5633b" fill-opacity="1"></use></g></g></g></svg>