<?xml version="1.0" encoding="UTF-8" standalone="no"?>
<!DOCTYPE svg PUBLIC "-//W3C//DTD SVG 1.1//EN" "http://www.w3.org/Graphics/SVG/1.1/DTD/svg11.dtd">
<svg version="1.1" xmlns="http://www.w3.org/2000/svg" xmlns:xlink="http://www.w3.org/1999/xlink" preserveAspectRatio="xMidYMid meet" viewBox="0 0 640 640" width="640" height="640"><defs><path d="M594.13 148.9C609.33 148.9 621.65 161.23 621.65 176.43C621.65 238.7 621.65 398.01 621.65 460.29C621.65 475.49 609.33 487.81 594.13 487.81C478.67 487.81 159.83 487.81 44.37 487.81C29.17 487.81 16.85 475.49 16.85 460.29C16.85 398.01 16.85 238.7 16.85 176.43C16.85 161.23 29.17 148.9 44.37 148.9C159.83 148.9 478.67 148.9 594.13 148.9Z" id="bBjd8SJrf"></path><path d="M618.51 381.73C618.51 472.21 483.01 545.68 316.11 545.68C149.21 545.68 13.71 472.21 13.71 381.73C13.71 291.25 149.21 217.79 316.11 217.79C483.01 217.79 618.51 291.25 618.51 381.73Z" id="bnVg9rxDU"></path><path d="M621.65 179.9C621.65 248.71 486.15 304.58 319.25 304.58C152.35 304.58 16.85 248.71 16.85 179.9C16.85 111.09 152.35 55.22 319.25 55.22C486.15 55.22 621.65 111.09 621.65 179.9Z" id="ah98feh3Q"></path><path d="" id="f1gYVLbNHJ"></path><path d="M621.36 470.34C621.36 534.45 485.86 586.5 318.96 586.5C152.06 586.5 16.56 534.45 16.56 470.34C16.56 406.23 152.06 354.18 318.96 354.18C485.86 354.18 621.36 406.23 621.36 470.34Z" id="bcbtDH1Og"></path><path d="" id="e1vgKb0tW"></path><path d="M621.65 212.28C621.65 283.75 486.15 341.78 319.25 341.78C152.35 341.78 16.85 283.75 16.85 212.28C16.85 140.8 152.35 82.78 319.25 82.78C486.15 82.78 621.65 140.8 621.65 212.28Z" id="e2h24AFVuK"></path><path d="M139.45 146.8L129.45 148.3L124.45 157.3L128.95 166.3" id="l2YvZTkZyQ"></path><path d="M149 230.5L160 247.5L178 258.5L197 268.5L218 273.5L239 278.5L268 275.5L289 275.5L310 276.5L332 276.5L371 275.5L391 269.5L411 268.5L428 257.5L449 249.5L474 240.5L490 227.5L504 212.5L515 192.5L517 172.5L515 151.5L508 132.5" id="a5HbaSmBeo"></path><path d="M124 158.49L126.98 178.12L131.96 197.75L139.92 216.4L150.86 234.07L166.78 246.83L184.68 255.67L204.58 260.57L224.48 260.57L246.36 260.57L266.26 262.54L286.16 260.57L306.05 263.52L325.95 264.5L346.84 264.5L366.74 260.57L387.63 256.65L406.53 248.79L427.42 243.89L446.33 236.03L463.24 225.24L480.15 214.44L495.07 199.71L506.02 182.05L509 161.43L508.01 140.82L504.03 121.19L492.09 104.5" id="e3NI1qG5Z2"></path><path d="M179 177.5C179 181.36 175.86 184.5 172 184.5C168.14 184.5 165 181.36 165 177.5C165 173.64 168.14 170.5 172 170.5C175.86 170.5 179 173.64 179 177.5Z" id="dSGxzKFeP"></path><path d="M465 187C465 196.11 456.71 203.5 446.5 203.5C436.29 203.5 428 196.11 428 187C428 177.89 436.29 170.5 446.5 170.5C456.71 170.5 465 177.89 465 187Z" id="c2DiUyK0D3"></path><path d="M130.88 142.94L151.81 142.41L171.44 136.16L192.32 133.33L215.5 129.29L235.12 123.04L257.22 122.47L278.07 118.49L298.83 111.07L319.74 109.38L341.78 106.52L363.83 103.66L385.9 101.95L405.49 94.55L427.51 90.54L449.61 89.97L470.54 89.44L490.52 96.98L495.67 116.39L496.2 137.08L495.57 157.79L491.41 177.44L472.05 194.03L452.6 207.18L434.22 216.84L412.35 226.6L390.43 234.06L369.64 240.34L348.82 245.47L322.04 245L298.77 245.59L277.81 244.98L252.16 243.33L227.73 243.96L204.5 245.7L184.61 241.61L162.24 231.83L147.9 217.25L135.8 199.16L127.13 178.68L120.82 159.3" id="i7ekmkA4Vx"></path><path d="M333.62 105.76L337.14 116.1L345.9 121.17L355.97 122.17L366.4 120.64L376.24 117.15L384.46 111.23L387.48 101.57" id="a19HVNGEuf"></path><path d="" id="bl4MiuhUb"></path><path d="M137.51 153.25L127.51 163.75L120.01 159.75L114.51 146.75L121.01 142.75L131.51 142.75L137.51 153.25Z" id="bZBIRcCZ4"></path><path d="M121.05 159.75L116.51 149.85L119.69 143.25L131.51 143.25" id="flIbor6OD"></path><path d="M139.01 204.75L147.51 217.75L158.51 229.25L150.01 232.25L138.51 212.75L132.51 198.75L130.01 186.75" id="b2Jgx4awlX"></path><path d="" id="biBailjZF"></path><path d="M505 122.5L508 137.5L495 139.5L495 117.5L493 107.5L505 122.5Z" id="a1ClGLuR4L"></path><path d="M495 146.5L496 129.5L492 108.5" id="eQ9FoTjIe"></path><path d="M507 139.5L505 123.5" id="c8PprkfBs"></path><path d="M171 202.75C171 205.65 168.54 208 165.5 208C162.46 208 160 205.65 160 202.75C160 199.85 162.46 197.5 165.5 197.5C168.54 197.5 171 199.85 171 202.75Z" id="h9UHzXJOH"></path><path d="M461 157.75C461 160.65 458.54 163 455.5 163C452.46 163 450 160.65 450 157.75C450 154.85 452.46 152.5 455.5 152.5C458.54 152.5 461 154.85 461 157.75Z" id="a3rFFuhdyg"></path><path d="M364 214.75C364 217.65 361.54 220 358.5 220C355.46 220 353 217.65 353 214.75C353 211.85 355.46 209.5 358.5 209.5C361.54 209.5 364 211.85 364 214.75Z" id="a1a2OPqE5p"></path><path d="M279 163.75C279 166.65 276.54 169 273.5 169C270.46 169 268 166.65 268 163.75C268 160.85 270.46 158.5 273.5 158.5C276.54 158.5 279 160.85 279 163.75Z" id="aoOsfQOfI"></path><path d="M249.52 87.02L229.52 89.02L210.52 99.02L189.52 103.02L169.52 102.02L151.52 113.02L129.52 118.02L109.52 120.02L88.52 133.02L81.52 153.02L76.52 173.02L82.52 194.02L80.52 214.02L94.52 231.02L112.52 242.02L122.52 260.02L141.52 269.02L162.52 274.02L186.52 282.02L206.52 286.02L229.52 290.02L249.52 296.02L269.52 293.02L294.52 297.02L320.52 298.02L341.52 298.02L367.52 296.02L389.52 291.02L409.52 283.02L429.52 286.02L448.52 279.02L469.52 275.02L500.52 268.02L520.52 254.02L545.52 234.02L556.52 215.02L568.52 194.02L572.52 170.02L565.52 146.02L562.52 126.02L539.52 122.02L523.52 107.02L509.52 90.02L486.52 83.02L464.52 79.02L440.52 72.02L415.52 74.02L394.52 67.02L372.52 70.02L338.52 71.02L309.52 70.02L289.52 62.02L266.52 70.02L250.52 83.02" id="b2X2yNfXjZ"></path><path d="M247.05 86.15L249.05 81.65" id="b1wb0hyPaw"></path></defs><g><g><g><use xlink:href="#bBjd8SJrf" opacity="1" fill="#d0d4d4" fill-opacity="1"></use></g><g><use xlink:href="#bnVg9rxDU" opacity="1" fill="#bfc9c9" fill-opacity="0.11"></use></g><g><g><filter id="shadow5050364" x="0.85" y="39.22" width="637.8" height="289.36" filterUnits="userSpaceOnUse" primitiveUnits="userSpaceOnUse"><feFlood></feFlood><feComposite in2="SourceAlpha" operator="in"></feComposite><feGaussianBlur stdDeviation="1"></feGaussianBlur><feOffset dx="1" dy="8" result="afterOffset"></feOffset><feFlood flood-color="#000000" flood-opacity="0.75"></feFlood><feComposite in2="afterOffset" operator="in"></feComposite><feMorphology operator="dilate" radius="1"></feMorphology><feComposite in2="SourceAlpha" operator="out"></feComposite></filter><path d="M621.65 179.9C621.65 248.71 486.15 304.58 319.25 304.58C152.35 304.58 16.85 248.71 16.85 179.9C16.85 111.09 152.35 55.22 319.25 55.22C486.15 55.22 621.65 111.09 621.65 179.9Z" id="f4V5M7S9JZ" fill="white" fill-opacity="1" filter="url(#shadow5050364)"></path></g><g><filter id="shadow2234523" x="4.85" y="43.22" width="628.8" height="277.36" filterUnits="userSpaceOnUse" primitiveUnits="userSpaceOnUse"><feFlood></feFlood><feComposite in2="SourceAlpha" operator="in"></feComposite><feGaussianBlur stdDeviation="1"></feGaussianBlur><feOffset dx="0" dy="-4" result="afterOffset"></feOffset><feFlood flood-color="#000000" flood-opacity="0.75"></feFlood><feComposite in2="afterOffset" operator="in"></feComposite><feMorphology operator="dilate" radius="1"></feMorphology><feComposite in2="SourceAlpha" operator="out"></feComposite></filter><path d="M621.65 179.9C621.65 248.71 486.15 304.58 319.25 304.58C152.35 304.58 16.85 248.71 16.85 179.9C16.85 111.09 152.35 55.22 319.25 55.22C486.15 55.22 621.65 111.09 621.65 179.9Z" id="a1pm0Fxmjl" fill="white" fill-opacity="1" filter="url(#shadow2234523)"></path></g><use xlink:href="#ah98feh3Q" opacity="1" fill="#f5f4f2" fill-opacity="1"></use><g><use xlink:href="#ah98feh3Q" opacity="1" fill-opacity="0" stroke="#b6b4ad" stroke-width="1" stroke-opacity="1"></use></g></g><g><g><use xlink:href="#f1gYVLbNHJ" opacity="1" fill-opacity="0" stroke="#840b36" stroke-width="1" stroke-opacity="1"></use></g></g><g><g><filter id="shadow5275842" x="-0.44" y="337.18" width="638.8" height="275.33" filterUnits="userSpaceOnUse" primitiveUnits="userSpaceOnUse"><feFlood></feFlood><feComposite in2="SourceAlpha" operator="in"></feComposite><feGaussianBlur stdDeviation="1"></feGaussianBlur><feOffset dx="0" dy="9" result="afterOffset"></feOffset><feFlood flood-color="#000000" flood-opacity="0.75"></feFlood><feComposite in2="afterOffset" operator="in"></feComposite><feMorphology operator="dilate" radius="1"></feMorphology><feComposite in2="SourceAlpha" operator="out"></feComposite></filter><path d="M621.36 470.34C621.36 534.45 485.86 586.5 318.96 586.5C152.06 586.5 16.56 534.45 16.56 470.34C16.56 406.23 152.06 354.18 318.96 354.18C485.86 354.18 621.36 406.23 621.36 470.34Z" id="g1ZEilzXHB" fill="white" fill-opacity="1" filter="url(#shadow5275842)"></path></g><use xlink:href="#bcbtDH1Og" opacity="1" fill="#d0d4d4" fill-opacity="1"></use></g><g><g><use xlink:href="#e1vgKb0tW" opacity="1" fill-opacity="0" stroke="#840b36" stroke-width="1" stroke-opacity="1"></use></g></g><g><g><filter id="shadow3688101" x="0.85" y="66.78" width="636.8" height="299" filterUnits="userSpaceOnUse" primitiveUnits="userSpaceOnUse"><feFlood></feFlood><feComposite in2="SourceAlpha" operator="in"></feComposite><feGaussianBlur stdDeviation="1"></feGaussianBlur><feOffset dx="0" dy="8" result="afterOffset"></feOffset><feFlood flood-color="#000000" flood-opacity="0.75"></feFlood><feComposite in2="afterOffset" operator="in"></feComposite><feMorphology operator="dilate" radius="1"></feMorphology><feComposite in2="SourceAlpha" operator="out"></feComposite></filter><path d="M621.65 212.28C621.65 283.75 486.15 341.78 319.25 341.78C152.35 341.78 16.85 283.75 16.85 212.28C16.85 140.8 152.35 82.78 319.25 82.78C486.15 82.78 621.65 140.8 621.65 212.28Z" id="b3HJuT15Vb" fill="white" fill-opacity="1" filter="url(#shadow3688101)"></path></g><use xlink:href="#e2h24AFVuK" opacity="1" fill="#d0d4d4" fill-opacity="0.12"></use></g><g><g><use xlink:href="#l2YvZTkZyQ" opacity="1" fill-opacity="0" stroke="#000000" stroke-width="1" stroke-opacity="1"></use></g></g><g><g><filter id="shadow7361167" x="140" y="123.5" width="387" height="165" filterUnits="userSpaceOnUse" primitiveUnits="userSpaceOnUse"><feFlood></feFlood><feComposite in2="SourceAlpha" operator="in"></feComposite><feGaussianBlur stdDeviation="1"></feGaussianBlur><feOffset dx="1" dy="1" result="afterOffset"></feOffset><feFlood flood-color="#000000" flood-opacity="0.5"></feFlood><feComposite in2="afterOffset" operator="in"></feComposite><feMorphology operator="dilate" radius="1"></feMorphology><feComposite in2="SourceAlpha" operator="out"></feComposite></filter><path d="M149 230.5L160 247.5L178 258.5L197 268.5L218 273.5L239 278.5L268 275.5L289 275.5L310 276.5L332 276.5L371 275.5L391 269.5L411 268.5L428 257.5L449 249.5L474 240.5L490 227.5L504 212.5L515 192.5L517 172.5L515 151.5L508 132.5" id="fXg6Y6F4X" fill="none" stroke="white" filter="url(#shadow7361167)"></path></g><use xlink:href="#a5HbaSmBeo" opacity="1" fill="#baa8a2" fill-opacity="1"></use><g><use xlink:href="#a5HbaSmBeo" opacity="1" fill-opacity="0" stroke="#000000" stroke-width="1" stroke-opacity="1"></use></g></g><g><g><filter id="shadow5569391" x="115" y="95.5" width="404" height="179" filterUnits="userSpaceOnUse" primitiveUnits="userSpaceOnUse"><feFlood></feFlood><feComposite in2="SourceAlpha" operator="in"></feComposite><feGaussianBlur stdDeviation="1"></feGaussianBlur><feOffset dx="1" dy="1" result="afterOffset"></feOffset><feFlood flood-color="#000000" flood-opacity="0.5"></feFlood><feComposite in2="afterOffset" operator="in"></feComposite><feMorphology operator="dilate" radius="1"></feMorphology><feComposite in2="SourceAlpha" operator="out"></feComposite></filter><path d="M124 158.49L126.98 178.12L131.96 197.75L139.92 216.4L150.86 234.07L166.78 246.83L184.68 255.67L204.58 260.57L224.48 260.57L246.36 260.57L266.26 262.54L286.16 260.57L306.05 263.52L325.95 264.5L346.84 264.5L366.74 260.57L387.63 256.65L406.53 248.79L427.42 243.89L446.33 236.03L463.24 225.24L480.15 214.44L495.07 199.71L506.02 182.05L509 161.43L508.01 140.82L504.03 121.19L492.09 104.5" id="f1yElVM1AJ" fill="none" stroke="white" filter="url(#shadow5569391)"></path></g><g><use xlink:href="#e3NI1qG5Z2" opacity="1" fill-opacity="0" stroke="#000000" stroke-width="1" stroke-opacity="1"></use></g></g><g><use xlink:href="#dSGxzKFeP" opacity="1" fill="#7a6a4a" fill-opacity="1"></use></g><g><use xlink:href="#c2DiUyK0D3" opacity="1" fill="#7a6a4a" fill-opacity="1"></use></g><g><g><filter id="shadow6869425" x="111.82" y="80.44" width="394.38" height="175.26" filterUnits="userSpaceOnUse" primitiveUnits="userSpaceOnUse"><feFlood></feFlood><feComposite in2="SourceAlpha" operator="in"></feComposite><feGaussianBlur stdDeviation="1"></feGaussianBlur><feOffset dx="1" dy="1" result="afterOffset"></feOffset><feFlood flood-color="#000000" flood-opacity="0.5"></feFlood><feComposite in2="afterOffset" operator="in"></feComposite><feMorphology operator="dilate" radius="1"></feMorphology><feComposite in2="SourceAlpha" operator="out"></feComposite></filter><path d="M130.88 142.94L151.81 142.41L171.44 136.16L192.32 133.33L215.5 129.29L235.12 123.04L257.22 122.47L278.07 118.49L298.83 111.07L319.74 109.38L341.78 106.52L363.83 103.66L385.9 101.95L405.49 94.55L427.51 90.54L449.61 89.97L470.54 89.44L490.52 96.98L495.67 116.39L496.2 137.08L495.57 157.79L491.41 177.44L472.05 194.03L452.6 207.18L434.22 216.84L412.35 226.6L390.43 234.06L369.64 240.34L348.82 245.47L322.04 245L298.77 245.59L277.81 244.98L252.16 243.33L227.73 243.96L204.5 245.7L184.61 241.61L162.24 231.83L147.9 217.25L135.8 199.16L127.13 178.68L120.82 159.3" id="c8wVpX1qh" fill="none" stroke="white" filter="url(#shadow6869425)"></path></g><use xlink:href="#i7ekmkA4Vx" opacity="1" fill="#cfb8b0" fill-opacity="1"></use><g><use xlink:href="#i7ekmkA4Vx" opacity="1" fill-opacity="0" stroke="#000000" stroke-width="1" stroke-opacity="1"></use></g></g><g><use xlink:href="#a19HVNGEuf" opacity="1" fill="#715317" fill-opacity="1"></use><g><use xlink:href="#a19HVNGEuf" opacity="1" fill-opacity="0" stroke="#000000" stroke-width="1" stroke-opacity="1"></use></g></g><g><g><use xlink:href="#bl4MiuhUb" opacity="1" fill-opacity="0" stroke="#000000" stroke-width="1" stroke-opacity="1"></use></g></g><g></g><g><use xlink:href="#flIbor6OD" opacity="1" fill="#cfb8b0" fill-opacity="1"></use><g><use xlink:href="#flIbor6OD" opacity="1" fill-opacity="0" stroke="#000000" stroke-width="1" stroke-opacity="1"></use></g></g><g><use xlink:href="#b2Jgx4awlX" opacity="1" fill="#baa8a2" fill-opacity="1"></use></g><g><g><use xlink:href="#biBailjZF" opacity="1" fill-opacity="0" stroke="#000000" stroke-width="1" stroke-opacity="1"></use></g></g><g><use xlink:href="#a1ClGLuR4L" opacity="1" fill="#baa8a2" fill-opacity="1"></use></g><g><g><use xlink:href="#eQ9FoTjIe" opacity="1" fill-opacity="0" stroke="#000000" stroke-width="1" stroke-opacity="1"></use></g></g><g><g><use xlink:href="#c8PprkfBs" opacity="1" fill-opacity="0" stroke="#000000" stroke-width="1" stroke-opacity="1"></use></g></g><g><use xlink:href="#h9UHzXJOH" opacity="1" fill="#715317" fill-opacity="1"></use></g><g><use xlink:href="#a3rFFuhdyg" opacity="1" fill="#715317" fill-opacity="1"></use></g><g><use xlink:href="#a1a2OPqE5p" opacity="1" fill="#715317" fill-opacity="1"></use></g><g><use xlink:href="#aoOsfQOfI" opacity="1" fill="#715317" fill-opacity="1"></use></g><g><g><filter id="shadow15298610" x="67.52" y="53.02" width="515" height="255" filterUnits="userSpaceOnUse" primitiveUnits="userSpaceOnUse"><feFlood></feFlood><feComposite in2="SourceAlpha" operator="in"></feComposite><feGaussianBlur stdDeviation="1"></feGaussianBlur><feOffset dx="1" dy="1" result="afterOffset"></feOffset><feFlood flood-color="#000000" flood-opacity="0.5"></feFlood><feComposite in2="afterOffset" operator="in"></feComposite><feMorphology operator="dilate" radius="1"></feMorphology><feComposite in2="SourceAlpha" operator="out"></feComposite></filter><path d="M249.52 87.02L229.52 89.02L210.52 99.02L189.52 103.02L169.52 102.02L151.52 113.02L129.52 118.02L109.52 120.02L88.52 133.02L81.52 153.02L76.52 173.02L82.52 194.02L80.52 214.02L94.52 231.02L112.52 242.02L122.52 260.02L141.52 269.02L162.52 274.02L186.52 282.02L206.52 286.02L229.52 290.02L249.52 296.02L269.52 293.02L294.52 297.02L320.52 298.02L341.52 298.02L367.52 296.02L389.52 291.02L409.52 283.02L429.52 286.02L448.52 279.02L469.52 275.02L500.52 268.02L520.52 254.02L545.52 234.02L556.52 215.02L568.52 194.02L572.52 170.02L565.52 146.02L562.52 126.02L539.52 122.02L523.52 107.02L509.52 90.02L486.52 83.02L464.52 79.02L440.52 72.02L415.52 74.02L394.52 67.02L372.52 70.02L338.52 71.02L309.52 70.02L289.52 62.02L266.52 70.02L250.52 83.02" id="ach1ETU4O" fill="none" stroke="white" filter="url(#shadow15298610)"></path></g><g><use xlink:href="#b2X2yNfXjZ" opacity="1" fill-opacity="0" stroke="#baa8a2" stroke-width="1" stroke-opacity="1"></use></g></g><g><g><use xlink:href="#b1wb0hyPaw" opacity="1" fill-opacity="0" stroke="#baa8a2" stroke-width="1" stroke-opacity="1"></use></g></g></g></g></svg>