<?xml version="1.0" encoding="UTF-8" standalone="no"?>
<!DOCTYPE svg PUBLIC "-//W3C//DTD SVG 1.1//EN" "http://www.w3.org/Graphics/SVG/1.1/DTD/svg11.dtd">
<svg version="1.1" xmlns="http://www.w3.org/2000/svg" xmlns:xlink="http://www.w3.org/1999/xlink" preserveAspectRatio="xMidYMid meet" viewBox="0 0 640 640" width="640" height="640"><defs><path d="M594.13 148.9C609.33 148.9 621.65 161.23 621.65 176.43C621.65 238.7 621.65 398.01 621.65 460.29C621.65 475.49 609.33 487.81 594.13 487.81C478.67 487.81 159.83 487.81 44.37 487.81C29.17 487.81 16.85 475.49 16.85 460.29C16.85 398.01 16.85 238.7 16.85 176.43C16.85 161.23 29.17 148.9 44.37 148.9C159.83 148.9 478.67 148.9 594.13 148.9Z" id="bgf8qxO79"></path><path d="M621.65 179.9C621.65 248.71 486.15 304.58 319.25 304.58C152.35 304.58 16.85 248.71 16.85 179.9C16.85 111.09 152.35 55.22 319.25 55.22C486.15 55.22 621.65 111.09 621.65 179.9Z" id="d2rmvTXRXZ"></path><path d="" id="b2S8BIEMye"></path><path d="M621.36 470.34C621.36 534.45 485.86 586.5 318.96 586.5C152.06 586.5 16.56 534.45 16.56 470.34C16.56 406.23 152.06 354.18 318.96 354.18C485.86 354.18 621.36 406.23 621.36 470.34Z" id="e3L6ql831U"></path><path d="" id="aqMM4j79j"></path><path d="M618.51 381.73C618.51 472.21 483.01 545.68 316.11 545.68C149.21 545.68 13.71 472.21 13.71 381.73C13.71 291.25 149.21 217.79 316.11 217.79C483.01 217.79 618.51 291.25 618.51 381.73Z" id="c7Vva2vJC"></path><path d="M621.65 212.28C621.65 283.75 486.15 341.78 319.25 341.78C152.35 341.78 16.85 283.75 16.85 212.28C16.85 140.8 152.35 82.78 319.25 82.78C486.15 82.78 621.65 140.8 621.65 212.28Z" id="auTld2Q6q"></path><path d="M216.59 116.55L221.97 130.92L211.21 130.92L200.46 130.92L205.84 116.55L211.21 102.18L216.59 116.55Z" id="dliWFF7tu"></path><path d="M206.8 133.76L191.16 135.52L206.08 118.03L221 100.54L221.72 116.26L222.44 131.99L206.8 133.76Z" id="h1zZiqBeXv"></path><path d="M417.68 213.53L481.24 223.68L472.9 275.89L409.34 265.74L417.68 213.53Z" id="iftRCsBO4"></path><path d="M357.29 80.76L420.41 93.36L410.07 145.21L346.94 132.61L357.29 80.76Z" id="d1dirpHpQ"></path><path d="M321.53 160.07L257.17 158.77L258.24 105.91L322.6 107.21L321.53 160.07Z" id="avE9rzRUB"></path><path d="M471.99 139.12L535.11 126.5L545.48 178.35L482.36 190.97L471.99 139.12Z" id="brbx0GVyO"></path><path d="M286.61 236.98L350.47 228.95L357.07 281.41L293.21 289.44L286.61 236.98Z" id="a1fiA5U3sy"></path><path d="M98.63 176.19L162.89 180L159.76 232.78L95.5 228.97L98.63 176.19Z" id="b3RPLsyPA"></path><path d="M233.79 213.68C233.79 216.22 231.99 218.28 229.77 218.28C227.55 218.28 225.75 216.22 225.75 213.68C225.75 211.14 227.55 209.08 229.77 209.08C231.99 209.08 233.79 211.14 233.79 213.68Z" id="b9Fb5YlqM"></path><path d="M150.34 114.14C150.34 116.68 148.54 118.74 146.32 118.74C144.1 118.74 142.3 116.68 142.3 114.14C142.3 111.6 144.1 109.54 146.32 109.54C148.54 109.54 150.34 111.6 150.34 114.14Z" id="a4Zp8SO6P"></path><path d="M386.44 270.92C386.44 273.46 384.63 275.52 382.41 275.52C380.19 275.52 378.39 273.46 378.39 270.92C378.39 268.38 380.19 266.32 382.41 266.32C384.63 266.32 386.44 268.38 386.44 270.92Z" id="cb5Skl8Lm"></path><path d="M365.06 182.87C365.06 185.41 363.25 187.47 361.03 187.47C358.81 187.47 357.01 185.41 357.01 182.87C357.01 180.34 358.81 178.28 361.03 178.28C363.25 178.28 365.06 180.34 365.06 182.87Z" id="d146eZPRre"></path><path d="M479.31 114.37C479.31 116.91 477.51 118.97 475.29 118.97C473.07 118.97 471.26 116.91 471.26 114.37C471.26 111.83 473.07 109.77 475.29 109.77C477.51 109.77 479.31 111.83 479.31 114.37Z" id="f6xrvvewr"></path><path d="M254.17 286.97L189.82 285.67L190.88 232.81L255.24 234.1L254.17 286.97Z" id="e4WkhgSzsy"></path><path d="M538.05 243.84L519.8 252.89L510.76 234.64L490.94 221.65L511.34 220.02L495.6 206.38L477.21 198.34L498.98 203.26L519.12 208.12L539.98 215.45L555.72 229.09L555.73 249.42L536.62 238.91" id="bsGyCfI64"></path><path d="M65.29 175.06C65.29 177.6 63.48 179.66 61.26 179.66C59.04 179.66 57.24 177.6 57.24 175.06C57.24 172.52 59.04 170.46 61.26 170.46C63.48 170.46 65.29 172.52 65.29 175.06Z" id="njbzxIvNO"></path></defs><g><g><g><use xlink:href="#bgf8qxO79" opacity="1" fill="#d0d4d4" fill-opacity="1"></use></g><g><g><filter id="shadow4387162" x="0.85" y="39.22" width="637.8" height="289.36" filterUnits="userSpaceOnUse" primitiveUnits="userSpaceOnUse"><feFlood></feFlood><feComposite in2="SourceAlpha" operator="in"></feComposite><feGaussianBlur stdDeviation="1"></feGaussianBlur><feOffset dx="1" dy="8" result="afterOffset"></feOffset><feFlood flood-color="#000000" flood-opacity="0.75"></feFlood><feComposite in2="afterOffset" operator="in"></feComposite><feMorphology operator="dilate" radius="1"></feMorphology><feComposite in2="SourceAlpha" operator="out"></feComposite></filter><path d="M621.65 179.9C621.65 248.71 486.15 304.58 319.25 304.58C152.35 304.58 16.85 248.71 16.85 179.9C16.85 111.09 152.35 55.22 319.25 55.22C486.15 55.22 621.65 111.09 621.65 179.9Z" id="bGXEqrs5a" fill="white" fill-opacity="1" filter="url(#shadow4387162)"></path></g><g><filter id="shadow2574480" x="4.85" y="43.22" width="628.8" height="277.36" filterUnits="userSpaceOnUse" primitiveUnits="userSpaceOnUse"><feFlood></feFlood><feComposite in2="SourceAlpha" operator="in"></feComposite><feGaussianBlur stdDeviation="1"></feGaussianBlur><feOffset dx="0" dy="-4" result="afterOffset"></feOffset><feFlood flood-color="#000000" flood-opacity="0.75"></feFlood><feComposite in2="afterOffset" operator="in"></feComposite><feMorphology operator="dilate" radius="1"></feMorphology><feComposite in2="SourceAlpha" operator="out"></feComposite></filter><path d="M621.65 179.9C621.65 248.71 486.15 304.58 319.25 304.58C152.35 304.58 16.85 248.71 16.85 179.9C16.85 111.09 152.35 55.22 319.25 55.22C486.15 55.22 621.65 111.09 621.65 179.9Z" id="gID0wpGQg" fill="white" fill-opacity="1" filter="url(#shadow2574480)"></path></g><use xlink:href="#d2rmvTXRXZ" opacity="1" fill="#e29d25" fill-opacity="1"></use><g><use xlink:href="#d2rmvTXRXZ" opacity="1" fill-opacity="0" stroke="#b6b4ad" stroke-width="1" stroke-opacity="1"></use></g></g><g><g><use xlink:href="#b2S8BIEMye" opacity="1" fill-opacity="0" stroke="#840b36" stroke-width="1" stroke-opacity="1"></use></g></g><g><g><filter id="shadow3984867" x="-0.44" y="337.18" width="638.8" height="275.33" filterUnits="userSpaceOnUse" primitiveUnits="userSpaceOnUse"><feFlood></feFlood><feComposite in2="SourceAlpha" operator="in"></feComposite><feGaussianBlur stdDeviation="1"></feGaussianBlur><feOffset dx="0" dy="9" result="afterOffset"></feOffset><feFlood flood-color="#000000" flood-opacity="0.75"></feFlood><feComposite in2="afterOffset" operator="in"></feComposite><feMorphology operator="dilate" radius="1"></feMorphology><feComposite in2="SourceAlpha" operator="out"></feComposite></filter><path d="M621.36 470.34C621.36 534.45 485.86 586.5 318.96 586.5C152.06 586.5 16.56 534.45 16.56 470.34C16.56 406.23 152.06 354.18 318.96 354.18C485.86 354.18 621.36 406.23 621.36 470.34Z" id="cf3r0sa0t" fill="white" fill-opacity="1" filter="url(#shadow3984867)"></path></g><use xlink:href="#e3L6ql831U" opacity="1" fill="#d0d4d4" fill-opacity="1"></use></g><g><g><use xlink:href="#aqMM4j79j" opacity="1" fill-opacity="0" stroke="#840b36" stroke-width="1" stroke-opacity="1"></use></g></g><g><use xlink:href="#c7Vva2vJC" opacity="1" fill="#bfc9c9" fill-opacity="0.03"></use></g><g><g><filter id="shadow2469723" x="0.85" y="66.78" width="636.8" height="299" filterUnits="userSpaceOnUse" primitiveUnits="userSpaceOnUse"><feFlood></feFlood><feComposite in2="SourceAlpha" operator="in"></feComposite><feGaussianBlur stdDeviation="1"></feGaussianBlur><feOffset dx="0" dy="8" result="afterOffset"></feOffset><feFlood flood-color="#000000" flood-opacity="0.75"></feFlood><feComposite in2="afterOffset" operator="in"></feComposite><feMorphology operator="dilate" radius="1"></feMorphology><feComposite in2="SourceAlpha" operator="out"></feComposite></filter><path d="M621.65 212.28C621.65 283.75 486.15 341.78 319.25 341.78C152.35 341.78 16.85 283.75 16.85 212.28C16.85 140.8 152.35 82.78 319.25 82.78C486.15 82.78 621.65 140.8 621.65 212.28Z" id="c1lB9fs2og" fill="white" fill-opacity="1" filter="url(#shadow2469723)"></path></g><use xlink:href="#auTld2Q6q" opacity="1" fill="#d0d4d4" fill-opacity="0"></use></g><g><use xlink:href="#dliWFF7tu" opacity="1" fill="#58762d" fill-opacity="1"></use></g><g><g><filter id="shadow6567384" x="182.16" y="91.54" width="50.28" height="53.98" filterUnits="userSpaceOnUse" primitiveUnits="userSpaceOnUse"><feFlood></feFlood><feComposite in2="SourceAlpha" operator="in"></feComposite><feGaussianBlur stdDeviation="1"></feGaussianBlur><feOffset dx="1" dy="1" result="afterOffset"></feOffset><feFlood flood-color="#000000" flood-opacity="0.5"></feFlood><feComposite in2="afterOffset" operator="in"></feComposite><feMorphology operator="dilate" radius="1"></feMorphology><feComposite in2="SourceAlpha" operator="out"></feComposite></filter><path d="M206.8 133.76L191.16 135.52L206.08 118.03L221 100.54L221.72 116.26L222.44 131.99L206.8 133.76Z" id="cAoTb6IYa" fill="white" fill-opacity="1" filter="url(#shadow6567384)"></path></g><use xlink:href="#h1zZiqBeXv" opacity="1" fill="#58762d" fill-opacity="1"></use></g><g><g><filter id="shadow901041" x="400.34" y="204.53" width="90.9" height="81.36" filterUnits="userSpaceOnUse" primitiveUnits="userSpaceOnUse"><feFlood></feFlood><feComposite in2="SourceAlpha" operator="in"></feComposite><feGaussianBlur stdDeviation="1"></feGaussianBlur><feOffset dx="1" dy="1" result="afterOffset"></feOffset><feFlood flood-color="#000000" flood-opacity="0.5"></feFlood><feComposite in2="afterOffset" operator="in"></feComposite><feMorphology operator="dilate" radius="1"></feMorphology><feComposite in2="SourceAlpha" operator="out"></feComposite></filter><path d="M417.68 213.53L481.24 223.68L472.9 275.89L409.34 265.74L417.68 213.53Z" id="fPptnNtP9" fill="white" fill-opacity="1" filter="url(#shadow901041)"></path></g><use xlink:href="#iftRCsBO4" opacity="1" fill="#f4dd62" fill-opacity="1"></use></g><g><g><filter id="shadow10326974" x="337.94" y="71.76" width="92.47" height="83.45" filterUnits="userSpaceOnUse" primitiveUnits="userSpaceOnUse"><feFlood></feFlood><feComposite in2="SourceAlpha" operator="in"></feComposite><feGaussianBlur stdDeviation="1"></feGaussianBlur><feOffset dx="1" dy="1" result="afterOffset"></feOffset><feFlood flood-color="#000000" flood-opacity="0.5"></feFlood><feComposite in2="afterOffset" operator="in"></feComposite><feMorphology operator="dilate" radius="1"></feMorphology><feComposite in2="SourceAlpha" operator="out"></feComposite></filter><path d="M357.29 80.76L420.41 93.36L410.07 145.21L346.94 132.61L357.29 80.76Z" id="ahYez4paS" fill="white" fill-opacity="1" filter="url(#shadow10326974)"></path></g><use xlink:href="#d1dirpHpQ" opacity="1" fill="#f4dd62" fill-opacity="1"></use></g><g><g><filter id="shadow1047518" x="248.17" y="96.91" width="84.42" height="73.16" filterUnits="userSpaceOnUse" primitiveUnits="userSpaceOnUse"><feFlood></feFlood><feComposite in2="SourceAlpha" operator="in"></feComposite><feGaussianBlur stdDeviation="1"></feGaussianBlur><feOffset dx="1" dy="1" result="afterOffset"></feOffset><feFlood flood-color="#000000" flood-opacity="0.5"></feFlood><feComposite in2="afterOffset" operator="in"></feComposite><feMorphology operator="dilate" radius="1"></feMorphology><feComposite in2="SourceAlpha" operator="out"></feComposite></filter><path d="M321.53 160.07L257.17 158.77L258.24 105.91L322.6 107.21L321.53 160.07Z" id="gY6bPvGor" fill="white" fill-opacity="1" filter="url(#shadow1047518)"></path></g><use xlink:href="#avE9rzRUB" opacity="1" fill="#f4dd62" fill-opacity="1"></use></g><g><g><filter id="shadow5728199" x="462.99" y="117.5" width="92.49" height="83.47" filterUnits="userSpaceOnUse" primitiveUnits="userSpaceOnUse"><feFlood></feFlood><feComposite in2="SourceAlpha" operator="in"></feComposite><feGaussianBlur stdDeviation="1"></feGaussianBlur><feOffset dx="1" dy="1" result="afterOffset"></feOffset><feFlood flood-color="#000000" flood-opacity="0.5"></feFlood><feComposite in2="afterOffset" operator="in"></feComposite><feMorphology operator="dilate" radius="1"></feMorphology><feComposite in2="SourceAlpha" operator="out"></feComposite></filter><path d="M471.99 139.12L535.11 126.5L545.48 178.35L482.36 190.97L471.99 139.12Z" id="aoLQEPg1S" fill="white" fill-opacity="1" filter="url(#shadow5728199)"></path></g><use xlink:href="#brbx0GVyO" opacity="1" fill="#f4dd62" fill-opacity="1"></use></g><g><g><filter id="shadow5273515" x="277.61" y="219.95" width="89.46" height="79.5" filterUnits="userSpaceOnUse" primitiveUnits="userSpaceOnUse"><feFlood></feFlood><feComposite in2="SourceAlpha" operator="in"></feComposite><feGaussianBlur stdDeviation="1"></feGaussianBlur><feOffset dx="1" dy="1" result="afterOffset"></feOffset><feFlood flood-color="#000000" flood-opacity="0.5"></feFlood><feComposite in2="afterOffset" operator="in"></feComposite><feMorphology operator="dilate" radius="1"></feMorphology><feComposite in2="SourceAlpha" operator="out"></feComposite></filter><path d="M286.61 236.98L350.47 228.95L357.07 281.41L293.21 289.44L286.61 236.98Z" id="a7xuhV6ag" fill="white" fill-opacity="1" filter="url(#shadow5273515)"></path></g><use xlink:href="#a1fiA5U3sy" opacity="1" fill="#f4dd62" fill-opacity="1"></use></g><g><g><filter id="shadow1975944" x="86.5" y="167.19" width="86.38" height="75.59" filterUnits="userSpaceOnUse" primitiveUnits="userSpaceOnUse"><feFlood></feFlood><feComposite in2="SourceAlpha" operator="in"></feComposite><feGaussianBlur stdDeviation="1"></feGaussianBlur><feOffset dx="1" dy="1" result="afterOffset"></feOffset><feFlood flood-color="#000000" flood-opacity="0.5"></feFlood><feComposite in2="afterOffset" operator="in"></feComposite><feMorphology operator="dilate" radius="1"></feMorphology><feComposite in2="SourceAlpha" operator="out"></feComposite></filter><path d="M98.63 176.19L162.89 180L159.76 232.78L95.5 228.97L98.63 176.19Z" id="c1ky3OEN3N" fill="white" fill-opacity="1" filter="url(#shadow1975944)"></path></g><use xlink:href="#b3RPLsyPA" opacity="1" fill="#f4dd62" fill-opacity="1"></use></g><g><use xlink:href="#b9Fb5YlqM" opacity="1" fill="#190803" fill-opacity="1"></use></g><g><use xlink:href="#a4Zp8SO6P" opacity="1" fill="#190803" fill-opacity="1"></use></g><g><use xlink:href="#cb5Skl8Lm" opacity="1" fill="#190803" fill-opacity="1"></use></g><g><use xlink:href="#d146eZPRre" opacity="1" fill="#190803" fill-opacity="1"></use></g><g><use xlink:href="#f6xrvvewr" opacity="1" fill="#190803" fill-opacity="1"></use></g><g><g><filter id="shadow8008142" x="180.82" y="223.81" width="84.42" height="73.16" filterUnits="userSpaceOnUse" primitiveUnits="userSpaceOnUse"><feFlood></feFlood><feComposite in2="SourceAlpha" operator="in"></feComposite><feGaussianBlur stdDeviation="1"></feGaussianBlur><feOffset dx="1" dy="1" result="afterOffset"></feOffset><feFlood flood-color="#000000" flood-opacity="0.5"></feFlood><feComposite in2="afterOffset" operator="in"></feComposite><feMorphology operator="dilate" radius="1"></feMorphology><feComposite in2="SourceAlpha" operator="out"></feComposite></filter><path d="M254.17 286.97L189.82 285.67L190.88 232.81L255.24 234.1L254.17 286.97Z" id="aZsee0Yf0" fill="white" fill-opacity="1" filter="url(#shadow8008142)"></path></g><use xlink:href="#e4WkhgSzsy" opacity="1" fill="#f4dd62" fill-opacity="1"></use></g><g><g><filter id="shadow10518543" x="468.21" y="189.34" width="97.52" height="73.55" filterUnits="userSpaceOnUse" primitiveUnits="userSpaceOnUse"><feFlood></feFlood><feComposite in2="SourceAlpha" operator="in"></feComposite><feGaussianBlur stdDeviation="1"></feGaussianBlur><feOffset dx="1" dy="1" result="afterOffset"></feOffset><feFlood flood-color="#000000" flood-opacity="0.5"></feFlood><feComposite in2="afterOffset" operator="in"></feComposite><feMorphology operator="dilate" radius="1"></feMorphology><feComposite in2="SourceAlpha" operator="out"></feComposite></filter><path d="M538.05 243.84L519.8 252.89L510.76 234.64L490.94 221.65L511.34 220.02L495.6 206.38L477.21 198.34L498.98 203.26L519.12 208.12L539.98 215.45L555.72 229.09L555.73 249.42L536.62 238.91" id="a12hEyR54L" fill="none" stroke="white" filter="url(#shadow10518543)"></path></g><use xlink:href="#bsGyCfI64" opacity="1" fill="#58762d" fill-opacity="1"></use></g><g><use xlink:href="#njbzxIvNO" opacity="1" fill="#190803" fill-opacity="1"></use></g></g></g></svg>