<?xml version="1.0" encoding="UTF-8" standalone="no"?>
<!DOCTYPE svg PUBLIC "-//W3C//DTD SVG 1.1//EN" "http://www.w3.org/Graphics/SVG/1.1/DTD/svg11.dtd">
<svg version="1.1" xmlns="http://www.w3.org/2000/svg" xmlns:xlink="http://www.w3.org/1999/xlink" preserveAspectRatio="xMidYMid meet" viewBox="0 0 640 640" width="640" height="640"><defs><path d="M594.13 148.9C609.33 148.9 621.65 161.23 621.65 176.43C621.65 238.7 621.65 398.01 621.65 460.29C621.65 475.49 609.33 487.81 594.13 487.81C478.67 487.81 159.83 487.81 44.37 487.81C29.17 487.81 16.85 475.49 16.85 460.29C16.85 398.01 16.85 238.7 16.85 176.43C16.85 161.23 29.17 148.9 44.37 148.9C159.83 148.9 478.67 148.9 594.13 148.9Z" id="b3EY3ZoWn"></path><path d="M621.65 179.9C621.65 248.71 486.15 304.58 319.25 304.58C152.35 304.58 16.85 248.71 16.85 179.9C16.85 111.09 152.35 55.22 319.25 55.22C486.15 55.22 621.65 111.09 621.65 179.9Z" id="az6Pm8PWx"></path><path d="" id="c5IzoBXZM2"></path><path d="M621.36 470.34C621.36 534.45 485.86 586.5 318.96 586.5C152.06 586.5 16.56 534.45 16.56 470.34C16.56 406.23 152.06 354.18 318.96 354.18C485.86 354.18 621.36 406.23 621.36 470.34Z" id="bboTD5YSS"></path><path d="" id="aiiB4DeJG"></path><path d="M618.51 381.73C618.51 472.21 483.01 545.68 316.11 545.68C149.21 545.68 13.71 472.21 13.71 381.73C13.71 291.25 149.21 217.79 316.11 217.79C483.01 217.79 618.51 291.25 618.51 381.73Z" id="i3zU1U53S"></path><path d="M621.65 212.28C621.65 283.75 486.15 341.78 319.25 341.78C152.35 341.78 16.85 283.75 16.85 212.28C16.85 140.8 152.35 82.78 319.25 82.78C486.15 82.78 621.65 140.8 621.65 212.28Z" id="a1ExMrFfJB"></path></defs><g><g><g><use xlink:href="#b3EY3ZoWn" opacity="1" fill="#d0d4d4" fill-opacity="1"></use></g><g><g><filter id="shadow5931624" x="0.85" y="39.22" width="637.8" height="289.36" filterUnits="userSpaceOnUse" primitiveUnits="userSpaceOnUse"><feFlood></feFlood><feComposite in2="SourceAlpha" operator="in"></feComposite><feGaussianBlur stdDeviation="1"></feGaussianBlur><feOffset dx="1" dy="8" result="afterOffset"></feOffset><feFlood flood-color="#000000" flood-opacity="0.75"></feFlood><feComposite in2="afterOffset" operator="in"></feComposite><feMorphology operator="dilate" radius="1"></feMorphology><feComposite in2="SourceAlpha" operator="out"></feComposite></filter><path d="M621.65 179.9C621.65 248.71 486.15 304.58 319.25 304.58C152.35 304.58 16.85 248.71 16.85 179.9C16.85 111.09 152.35 55.22 319.25 55.22C486.15 55.22 621.65 111.09 621.65 179.9Z" id="g4QmBMD05E" fill="white" fill-opacity="1" filter="url(#shadow5931624)"></path></g><g><filter id="shadow2084594" x="4.85" y="43.22" width="628.8" height="277.36" filterUnits="userSpaceOnUse" primitiveUnits="userSpaceOnUse"><feFlood></feFlood><feComposite in2="SourceAlpha" operator="in"></feComposite><feGaussianBlur stdDeviation="1"></feGaussianBlur><feOffset dx="0" dy="-4" result="afterOffset"></feOffset><feFlood flood-color="#000000" flood-opacity="0.75"></feFlood><feComposite in2="afterOffset" operator="in"></feComposite><feMorphology operator="dilate" radius="1"></feMorphology><feComposite in2="SourceAlpha" operator="out"></feComposite></filter><path d="M621.65 179.9C621.65 248.71 486.15 304.58 319.25 304.58C152.35 304.58 16.85 248.71 16.85 179.9C16.85 111.09 152.35 55.22 319.25 55.22C486.15 55.22 621.65 111.09 621.65 179.9Z" id="aFFDtn8SU" fill="white" fill-opacity="1" filter="url(#shadow2084594)"></path></g><use xlink:href="#az6Pm8PWx" opacity="1" fill="#f5f4f2" fill-opacity="1"></use><g><use xlink:href="#az6Pm8PWx" opacity="1" fill-opacity="0" stroke="#b6b4ad" stroke-width="1" stroke-opacity="1"></use></g></g><g><g><use xlink:href="#c5IzoBXZM2" opacity="1" fill-opacity="0" stroke="#840b36" stroke-width="1" stroke-opacity="1"></use></g></g><g><g><filter id="shadow8139142" x="-0.44" y="337.18" width="638.8" height="275.33" filterUnits="userSpaceOnUse" primitiveUnits="userSpaceOnUse"><feFlood></feFlood><feComposite in2="SourceAlpha" operator="in"></feComposite><feGaussianBlur stdDeviation="1"></feGaussianBlur><feOffset dx="0" dy="9" result="afterOffset"></feOffset><feFlood flood-color="#000000" flood-opacity="0.75"></feFlood><feComposite in2="afterOffset" operator="in"></feComposite><feMorphology operator="dilate" radius="1"></feMorphology><feComposite in2="SourceAlpha" operator="out"></feComposite></filter><path d="M621.36 470.34C621.36 534.45 485.86 586.5 318.96 586.5C152.06 586.5 16.56 534.45 16.56 470.34C16.56 406.23 152.06 354.18 318.96 354.18C485.86 354.18 621.36 406.23 621.36 470.34Z" id="c4iotCDTrF" fill="white" fill-opacity="1" filter="url(#shadow8139142)"></path></g><use xlink:href="#bboTD5YSS" opacity="1" fill="#d0d4d4" fill-opacity="1"></use></g><g><g><use xlink:href="#aiiB4DeJG" opacity="1" fill-opacity="0" stroke="#840b36" stroke-width="1" stroke-opacity="1"></use></g></g><g><use xlink:href="#i3zU1U53S" opacity="1" fill="#bfc9c9" fill-opacity="0.11"></use></g><g><g><filter id="shadow11848639" x="0.85" y="66.78" width="636.8" height="299" filterUnits="userSpaceOnUse" primitiveUnits="userSpaceOnUse"><feFlood></feFlood><feComposite in2="SourceAlpha" operator="in"></feComposite><feGaussianBlur stdDeviation="1"></feGaussianBlur><feOffset dx="0" dy="8" result="afterOffset"></feOffset><feFlood flood-color="#000000" flood-opacity="0.75"></feFlood><feComposite in2="afterOffset" operator="in"></feComposite><feMorphology operator="dilate" radius="1"></feMorphology><feComposite in2="SourceAlpha" operator="out"></feComposite></filter><path d="M621.65 212.28C621.65 283.75 486.15 341.78 319.25 341.78C152.35 341.78 16.85 283.75 16.85 212.28C16.85 140.8 152.35 82.78 319.25 82.78C486.15 82.78 621.65 140.8 621.65 212.28Z" id="aeEjcP17b" fill="white" fill-opacity="1" filter="url(#shadow11848639)"></path></g><use xlink:href="#a1ExMrFfJB" opacity="1" fill="#d0d4d4" fill-opacity="0.12"></use></g></g></g></svg>